SplineFontDB: 3.0
FontName: FrankRuehlCLM-Medium
FullName: Frank Ruehl CLM Medium
FamilyName: Frank Ruehl CLM
Weight: Medium
Copyright: Copyright (c) 2002-2011 by Maxim Iorsh (iorsh@users.sourceforge.net).\nDistributed under the terms of GNU General Public License version 2(http://www.gnu.org/licenses/gpl.html). \nLatin glyphs, digits and punctuation: portions of Century Schoolbook L Roman ver. 1.06 Copyright (URW)++,Copyright 1999 by (URW)++ Design & Development.\nAll rights reserved.
UComments: "2002-7-16: Created." 
Version: 0.121
ItalicAngle: 0
UnderlinePosition: -170
UnderlineWidth: 70
Ascent: 960
Descent: 240
LayerCount: 2
Layer: 0 0 "Back"  1
Layer: 1 0 "Fore"  0
NeedsXUIDChange: 1
FSType: 0
OS2Version: 0
OS2_WeightWidthSlopeOnly: 0
OS2_UseTypoMetrics: 0
CreationTime: 1163025783
ModificationTime: 1324323580
PfmFamily: 17
TTFWeight: 500
TTFWidth: 5
LineGap: 90
VLineGap: 0
Panose: 2 0 6 3 0 0 0 0 0 0
OS2TypoAscent: 0
OS2TypoAOffset: 1
OS2TypoDescent: 0
OS2TypoDOffset: 1
OS2TypoLinegap: 0
OS2WinAscent: 0
OS2WinAOffset: 1
OS2WinDescent: 0
OS2WinDOffset: 1
HheadAscent: 0
HheadAOffset: 1
HheadDescent: 0
HheadDOffset: 1
OS2Vendor: 'CLM '
Lookup: 6 1 0 "ccmpAltAyin"  {"ccmpAltAyin subtable"  } ['ccmp' ('hebr' <'dflt' > ) ]
Lookup: 1 1 0 "Single Substitution lookup 1"  {"Single Substitution lookup 1 subtable"  } []
Lookup: 6 1 0 "ccmpVavHolam"  {"ccmpVavHolam subtable"  } ['ccmp' ('hebr' <'dflt' > ) ]
Lookup: 1 1 0 "salt MiscSAlt"  {"MiscSAlt"  } ['salt' ('hebr' <'dflt' > ) ]
Lookup: 4 1 0 "ccmp AlephLamed2"  {"AlephLamed2"  } ['ccmp' ('hebr' <'JUD ' > ) ]
Lookup: 4 1 0 "dlig AlephLamed"  {"AlephLamed"  } ['dlig' ('hebr' <'dflt' > ) ]
Lookup: 4 1 0 "ccmp CustomPrecomp"  {"CustomPrecomp"  } ['ccmp' ('hebr' <'dflt' > ) ]
Lookup: 1 1 0 "jalt WideLetters"  {"WideLetters"  } ['jalt' ('hebr' <'dflt' > ) ]
Lookup: 1 1 0 "ccmp Yiddish2"  {"Yiddish2"  } ['ccmp' ('hebr' <'JII ' > ) ]
Lookup: 4 1 0 "ccmp Yiddish_dflt"  {"Yiddish_dflt"  } ['ccmp' ('hebr' <'dflt' > ) ]

StartChar: exclam
Encoding: 33 33 0
Width: 305
VWidth: 1000
Flags: HMW
HStem: 259.083 24.9826
LayerCount: 2
Back
SplineSet
120.606 289 m 2
 84.3994 548.173 l 2
 81.5488 569.193 78.9121 594.4 78.9121 610 c 0
 78.9121 672 103.062 704 150.212 704 c 0
 197.361 704 220.361 673 220.361 609 c 0
 220.361 593.689 217.641 570.941 214.645 548.673 c 2
 178.655 289 l 2
 167.029 205.111 132.117 206.608 120.606 289 c 2
84.124 95.75 m 2
 135.312 164 l 2
 147.702 180.52 154.632 180.24 166.812 164 c 2
 218 95.75 l 2
 225.78 85.376 226.032 74.96 218 64.25 c 2
 166.812 -4 l 2
 154.254 -20.7441 148.038 -20.9678 135.312 -4 c 2
 84.124 64.25 l 2
 75.3779 75.9121 75.9238 84.8164 84.124 95.75 c 2
EndSplineSet
Fore
SplineSet
177.37 260.329 m 10
 176.127 251.36 173.742 246.88 168.2 239 c 0
 154.367 219.333 150.7 219.667 136.7 239 c 0
 131.539 246.128 128.623 251.342 127.364 260.339 c 18
 87.0996 548.173 l 2
 84.1611 569.182 81.6123 594.4 81.6123 610 c 0
 81.6123 672 105.762 704 152.912 704 c 0
 200.061 704 223.061 673 223.061 609 c 0
 223.061 593.689 220.43 570.93 217.345 548.673 c 2
 177.37 260.329 l 10
87.4941 96.2227 m 6
 138.17 166.52 l 6
 150.436 183.535 157.296 183.247 169.354 166.52 c 6
 220.03 96.2227 l 6
 227.733 85.5371 227.982 74.8086 220.03 63.7773 c 6
 169.354 -6.51953 l 6
 156.922 -23.7666 150.768 -23.9971 138.17 -6.51953 c 6
 87.4941 63.7773 l 6
 78.835 75.7891 79.376 84.9609 87.4941 96.2227 c 6
EndSplineSet
EndChar

StartChar: quotedbl
Encoding: 34 34 1
Width: 427
VWidth: 1000
Flags: HMW
LayerCount: 2
Fore
SplineSet
60.7656 378 m 1
 75.3066 624.399 l 2
 75.9404 632.1 77.709 638.7 79.4775 645.3 c 0
 89.499 682.7 119.409 703.6 160.878 703.6 c 0
 203.778 703.6 222.783 683.8 212.467 645.3 c 0
 210.699 638.7 208.636 631 205.438 624.399 c 2
 87.9346 378 l 1
 60.7656 378 l 1
250.233 378 m 1
 264.776 624.399 l 2
 265.41 632.1 267.179 638.7 268.946 645.3 c 0
 278.968 682.7 310.309 703.6 351.777 703.6 c 4
 393.248 703.6 413.389 682.7 403.661 646.399 c 0
 401.599 638.7 398.401 632.1 394.906 624.399 c 2
 277.404 378 l 1
 250.233 378 l 1
EndSplineSet
EndChar

StartChar: numbersign
Encoding: 35 35 2
Width: 570
VWidth: 1000
Flags: MW
HStem: 0 21G<102 174 297 369> 218 66<33 133 215 328 410 511> 416 66<60 162 243 357 438 538>
DStem2: 102 0 174 0 0.143455 0.989657<10.3288 220.278 297.202 420.305 497.309 693.107> 297 0 369 0 0.143455 0.989657<10.3288 220.278 297.202 420.305 497.309 693.107>
LayerCount: 2
Back
SplineSet
135 228 m 1
 33 228 l 1
 33 284 l 1
 143 284 l 1
 162 416 l 1
 60 416 l 1
 60 472 l 1
 170 472 l 1
 201 686 l 1
 266 686 l 1
 235 472 l 1
 358 472 l 1
 389 686 l 1
 454 686 l 1
 423 472 l 1
 524 472 l 1
 524 416 l 1
 415 416 l 1
 396 284 l 1
 497 284 l 1
 497 228 l 1
 388 228 l 1
 355 0 l 1
 290 0 l 1
 323 228 l 1
 200 228 l 1
 167 0 l 1
 102 0 l 1
 135 228 l 1
227 416 m 1
 208 284 l 1
 331 284 l 1
 350 416 l 1
 227 416 l 1
EndSplineSet
Fore
SplineSet
133.6 218 m 1
 33 218 l 1
 33 284 l 1
 143 284 l 1
 162 416 l 1
 60 416 l 1
 60 482 l 1
 171.4 482 l 1
 201 686 l 1
 273 686 l 1
 243.4 482 l 1
 366.4 482 l 1
 396 686 l 1
 468 686 l 1
 438.4 482 l 1
 538 482 l 1
 538 416 l 1
 429 416 l 1
 410 284 l 1
 511 284 l 1
 511 218 l 1
 400.6 218 l 1
 369 0 l 1
 297 0 l 1
 328.6 218 l 1
 205.6 218 l 1
 174 0 l 1
 102 0 l 1
 133.6 218 l 1
234 416 m 1
 215 284 l 1
 338 284 l 1
 357 416 l 1
 234 416 l 1
EndSplineSet
EndChar

StartChar: dollar
Encoding: 36 36 3
Width: 556
VWidth: 1000
Flags: W
HStem: 460 20G<390.25 434.5>
VStem: 45 141<148 172.438> 243 63<-130 -9 42 288 430 643 694 801> 387 93<550 605>
LayerCount: 2
Back
SplineSet
298 801 m 1
 298 697 l 1
 407 689 480 630 480 550 c 0
 480 506 456 480 418 480 c 0
 382 480 358 503 358 538 c 0
 358 561 365 572 394 593 c 0
 397 596 400 600 400 603 c 0
 400 624 352 647 298 652 c 1
 298 405 l 1
 304 403 307 402 321 398 c 0
 395 376 432 358 463 328 c 0
 494 297 510 255 510 202 c 0
 510 76 430 -3 298 -10 c 1
 298 -130 l 1
 251 -130 l 1
 251 -11 l 1
 210 -9 191 -6 163 3 c 0
 90 27 45 82 45 148 c 0
 45 198 75 234 116 234 c 0
 150 234 177 207 177 172 c 0
 177 143 165 127 131 107 c 0
 125 104 123 101 123 96 c 0
 123 65 179 37 251 32 c 1
 251 311 l 1
 198 327 168 339 142 354 c 0
 88 387 58 442 58 507 c 0
 58 611 129 681 251 696 c 1
 251 801 l 1
 298 801 l 1
251 420 m 1
 251 650 l 1
 180 644 130 598 130 539 c 0
 130 481 163 449 251 420 c 1
298 298 m 1
 298 33 l 1
 324 36 336 39 353 46 c 0
 403 67 436 115 436 166 c 0
 436 220 403 261 340 285 c 0
 327 290 327 290 298 298 c 1
EndSplineSet
Fore
SplineSet
243 694.927 m 1
 243 801 l 5
 306 801 l 5
 306 696.315 l 1
 410.557 686.076 480 628.027 480 550 c 0
 480 506 457.5 480 411.5 480 c 0
 369 480 346.5 508 346.5 541.938 c 0
 346.5 563.375 354 578 381 595.688 c 0
 384.438 597.938 387 602.203 387 605 c 0
 387 619.246 355.431 637.353 306 643.127 c 1
 306 411.495 l 1
 321 407.281 l 0
 388 388 429.5 362.953 460.5 335 c 0
 491.5 306.125 510 264.5 510 202 c 0
 510 78.5661 433.225 0.23733 306 -9.48293 c 1
 306 -130 l 5
 243 -130 l 5
 243 -10.5804 l 1
 207.398 -8.56834 189.113 -5.39339 163 3 c 0
 90 27 45 82 45 148 c 0
 45 198 73 234 123 234 c 0
 161.5 234 186 205.047 186 172.438 c 0
 186 145.422 175.5 123.5 143.5 104.5 c 0
 137.812 101.125 135.5 98.9062 135.5 94.25 c 0
 135.5 73.799 175.79 48.6301 243 42.6158 c 1
 243 304.256 l 1
 194.922 318.606 166.637 334.823 141.5 350 c 0
 88.3125 382.125 58 442 58 507 c 0
 58 608.706 125.902 677.895 243 694.927 c 1
243 430.335 m 1
 243 641.273 l 1
 182.139 633.511 138.5 587.39 138.5 538.656 c 0
 138.5 497.806 161.505 457.382 243 430.335 c 1
306 288.188 m 1
 306 43.835 l 1
 326.697 46.2882 337.998 48.8483 353 55.0469 c 0
 396.5 73 427.5 110.5 427.5 166.844 c 0
 427.5 218 396.5 255.5 340 277.719 c 0
 329.674 281.771 317.232 285.622 306 288.188 c 1
EndSplineSet
EndChar

StartChar: percent
Encoding: 37 37 4
Width: 848
VWidth: 1000
Flags: HMW
LayerCount: 2
Back
SplineSet
665 722 m 1
 251 0 l 1
 186 0 l 1
 546 631 l 1
 509 609 484 602 450 602 c 0
 429 602 412 605 387 614 c 1
 389 599 390 591 390 582 c 0
 390 521 362 448 319 397 c 0
 275 345 229 321 173 321 c 0
 99 321 45 373 45 445 c 0
 45 512 92 605 151 656 c 0
 190 689 235 708 278 708 c 0
 318 708 343 695 369 661 c 1
 399 644 417 639 442 639 c 0
 506 639 564 668 604 722 c 1
 665 722 l 1
286 669 m 1
 245 655 232 643 194 576 c 0
 147 494 132 455 132 418 c 0
 132 383 155 359 188 359 c 0
 268 359 353 477 353 587 c 0
 353 602 352 612 347 628 c 1
 319 638 304 648 286 669 c 1
690 401 m 0
 758 401 807 351 807 282 c 0
 807 223 777 146 731 89 c 0
 694 42 642 15 590 15 c 0
 515 15 460 66 460 136 c 0
 460 192 487 261 529 314 c 0
 575 370 631 401 690 401 c 0
707 361 m 0
 676 361 650 339 619 288 c 0
 566 202 545 151 545 111 c 0
 545 79 570 54 601 54 c 0
 681 54 769 171 769 280 c 0
 769 325 741 361 707 361 c 0
EndSplineSet
Fore
SplineSet
389 598.642 m 1
 389.231 595.538 390 591 390 582 c 0
 390 521 362 448 319 397 c 0
 275 345 229 321 173 321 c 0
 99 321 45 373 45 445 c 0
 45 512 92 605 151 656 c 0
 190 689 235 708 278 708 c 0
 318 708 343 695 369 661 c 1
 399 644 417 639 442 639 c 0
 506 639 564 668 604 722 c 1
 665 722 l 1
 251 0 l 1
 186 0 l 1
 540 620 l 1
 503 598 473 591 439 591 c 0
 421.845 591 407.359 593.002 389 598.642 c 1
281.65 653.5 m 1
 244.75 640.9 233.05 630.1 198.85 569.8 c 0
 156.55 496 143.05 460.9 143.05 427.6 c 0
 143.05 396.1 163.75 374.5 193.45 374.5 c 0
 265.45 374.5 341.95 480.7 341.95 579.7 c 0
 341.95 593.2 341.05 602.2 336.55 616.6 c 1
 311.35 625.6 297.85 634.6 281.65 653.5 c 1
690 401 m 0
 758 401 807 351 807 282 c 0
 807 223 777 146 731 89 c 0
 694 42 642 15 590 15 c 0
 515 15 460 66 460 136 c 0
 460 192 487 261 529 314 c 0
 575 370 631 401 690 401 c 0
702 345.65 m 0
 674.1 345.65 650.7 325.85 622.8 279.95 c 0
 575.1 202.55 556.2 156.65 556.2 120.65 c 0
 556.2 91.8496 578.7 69.3496 606.6 69.3496 c 0
 678.6 69.3496 757.8 174.65 757.8 272.75 c 0
 757.8 313.25 732.6 345.65 702 345.65 c 0
EndSplineSet
EndChar

StartChar: ampersand
Encoding: 38 38 5
Width: 815
VWidth: 1000
Flags: W
HStem: -15 68<282 302> -11 79<623.5 632> 694 43<331.5 377>
VStem: 51 107<193 234> 182 94<576.5 613> 433 80<575.5 627.5>
LayerCount: 2
Fore
SplineSet
731 169 m 1x7c
 775 163 l 1
 770 124 761 95 741 65 c 0
 706 12 664 -11 600 -11 c 0x7c
 545 -11 506 7 458 56 c 1
 393 6 338 -15 266 -15 c 0xbc
 199 -15 145 6 108 46 c 0
 73 84 51 140 51 189 c 0
 51 279 112 357 224 411 c 1
 193 477 182 516 182 560 c 0
 182 666 252 737 357 737 c 0
 450 737 513 682 513 602 c 0
 513 549 483 494 437 462 c 0
 411 444 394 435 340 411 c 1
 400 301 452 221 501 163 c 1
 544 213 571 271 571 314 c 0
 571 345 540 361 481 361 c 2
 471 361 l 1
 471 404 l 1
 753 404 l 1
 753 361 l 1
 742 361 l 2
 710 361 682 351 664 334 c 1
 647 316 647 316 598 225 c 0
 576 185 574 181 532 129 c 1
 572 86 605 68 642 68 c 0
 686 68 719 106 731 169 c 1x7c
319 453 m 1
 339 463 340 463 348 468 c 0
 405 499 433 543 433 600 c 0
 433 655 400 694 354 694 c 0
 309 694 276 653 276 595 c 0
 276 558 290 513 319 453 c 1
243 370 m 1
 183 335 158 298 158 243 c 0
 158 143 238 53 326 53 c 0xbc
 359 53 383 62 427 90 c 1
 342 189 309 240 243 370 c 1
EndSplineSet
EndChar

StartChar: quotesingle
Encoding: 39 39 6
Width: 239
VWidth: 1000
Flags: HMW
LayerCount: 2
Fore
SplineSet
60.9893 378 m 1
 75.5312 624.399 l 2
 76.165 632.1 77.9326 638.7 79.7012 645.3 c 0
 89.7227 682.7 119.633 703.6 161.103 703.6 c 4
 204.002 703.6 223.007 683.8 212.691 645.3 c 0
 210.923 638.7 208.859 631 205.662 624.399 c 2
 88.1582 378 l 1
 60.9893 378 l 1
EndSplineSet
EndChar

StartChar: parenleft
Encoding: 40 40 7
Width: 348
VWidth: 1000
Flags: HMW
HStem: 716 20<294 294>
VStem: 51 103<250 367.5>
LayerCount: 2
Fore
SplineSet
279 736 m 1
 294 696 l 1
 194 608 154 496 154 304 c 0
 154 112 194 -1 294 -89 c 1
 279 -123 l 1
 211 -81 177 -51 139 -3 c 1
 72 86 36 193 36 307 c 0
 36 428 77 543 153 633 c 0
 187 673 219 699 279 736 c 1
EndSplineSet
EndChar

StartChar: parenright
Encoding: 41 41 8
Width: 348
VWidth: 1000
Flags: HMW
HStem: 716 20<69 69>
VStem: 209 103<246.5 364>
LayerCount: 2
Fore
SplineSet
69 -123 m 5
 54 -86 l 1
 154 2 194 114 194 307 c 0
 194 499 154 611 54 699 c 1
 69 736 l 5
 137 695 171 665 209 616 c 4
 276 528 312 421 312 307 c 4
 312 186 271 70 195 -19 c 4
 161 -60 129 -86 69 -123 c 5
EndSplineSet
EndChar

StartChar: asterisk
Encoding: 42 42 9
Width: 517
VWidth: 1000
Flags: HMW
HStem: 716 20<247.956 268.956>
VStem: 248.456 21<464 500 537 573>
LayerCount: 2
Back
SplineSet
239 537 m 1
 239 573 l 2
 239 605 237 613 216 662 c 0
 211 674 208 685 208 692 c 0
 208 714 228 736 249 736 c 0
 270 736 291 715 291 692 c 0
 291 682 290 678 274 640 c 0
 264 618 260 597 260 573 c 2
 260 537 l 1
 291 555 l 2
 318 571 330 583 357 620 c 0
 372 641 383 648 401 648 c 0
 424 648 443 631 443 609 c 0
 443 581 425 565 391 561 c 0
 345 556 330 552 302 536 c 2
 271 518 l 1
 302 500 l 2
 330 485 343 481 391 476 c 0
 425 472 443 456 443 428 c 0
 443 406 424 389 401 389 c 0
 383 389 372 396 357 417 c 0
 330 454 318 466 291 482 c 2
 260 500 l 1
 260 464 l 2
 260 432 263 422 283 374 c 0
 288 362 291 351 291 343 c 0
 291 322 270 300 249 300 c 0
 228 300 207 322 207 344 c 0
 207 351 210 362 215 374 c 0
 237 423 239 432 239 464 c 2
 239 500 l 1
 208 482 l 2
 180 465 169 454 142 416 c 0
 127 396 116 389 98 389 c 0
 75 389 56 406 56 428 c 0
 56 456 74 472 108 476 c 0
 155 481 169 485 197 501 c 2
 228 518 l 1
 197 536 l 2
 170 552 154 556 108 561 c 0
 74 564 56 581 56 609 c 0
 56 630 75 648 98 648 c 0
 116 648 127 641 142 620 c 0
 169 583 182 570 208 555 c 2
 239 537 l 1
EndSplineSet
Fore
SplineSet
242.844 491.088 m 1
 211.666 473.087 l 2
 183.954 457.088 174.365 455.017 142.43 412.329 c 0
 134.537 402 126.512 393.901 120.449 390.401 c 0
 101.396 379.401 72.3428 385.722 61.8438 403.908 c 0
 51.3438 422.095 59.0303 450.781 78.9482 462.282 c 0
 87.6084 467.281 91.5732 468.415 132.482 473.56 c 0
 156.534 475.899 175.381 487.935 196.165 499.935 c 2
 227.343 517.936 l 1
 196.254 535.781 l 2
 168.898 551.164 153.846 560.557 108.303 565.438 c 0
 82.6162 567.93 71.0547 573.956 62.0537 589.545 c 0
 50.5547 609.463 55.7764 634.417 74.8291 645.417 c 0
 99.0771 659.418 121.935 651.829 142.397 624.384 c 0
 169.729 587.047 184.353 579.716 212.209 563.468 c 2
 243.298 545.621 l 1
 243.386 581.469 l 2
 242.377 613.217 244.34 627.815 224.67 671.885 c 0
 211.135 703.329 215.991 726.917 240.239 740.918 c 0
 259.292 751.918 283.515 743.962 295.015 724.044 c 0
 304.016 708.456 303.453 695.43 292.767 671.939 c 0
 274.224 630.057 274.831 612.324 274.474 580.941 c 2
 274.386 545.096 l 1
 305.562 563.096 l 2
 333.275 579.096 344.097 583.033 375.666 624.354 c 0
 383.558 634.683 391.584 642.781 398.512 646.782 c 0
 416.698 657.282 446.251 650.096 456.751 631.909 c 0
 467.251 613.723 458.698 584.536 439.646 573.535 c 0
 433.584 570.035 422.558 567.133 409.666 565.464 c 0
 356.23 560.017 348.776 552.248 321.063 536.248 c 2
 289.887 518.248 l 1
 320.975 500.401 l 2
 349.696 484.653 363.384 475.627 409.793 471.244 c 0
 434.613 468.254 446.175 462.227 455.176 446.639 c 0
 466.675 426.721 461.453 401.766 442.4 390.766 c 0
 418.151 376.766 395.295 384.354 374.831 411.799 c 0
 347.001 450.002 332.876 456.467 305.021 472.715 c 2
 274.798 491.062 l 1
 274.709 455.215 l 2
 274.353 423.832 273.888 406.636 292.559 364.299 c 0
 306.96 333.354 301.238 309.266 276.989 295.266 c 0
 258.803 284.766 233.714 292.221 222.215 312.139 c 0
 213.214 327.728 213.776 340.753 224.463 364.243 c 0
 243.006 406.126 242.765 425.225 242.755 455.241 c 2
 242.844 491.088 l 1
EndSplineSet
EndChar

StartChar: plus
Encoding: 43 43 10
Width: 606
VWidth: 1000
Flags: HMW
HStem: 0 20 213 80<51 263 343 555>
VStem: 263 80<0 213 293 505>
LayerCount: 2
Back
SplineSet
263 293 m 5
 263 505 l 1
 343 505 l 1
 343 293 l 5
 555 293 l 5
 555 213 l 1
 343 213 l 1
 343 0 l 1
 263 0 l 1
 263 213 l 1
 51 213 l 1
 51 293 l 5
 263 293 l 5
EndSplineSet
Fore
SplineSet
263 293 m 5
 263 505 l 1
 343 505 l 1
 343 293 l 5
 555 293 l 5
 555 213 l 1
 343 213 l 1
 343 0 l 1
 263 0 l 1
 263 213 l 1
 51 213 l 1
 51 293 l 5
 263 293 l 5
EndSplineSet
Substitution2: "MiscSAlt" uniFB29
EndChar

StartChar: comma
Encoding: 44 44 11
Width: 306
VWidth: 1000
Flags: W
VStem: 111.859 32.241<-118.671 -112>
LayerCount: 2
Back
SplineSet
103.062 95.75 m 6
 154.25 164 l 6
 166.64 180.52 173.57 180.24 185.75 164 c 6
 236.938 95.75 l 6
 244.718 85.376 242.737 75.248 236.938 64.25 c 6
 144 -112 l 6
 131.426 -128.766 109.063 -123.153 114.69 -97 c 6
 134.805 -3.5 l 6
 137.689 9.9082 137.062 18.6006 130.062 28 c 6
 103.062 64.25 l 6
 94.3164 75.9121 94.8623 84.8164 103.062 95.75 c 6
EndSplineSet
Fore
SplineSet
99.0684 95.75 m 6
 155.375 164 l 6
 169.004 180.52 176.627 180.24 190.025 164 c 6
 246.332 95.75 l 6
 254.889 85.376 252.711 75.248 246.332 64.25 c 6
 144.1 -112 l 6
 130.268 -128.766 105.67 -123.153 111.859 -97 c 6
 133.985 -3.5 l 6
 137.158 9.9082 136.469 18.6006 128.768 28 c 6
 99.0684 64.25 l 6
 89.4482 75.9121 90.0488 84.8164 99.0684 95.75 c 6
EndSplineSet
EndChar

StartChar: hyphen
Encoding: 45 45 12
Width: 425
VWidth: 1000
Flags: MW
HStem: 247 109<58.0793 361.964>
LayerCount: 2
Back
SplineSet
42 285 m 1
 301 285 l 5
 301 188 l 5
 42 188 l 1
 42 285 l 1
EndSplineSet
Fore
SplineSet
377.636 336 m 2
 359.399 262 l 2
 356.711 251.95 351.653 247 340.386 247 c 2
 57.3857 247 l 2
 43.6533 247 39.2627 253.996 42.457 267 c 2
 60.6357 341 l 2
 63.21 351.156 67.6533 356 79.4375 356 c 2
 362.988 356 l 2
 376.653 356 380.834 348.979 377.636 336 c 2
EndSplineSet
PairPos2: "'kern' Horizontal Kerning in Hebrew lookup 0 subtable" uniE804 dx=25 dy=0 dh=25 dv=0 dx=0 dy=0 dh=0 dv=0
PairPos2: "'kern' Horizontal Kerning in Hebrew lookup 0 subtable" uniE803 dx=10 dy=0 dh=10 dv=0 dx=0 dy=0 dh=0 dv=0
PairPos2: "'kern' Horizontal Kerning in Hebrew lookup 0 subtable" uniE802 dx=10 dy=0 dh=10 dv=0 dx=0 dy=0 dh=0 dv=0
PairPos2: "'kern' Horizontal Kerning in Hebrew lookup 0 subtable" uniE801 dx=35 dy=0 dh=35 dv=0 dx=0 dy=0 dh=0 dv=0
PairPos2: "'kern' Horizontal Kerning in Hebrew lookup 0 subtable" uniFB1D dx=25 dy=0 dh=25 dv=0 dx=0 dy=0 dh=0 dv=0
PairPos2: "'kern' Horizontal Kerning in Hebrew lookup 0 subtable" uniFB2D dx=-10 dy=0 dh=-10 dv=0 dx=0 dy=0 dh=0 dv=0
PairPos2: "'kern' Horizontal Kerning in Hebrew lookup 0 subtable" uniFB2C dx=-10 dy=0 dh=-10 dv=0 dx=0 dy=0 dh=0 dv=0
PairPos2: "'kern' Horizontal Kerning in Hebrew lookup 0 subtable" uniFB45 dx=-20 dy=0 dh=-20 dv=0 dx=0 dy=0 dh=0 dv=0
PairPos2: "'kern' Horizontal Kerning in Hebrew lookup 0 subtable" uniFB42 dx=-10 dy=0 dh=-10 dv=0 dx=0 dy=0 dh=0 dv=0
PairPos2: "'kern' Horizontal Kerning in Hebrew lookup 0 subtable" uniFB3D dx=20 dy=0 dh=20 dv=0 dx=0 dy=0 dh=0 dv=0
PairPos2: "'kern' Horizontal Kerning in Hebrew lookup 0 subtable" uniFB37 dx=35 dy=0 dh=35 dv=0 dx=0 dy=0 dh=0 dv=0
PairPos2: "'kern' Horizontal Kerning in Hebrew lookup 0 subtable" afii57718 dx=25 dy=0 dh=25 dv=0 dx=0 dy=0 dh=0 dv=0
PairPos2: "'kern' Horizontal Kerning in Hebrew lookup 0 subtable" afii57705 dx=25 dy=0 dh=25 dv=0 dx=0 dy=0 dh=0 dv=0
PairPos2: "'kern' Horizontal Kerning in Hebrew lookup 0 subtable" afii57717 dx=25 dy=0 dh=25 dv=0 dx=0 dy=0 dh=0 dv=0
PairPos2: "'kern' Horizontal Kerning in Hebrew lookup 0 subtable" afii57716 dx=35 dy=0 dh=35 dv=0 dx=0 dy=0 dh=0 dv=0
PairPos2: "'kern' Horizontal Kerning in Hebrew lookup 0 subtable" uniFB4A dx=35 dy=0 dh=35 dv=0 dx=0 dy=0 dh=0 dv=0
PairPos2: "'kern' Horizontal Kerning in Hebrew lookup 0 subtable" uniFB28 dx=35 dy=0 dh=35 dv=0 dx=0 dy=0 dh=0 dv=0
PairPos2: "'kern' Horizontal Kerning in Hebrew lookup 0 subtable" afii57690 dx=35 dy=0 dh=35 dv=0 dx=0 dy=0 dh=0 dv=0
PairPos2: "'kern' Horizontal Kerning in Hebrew lookup 0 subtable" uniFB49 dx=-10 dy=0 dh=-10 dv=0 dx=0 dy=0 dh=0 dv=0
PairPos2: "'kern' Horizontal Kerning in Hebrew lookup 0 subtable" afii57695 dx=-10 dy=0 dh=-10 dv=0 dx=0 dy=0 dh=0 dv=0
PairPos2: "'kern' Horizontal Kerning in Hebrew lookup 0 subtable" afii57694 dx=-10 dy=0 dh=-10 dv=0 dx=0 dy=0 dh=0 dv=0
PairPos2: "'kern' Horizontal Kerning in Hebrew lookup 0 subtable" afii57689 dx=-10 dy=0 dh=-10 dv=0 dx=0 dy=0 dh=0 dv=0
PairPos2: "'kern' Horizontal Kerning in Hebrew lookup 0 subtable" uniFB48 dx=45 dy=0 dh=45 dv=0 dx=0 dy=0 dh=0 dv=0
PairPos2: "'kern' Horizontal Kerning in Hebrew lookup 0 subtable" afii57688 dx=45 dy=0 dh=45 dv=0 dx=0 dy=0 dh=0 dv=0
PairPos2: "'kern' Horizontal Kerning in Hebrew lookup 0 subtable" uniFB47 dx=45 dy=0 dh=45 dv=0 dx=0 dy=0 dh=0 dv=0
PairPos2: "'kern' Horizontal Kerning in Hebrew lookup 0 subtable" afii57687 dx=45 dy=0 dh=45 dv=0 dx=0 dy=0 dh=0 dv=0
PairPos2: "'kern' Horizontal Kerning in Hebrew lookup 0 subtable" uniFB46 dx=20 dy=0 dh=20 dv=0 dx=0 dy=0 dh=0 dv=0
PairPos2: "'kern' Horizontal Kerning in Hebrew lookup 0 subtable" afii57686 dx=20 dy=0 dh=20 dv=0 dx=0 dy=0 dh=0 dv=0
PairPos2: "'kern' Horizontal Kerning in Hebrew lookup 0 subtable" afii57685 dx=-20 dy=0 dh=-20 dv=0 dx=0 dy=0 dh=0 dv=0
PairPos2: "'kern' Horizontal Kerning in Hebrew lookup 0 subtable" uniFB4E dx=45 dy=0 dh=45 dv=0 dx=0 dy=0 dh=0 dv=0
PairPos2: "'kern' Horizontal Kerning in Hebrew lookup 0 subtable" uniFB44 dx=45 dy=0 dh=45 dv=0 dx=0 dy=0 dh=0 dv=0
PairPos2: "'kern' Horizontal Kerning in Hebrew lookup 0 subtable" afii57684 dx=45 dy=0 dh=45 dv=0 dx=0 dy=0 dh=0 dv=0
PairPos2: "'kern' Horizontal Kerning in Hebrew lookup 0 subtable" uniFB43 dx=25 dy=0 dh=25 dv=0 dx=0 dy=0 dh=0 dv=0
PairPos2: "'kern' Horizontal Kerning in Hebrew lookup 0 subtable" afii57683 dx=25 dy=0 dh=25 dv=0 dx=0 dy=0 dh=0 dv=0
PairPos2: "'kern' Horizontal Kerning in Hebrew lookup 0 subtable" afii57682 dx=-10 dy=0 dh=-10 dv=0 dx=0 dy=0 dh=0 dv=0
PairPos2: "'kern' Horizontal Kerning in Hebrew lookup 0 subtable" uniFB41 dx=50 dy=0 dh=50 dv=0 dx=0 dy=0 dh=0 dv=0
PairPos2: "'kern' Horizontal Kerning in Hebrew lookup 0 subtable" afii57681 dx=50 dy=0 dh=50 dv=0 dx=0 dy=0 dh=0 dv=0
PairPos2: "'kern' Horizontal Kerning in Hebrew lookup 0 subtable" uniFB40 dx=30 dy=0 dh=30 dv=0 dx=0 dy=0 dh=0 dv=0
PairPos2: "'kern' Horizontal Kerning in Hebrew lookup 0 subtable" afii57680 dx=30 dy=0 dh=30 dv=0 dx=0 dy=0 dh=0 dv=0
PairPos2: "'kern' Horizontal Kerning in Hebrew lookup 0 subtable" uniFB3E dx=30 dy=0 dh=30 dv=0 dx=0 dy=0 dh=0 dv=0
PairPos2: "'kern' Horizontal Kerning in Hebrew lookup 0 subtable" afii57678 dx=30 dy=0 dh=30 dv=0 dx=0 dy=0 dh=0 dv=0
PairPos2: "'kern' Horizontal Kerning in Hebrew lookup 0 subtable" uniFB26 dx=20 dy=0 dh=20 dv=0 dx=0 dy=0 dh=0 dv=0
PairPos2: "'kern' Horizontal Kerning in Hebrew lookup 0 subtable" afii57677 dx=20 dy=0 dh=20 dv=0 dx=0 dy=0 dh=0 dv=0
PairPos2: "'kern' Horizontal Kerning in Hebrew lookup 0 subtable" uniFB3C dx=10 dy=0 dh=10 dv=0 dx=0 dy=0 dh=0 dv=0
PairPos2: "'kern' Horizontal Kerning in Hebrew lookup 0 subtable" uniFB25 dx=10 dy=0 dh=10 dv=0 dx=0 dy=0 dh=0 dv=0
PairPos2: "'kern' Horizontal Kerning in Hebrew lookup 0 subtable" afii57676 dx=10 dy=0 dh=10 dv=0 dx=0 dy=0 dh=0 dv=0
PairPos2: "'kern' Horizontal Kerning in Hebrew lookup 0 subtable" uniFB4D dx=40 dy=0 dh=40 dv=0 dx=0 dy=0 dh=0 dv=0
PairPos2: "'kern' Horizontal Kerning in Hebrew lookup 0 subtable" uniFB3B dx=40 dy=0 dh=40 dv=0 dx=0 dy=0 dh=0 dv=0
PairPos2: "'kern' Horizontal Kerning in Hebrew lookup 0 subtable" uniFB24 dx=40 dy=0 dh=40 dv=0 dx=0 dy=0 dh=0 dv=0
PairPos2: "'kern' Horizontal Kerning in Hebrew lookup 0 subtable" afii57675 dx=40 dy=0 dh=40 dv=0 dx=0 dy=0 dh=0 dv=0
PairPos2: "'kern' Horizontal Kerning in Hebrew lookup 0 subtable" uniFB3A dx=10 dy=0 dh=10 dv=0 dx=0 dy=0 dh=0 dv=0
PairPos2: "'kern' Horizontal Kerning in Hebrew lookup 0 subtable" afii57674 dx=10 dy=0 dh=10 dv=0 dx=0 dy=0 dh=0 dv=0
PairPos2: "'kern' Horizontal Kerning in Hebrew lookup 0 subtable" uniFB39 dx=25 dy=0 dh=25 dv=0 dx=0 dy=0 dh=0 dv=0
PairPos2: "'kern' Horizontal Kerning in Hebrew lookup 0 subtable" afii57673 dx=25 dy=0 dh=25 dv=0 dx=0 dy=0 dh=0 dv=0
PairPos2: "'kern' Horizontal Kerning in Hebrew lookup 0 subtable" uniFB38 dx=50 dy=0 dh=50 dv=0 dx=0 dy=0 dh=0 dv=0
PairPos2: "'kern' Horizontal Kerning in Hebrew lookup 0 subtable" afii57672 dx=50 dy=0 dh=50 dv=0 dx=0 dy=0 dh=0 dv=0
PairPos2: "'kern' Horizontal Kerning in Hebrew lookup 0 subtable" afii57671 dx=35 dy=0 dh=35 dv=0 dx=0 dy=0 dh=0 dv=0
PairPos2: "'kern' Horizontal Kerning in Hebrew lookup 0 subtable" uniFB36 dx=-10 dy=0 dh=-10 dv=0 dx=0 dy=0 dh=0 dv=0
PairPos2: "'kern' Horizontal Kerning in Hebrew lookup 0 subtable" afii57670 dx=-10 dy=0 dh=-10 dv=0 dx=0 dy=0 dh=0 dv=0
PairPos2: "'kern' Horizontal Kerning in Hebrew lookup 0 subtable" afii57723 dx=35 dy=0 dh=35 dv=0 dx=0 dy=0 dh=0 dv=0
PairPos2: "'kern' Horizontal Kerning in Hebrew lookup 0 subtable" afii57700 dx=35 dy=0 dh=35 dv=0 dx=0 dy=0 dh=0 dv=0
PairPos2: "'kern' Horizontal Kerning in Hebrew lookup 0 subtable" afii57669 dx=35 dy=0 dh=35 dv=0 dx=0 dy=0 dh=0 dv=0
PairPos2: "'kern' Horizontal Kerning in Hebrew lookup 0 subtable" uniFB34 dx=10 dy=0 dh=10 dv=0 dx=0 dy=0 dh=0 dv=0
PairPos2: "'kern' Horizontal Kerning in Hebrew lookup 0 subtable" uniFB23 dx=10 dy=0 dh=10 dv=0 dx=0 dy=0 dh=0 dv=0
PairPos2: "'kern' Horizontal Kerning in Hebrew lookup 0 subtable" afii57668 dx=10 dy=0 dh=10 dv=0 dx=0 dy=0 dh=0 dv=0
PairPos2: "'kern' Horizontal Kerning in Hebrew lookup 0 subtable" uniFB33 dx=10 dy=0 dh=10 dv=0 dx=0 dy=0 dh=0 dv=0
PairPos2: "'kern' Horizontal Kerning in Hebrew lookup 0 subtable" uniFB22 dx=10 dy=0 dh=10 dv=0 dx=0 dy=0 dh=0 dv=0
PairPos2: "'kern' Horizontal Kerning in Hebrew lookup 0 subtable" afii57667 dx=10 dy=0 dh=10 dv=0 dx=0 dy=0 dh=0 dv=0
PairPos2: "'kern' Horizontal Kerning in Hebrew lookup 0 subtable" uniFB32 dx=10 dy=0 dh=10 dv=0 dx=0 dy=0 dh=0 dv=0
PairPos2: "'kern' Horizontal Kerning in Hebrew lookup 0 subtable" afii57666 dx=10 dy=0 dh=10 dv=0 dx=0 dy=0 dh=0 dv=0
PairPos2: "'kern' Horizontal Kerning in Hebrew lookup 0 subtable" uniFB4C dx=45 dy=0 dh=45 dv=0 dx=0 dy=0 dh=0 dv=0
PairPos2: "'kern' Horizontal Kerning in Hebrew lookup 0 subtable" uniFB31 dx=45 dy=0 dh=45 dv=0 dx=0 dy=0 dh=0 dv=0
PairPos2: "'kern' Horizontal Kerning in Hebrew lookup 0 subtable" afii57665 dx=45 dy=0 dh=45 dv=0 dx=0 dy=0 dh=0 dv=0
PairPos2: "'kern' Horizontal Kerning in Hebrew lookup 0 subtable" uniFB30 dx=-20 dy=0 dh=-20 dv=0 dx=0 dy=0 dh=0 dv=0
PairPos2: "'kern' Horizontal Kerning in Hebrew lookup 0 subtable" uniFB2F dx=-20 dy=0 dh=-20 dv=0 dx=0 dy=0 dh=0 dv=0
PairPos2: "'kern' Horizontal Kerning in Hebrew lookup 0 subtable" uniFB2E dx=-20 dy=0 dh=-20 dv=0 dx=0 dy=0 dh=0 dv=0
PairPos2: "'kern' Horizontal Kerning in Hebrew lookup 0 subtable" uniFB21 dx=-20 dy=0 dh=-20 dv=0 dx=0 dy=0 dh=0 dv=0
PairPos2: "'kern' Horizontal Kerning in Hebrew lookup 0 subtable" afii57664 dx=-20 dy=0 dh=-20 dv=0 dx=0 dy=0 dh=0 dv=0
EndChar

StartChar: period
Encoding: 46 46 13
Width: 305
VWidth: 1000
Flags: HMW
HStem: -18.3719 24.255
LayerCount: 2
Back
SplineSet
103.062 95.75 m 6
 154.25 164 l 6
 166.64 180.52 173.57 180.24 185.75 164 c 6
 236.938 95.75 l 6
 244.718 85.376 244.97 74.96 236.938 64.25 c 6
 185.75 -4 l 6
 173.192 -20.7441 166.976 -20.9678 154.25 -4 c 6
 103.062 64.25 l 6
 94.3164 75.9121 94.8623 84.8164 103.062 95.75 c 6
EndSplineSet
Fore
SplineSet
99.0684 95.75 m 6
 155.375 164 l 6
 169.004 180.52 176.627 180.24 190.025 164 c 6
 246.332 95.75 l 6
 254.889 85.376 255.167 74.96 246.332 64.25 c 6
 190.025 -4 l 6
 176.211 -20.7441 169.374 -20.9678 155.375 -4 c 6
 99.0684 64.25 l 6
 89.4482 75.9121 90.0488 84.8164 99.0684 95.75 c 6
EndSplineSet
EndChar

StartChar: slash
Encoding: 47 47 14
Width: 293
VWidth: 1000
Flags: HMW
HStem: -14 20 716 20<259 317 317 317>
LayerCount: 2
Fore
SplineSet
244 736 m 1
 317 736 l 5
 50 -14 l 5
 -23 -14 l 1
 244 736 l 1
EndSplineSet
EndChar

StartChar: zero
Encoding: 48 48 15
Width: 570
VWidth: 1000
Flags: W
HStem: -15 53<278 296> 651 53<278 296>
VStem: 39 131<320 370> 399 132<304 370>
LayerCount: 2
Back
SplineSet
284 704 m 4
 347 704 411 665 450 602 c 4
 492 533 514 445 514 339 c 4
 514 131 416 -15 276 -15 c 4
 141 -15 42 136 42 342 c 4
 42 551 144 704 284 704 c 4
277 661 m 0
 239 661 203 632 180 581 c 0
 160 538 153 479 153 363 c 0
 153 200 161 137 189 90 c 0
 213 50 245 28 278 28 c 0
 316 28 352 58 375 107 c 0
 395 151 402 217 402 357 c 0
 402 494 393 553 366 599 c 0
 342 639 310 661 277 661 c 0
EndSplineSet
Fore
SplineSet
291.254 704 m 0
 437 704 531 548 531 339 c 0
 531 131 428.848 -15 282.915 -15 c 4
 142.195 -15 39 136 39 342 c 4
 39 551 145.322 704 291.254 704 c 0
284.04 651 m 0
 249.093 651 215.984 622.916 194.831 573.527 c 0
 176.438 531.886 170 474.75 170 362.415 c 0
 170 204.565 177.357 143.557 203.108 98.041 c 0
 225.181 59.3047 254.61 38 284.96 38 c 0
 319.907 38 353.016 67.0527 374.169 114.504 c 0
 392.562 157.114 399 221.028 399 356.605 c 0
 399 489.276 390.723 546.412 365.892 590.959 c 0
 343.819 629.695 314.39 651 284.04 651 c 0
EndSplineSet
EndChar

StartChar: one
Encoding: 49 49 16
Width: 570
VWidth: 1000
Flags: W
HStem: 0 52<107 503> 582 48<111 132.918> 684 20G<329 380>
VStem: 246 127<81.1009 545>
LayerCount: 2
Back
SplineSet
322 704 m 1
 358 704 l 1
 353 633 351 585 351 536 c 2
 351 123 l 2
 351 68 351 68 358 61 c 0
 366 51 388 47 441 47 c 2
 496 47 l 1
 496 0 l 1
 100 0 l 1
 100 47 l 1
 165 47 l 2
 245 47 254 52 254 94 c 2
 254 123 l 1
 254 524 l 2
 254 583 250 587 192 587 c 2
 104 587 l 1
 104 630 l 1
 196 632 288 663 322 704 c 1
EndSplineSet
Fore
SplineSet
329 704 m 1
 380 704 l 1
 375 633 373 585 373 536 c 2
 373 128 l 2
 373 73 373 73 380 66 c 0
 388 56 410 52 463 52 c 2
 503 52 l 1
 503 0 l 1
 107 0 l 1
 107 52 l 1
 157 52 l 2
 237 52 246 57 246 99 c 2
 246 128 l 1
 246 519 l 6
 246 578 242 582 184 582 c 6
 111 582 l 5
 111 630 l 1
 203 632 295 663 329 704 c 1
EndSplineSet
EndChar

StartChar: two
Encoding: 50 50 17
Width: 570
VWidth: 1000
Flags: W
HStem: 0 114<184 503> 684 20G<219.5 357>
VStem: 58 77<516 558> 385 133<507 530>
LayerCount: 2
Back
SplineSet
505 216 m 1
 486 0 l 1
 35 0 l 1
 35 28 l 1
 79 86 97 109 133 151 c 1
 211 235 l 1
 270 297 l 2
 353 385 388 452 388 526 c 0
 388 610 338 661 256 661 c 0
 209 661 167 643 142 613 c 0
 128 596 118 573 118 558 c 0
 118 545 120 544 157 528 c 0
 179 519 193 496 193 471 c 0
 193 435 168 410 131 410 c 0
 83 410 51 453 51 516 c 0
 51 622 149 704 276 704 c 0
 406 704 501 622 501 509 c 0
 501 461 485 416 453 372 c 0
 430 342 391 307 300 237 c 0
 236 187 213 166 144 94 c 1
 368 94 l 2
 430 94 438 101 451 165 c 1
 461 216 l 1
 505 216 l 1
EndSplineSet
Fore
SplineSet
522 216 m 1
 503 0 l 1
 42 0 l 1
 42 28 l 1
 86 86 104 109 140 151 c 1
 218 235 l 1
 277 297 l 2
 347.768 371.366 385 452 385 526 c 0
 385 604 333.5 649.5 251.5 649.5 c 0
 217.5 649.5 178 630 156.5 606.5 c 0
 141.634 590.251 135 573 135 558 c 0
 135 545 149 541 179 528 c 0
 200.81 518.549 215 496 215 471 c 0
 215 435 186 410 145 410 c 0
 87.5 410 58 453 58 516 c 0
 58 622 156 704 283 704 c 4
 431 704 518 622 518 509 c 0
 518 461 502 416 470 372 c 0
 447 342 396.795 296.265 320.5 237 c 0
 264.5 193.5 238 169 184 114 c 1
 380 114 l 2
 448.5 114 455 127 464.5 173.5 c 1
 473 216 l 1
 522 216 l 1
EndSplineSet
EndChar

StartChar: three
Encoding: 51 51 18
Width: 570
VWidth: 1000
Flags: W
HStem: -15 53<248 272> 335 59<209 272> 335 62<200 232> 337 57<248 289> 474 21G<118.75 164.25> 651 53<264 289>
LayerCount: 2
Back
SplineSet
346 368 m 1
 449 339 498 282 498 188 c 0
 498 65 403 -15 259 -15 c 0
 131 -15 42 52 42 149 c 0
 42 201 71 237 113 237 c 0
 150 237 177 210 177 174 c 0
 177 149 166 132 138 115 c 0
 118 104 116 102 116 93 c 0
 116 62 184 28 247 28 c 0
 336 28 387 87 387 190 c 0
 387 289 347 342 273 342 c 0
 265 342 264 342 226 341 c 0
 213 340 205 340 202 340 c 0
 182 340 171 348 171 365 c 0
 171 383 182 392 203 392 c 0
 209 392 217 392 225 391 c 0
 240 390 256 389 265 389 c 0
 337 389 375 438 375 531 c 0
 375 616 337 661 265 661 c 0
 209 661 150 631 150 603 c 0
 150 597 153 592 163 585 c 0
 186 569 194 555 194 534 c 0
 194 498 170 474 135 474 c 0
 97 474 69 503 69 544 c 0
 69 635 158 704 275 704 c 0
 399 704 479 636 479 532 c 0
 479 461 439 405 369 376 c 0
 362 373 360 373 346 368 c 1
EndSplineSet
Fore
SplineSet
362.167 368 m 1xcc
 467 348.5 522.5 282 522.5 188 c 0
 522.5 65 422.292 -15 270.396 -15 c 0
 135.379 -15 41.5 52 41.5 149 c 0
 41.5 201 78 237 120 237 c 0
 163.5 237 194 215 194 174 c 0
 194 149 183 132 155 115 c 0
 135 104 133 102 133 93 c 0
 133 64.5 202.5 38 254 38 c 0
 343 38 391.5 100.5 391.5 190 c 0
 391.5 279.5 354 337 280 337 c 0x9c
 272 337 271 337 233 336 c 0
 220 335 212 335 209 335 c 0xcc
 189 335 178 344 178 365 c 0
 178 386.5 189 397 210 397 c 0xac
 216 397 224 397 232 396 c 0
 247 395 263 394 272 394 c 0
 344 394 379 446 379 531 c 0
 379 600 344 651 272 651 c 4
 220 651 167 626 167 603 c 0
 167 597 170 592 180 585 c 0
 203 569 211 555 211 534 c 0
 211 498 186.5 474 142 474 c 0
 95.5 474 69.9805 503 69.9805 544 c 0
 69.9805 635 163.859 704 287.274 704 c 0
 418.072 704 502.458 636 502.458 532 c 0
 502.458 461 460.266 405 386.428 376 c 0
 379.044 373 376.935 373 362.167 368 c 1xcc
EndSplineSet
EndChar

StartChar: four
Encoding: 52 52 19
Width: 570
VWidth: 1000
Flags: W
HStem: 0 52<215 507> 175 56<107 301 428 534> 684 20G<375 433>
VStem: 301 127<80.6647 175 231 504>
DStem2: 35 231 107 231 0.583671 0.81199<42.0243 370.434>
LayerCount: 2
Back
SplineSet
368 704 m 1
 411 704 l 1
 406 629 406 629 406 504 c 2
 406 231 l 1
 527 231 l 1
 527 175 l 1
 406 175 l 1
 406 123 l 1
 406 94 l 6
 406 52 415 47 496 47 c 6
 500 47 l 5
 500 0 l 1
 208 0 l 1
 208 47 l 5
 219 47 l 6
 300 47 309 52 309 94 c 6
 309 123 l 1
 309 175 l 1
 28 175 l 1
 28 231 l 1
 368 704 l 1
309 231 m 1
 309 534 l 1
 89 231 l 1
 309 231 l 1
EndSplineSet
Fore
SplineSet
375 704 m 1
 433 704 l 1
 428 629 428 629 428 504 c 2
 428 231 l 5
 534 231 l 5
 534 175 l 1
 428 175 l 1
 428 123 l 1
 428 99 l 2
 428 57 433.5 52 503 52 c 2
 507 52 l 1
 507 0 l 1
 215 0 l 1
 215 52 l 1
 226 52 l 2
 292 52 301 57 301 99 c 2
 301 123 l 1
 301 175 l 1
 35 175 l 1
 35 231 l 1
 375 704 l 1
301 231 m 5
 301 496 l 1
 107 231 l 5
 301 231 l 5
EndSplineSet
EndChar

StartChar: five
Encoding: 53 53 20
Width: 570
VWidth: 1000
Flags: MW
HStem: -15 53<251 266> 391 60<257 283> 675 20G<477.5 481.5>
LayerCount: 2
Back
SplineSet
164 591 m 1
 147 421 l 1
 202 444 234 451 276 451 c 0
 411 451 502 360 502 224 c 0
 502 77 403 -15 246 -15 c 0
 194 -15 153 -4 119 18 c 0
 74 49 45 99 45 149 c 0
 45 196 77 233 117 233 c 0
 153 233 180 206 180 171 c 0
 180 144 171 131 140 112 c 0
 128 105 122 97 122 90 c 0
 122 59 184 28 244 28 c 0
 285 28 326 42 346 63 c 0
 376 94 393 151 393 218 c 0
 393 332 339 401 250 401 c 0
 210 401 177 390 142 365 c 1
 138 325 122 304 97 304 c 0
 78 304 65 318 65 338 c 0
 65 354 72 367 93 389 c 1
 107 513 116 620 120 704 c 1
 225 679 262 674 326 674 c 0
 383 674 410 679 459 700 c 0
 464 703 469 704 472 704 c 0
 477 704 480 701 480 695 c 0
 480 687 476 678 465 659 c 0
 432 604 370 574 285 574 c 0
 246 574 218 578 164 591 c 1
EndSplineSet
Fore
SplineSet
169 571 m 5
 154 421 l 5
 211.409 444 239.27 451 283.109 451 c 4
 424.022 451 519.008 360 519.008 224 c 4
 519.008 77 415.672 -15 251.796 -15 c 4
 197.518 -15 154.722 -4 119.232 18 c 4
 72.2617 49 41.9912 99 41.9912 149 c 4
 41.9912 196 74 233 124 233 c 4
 170 233 197 206 197 171 c 4
 197 144 188 131 157 112 c 4
 145 105 139 97 139 90 c 4
 139 59 204.5 38 251 38 c 4
 296.5 38 326.5 54 345.5 73 c 4
 380.557 108.057 390 158.5 390 218 c 4
 390 332 334 391 257 391 c 4
 217 391 195.5 382.5 159.5 362 c 12
 138.171 349.854 142 319.5 115.5 317 c 4
 97.5176 315.304 83.4248 324.051 82 344 c 4
 81 358 88.0234 371.285 90 389 c 20
 103.5 510 113 620 117 704 c 5
 222 679 269 674 333 674 c 4
 390 674 417 679 466 700 c 4
 471 703 476 704 479 704 c 4
 484 704 487 701 487 695 c 4
 487 687 482.29 668.393 472 649 c 4
 446 600 377 554 292 554 c 4
 253 554 223 558 169 571 c 5
EndSplineSet
EndChar

StartChar: six
Encoding: 54 54 21
Width: 570
VWidth: 1000
Flags: MW
HStem: -15 53<280.059 299> 359 71<297 325> 650 45
VStem: 39 138<202.736 308> 404 129<202 226>
LayerCount: 2
Back
SplineSet
153 340 m 1
 200 403 250 430 318 430 c 0
 431 430 516 342 516 224 c 0
 516 161 490 95 447 51 c 0
 405 7 351 -15 286 -15 c 0
 138 -15 42 113 42 308 c 0
 42 417 73 521 127 598 c 0
 175 665 252 704 334 704 c 0
 428 704 498 653 498 584 c 0
 498 542 470 512 432 512 c 0
 397 512 371 537 371 571 c 0
 371 585 376 599 386 618 c 0
 390 625 391 628 391 632 c 0
 391 650 370 661 335 661 c 0
 272 661 219 620 190 549 c 0
 168 498 163 465 153 340 c 1
291 369 m 0
 210 369 160 306 160 203 c 0
 160 166 168 132 184 101 c 0
 208 53 243 28 288 28 c 0
 361 28 407 102 407 217 c 0
 407 312 363 369 291 369 c 0
EndSplineSet
Fore
SplineSet
165 346.5 m 1
 208 402 257 430 325 430 c 0
 438 430 533 342 533 224 c 0
 533 161 505.903 95 461.089 51 c 0
 417.316 7 361.038 -15 293.295 -15 c 0
 139.051 -15 39 113 39 308 c 0
 39 417 71.3076 521 127.587 598 c 0
 177.612 665 257.86 704 343.32 704 c 0
 441.287 704 514.24 653 514.24 584 c 0
 514.24 542 486 512 439 512 c 0
 394 512 368 537 368 571 c 0
 368 585 370.334 594 380.334 613 c 0
 384.334 620 385.334 623 385.334 627 c 0
 385.334 643 370 650.5 335 650.5 c 4
 289.5 650.5 231 615 202 544 c 0
 180 493 173.5 451.5 165 346.5 c 1
297.393 359 m 0
 222.951 359 177 299.695 177 202.736 c 0
 177 167.906 184.353 135.9 199.057 106.719 c 0
 221.113 61.5342 253.279 38 294.636 38 c 0
 361.725 38 404 107.66 404 215.915 c 0
 404 305.343 363.562 359 297.393 359 c 0
EndSplineSet
EndChar

StartChar: seven
Encoding: 55 55 22
Width: 570
VWidth: 1000
Flags: W
HStem: -14 21G<248.75 301> 583 111<311 419>
VStem: 201 149<60 105>
LayerCount: 2
Back
SplineSet
59 462 m 1
 90 704 l 1
 199 697 267 694 352 694 c 0
 413 694 446 695 508 700 c 1
 508 671 l 1
 502 658 499 649 498 647 c 2
 453 553 l 1
 347 319 328 248 333 105 c 1
 334 19 315 -14 267 -14 c 0
 228 -14 204 15 204 60 c 0
 204 102 221 165 251 240 c 0
 276 301 284 318 359 467 c 1
 427 604 l 1
 400 603 379 603 365 603 c 0
 324 603 252 606 194 609 c 0
 186 610 177 610 172 610 c 0
 143 610 136 600 121 534 c 2
 103 455 l 1
 59 462 l 1
EndSplineSet
Fore
SplineSet
515 647 m 1
 470 553 l 1
 364 319 345 248 350 105 c 1
 351 19 328 -14 274 -14 c 0
 223.5 -14 201 15 201 60 c 0
 201 102 216.312 165.697 248 240 c 0
 277 308 310 370 361 467 c 1
 419 584 l 1
 392 583 371 583 357 583 c 0
 316 583 250 586 192 589 c 0
 184 590 175 590 170 590 c 0
 141 590 134 580 119 514 c 2
 105 455 l 1
 56 462 l 1
 87 704 l 1
 196 697 274 694 359 694 c 0
 420 694 453 695 515 700 c 1
 515 647 l 1
EndSplineSet
EndChar

StartChar: eight
Encoding: 56 56 23
Width: 570
VWidth: 1000
Flags: MW
HStem: -15 21G<240.22 312.144> 650 45G<228.754 352.276>
LayerCount: 2
Back
SplineSet
381 390 m 1
 419 373 437 362 457 345 c 0
 498 309 520 258 520 201 c 0
 520 140 494 79 451 42 c 0
 410 5 348 -15 274 -15 c 0
 210 -15 156 0 117 28 c 0
 75 60 48 114 48 168 c 0
 48 219 70 267 109 299 c 0
 131 317 150 327 194 344 c 1
 158 363 142 374 125 394 c 0
 97 425 81 470 81 513 c 0
 81 623 170 704 292 704 c 0
 407 704 491 637 491 545 c 0
 491 480 456 431 381 390 c 1
274 429 m 2
 340 405 l 1
 397 453 417 487 417 539 c 0
 417 612 366 661 289 661 c 0
 210 661 158 618 158 555 c 0
 158 497 193 459 274 429 c 2
332 291 m 2
 240 324 l 1
 162 288 131 243 131 168 c 0
 131 80 186 28 279 28 c 0
 377 28 440 79 440 159 c 0
 440 225 408 264 332 291 c 2
EndSplineSet
Fore
SplineSet
385.11 390 m 1
 424.721 373 443.483 362 464.33 345 c 0
 507.067 309 530 258 530 201 c 0
 530 140 502.898 79 458.076 42 c 0
 415.339 5 350.712 -15 273.576 -15 c 0
 206.864 -15 150.576 0 109.924 28 c 0
 66.1445 60 38 114 38 168 c 0
 38 219 60.9326 267 101.585 299 c 0
 124.517 317 144.322 327 190.187 344 c 1
 152.661 363 135.983 374 118.263 394 c 0
 89.0762 425 72.3984 470 72.3984 513 c 0
 72.3984 623 165.17 704 292.339 704 c 0
 412.212 704 499.771 637 499.771 545 c 0
 499.771 480 463.288 431 385.11 390 c 1
275.046 431.341 m 2
 335.95 408.654 l 1
 388.548 454.029 407.004 486.17 407.004 535.326 c 0
 407.004 604.334 359.941 650.654 288.888 650.654 c 0
 215.988 650.654 168.004 610.006 168.004 550.451 c 0
 168.004 495.623 200.301 459.701 275.046 431.341 c 2
328.962 289.782 m 6
 242.917 321.333 l 5
 169.965 286.914 140.972 243.89 140.972 172.185 c 4
 140.972 88.0488 192.412 38.333 279.393 38.333 c 4
 371.05 38.333 429.972 87.0938 429.972 163.579 c 4
 429.972 226.682 400.043 263.968 328.962 289.782 c 6
EndSplineSet
EndChar

StartChar: nine
Encoding: 57 57 24
Width: 570
VWidth: 1000
Flags: W
HStem: -15 53<221 244> 256 70<242 274.364> 651 53<272 293>
VStem: 36 129<461 483> 392 138<374 475.782>
LayerCount: 2
Back
SplineSet
411 347 m 1
 357 279 315 256 244 256 c 4
 130 256 46 344 46 463 c 4
 46 598 147 704 275 704 c 4
 424 704 520 575 520 374 c 4
 520 271 493 174 444 100 c 4
 395 26 317 -15 226 -15 c 4
 134 -15 64 35 64 101 c 4
 64 141 94 173 132 173 c 0
 165 173 191 147 191 114 c 0
 191 100 189 94 177 70 c 0
 173 62 171 57 171 53 c 0
 171 38 194 28 227 28 c 0
 294 28 349 71 375 145 c 0
 393 196 398 226 411 347 c 1
279 661 m 0
 235 661 208 645 185 606 c 0
 166 576 155 529 155 481 c 0
 155 375 198 316 274 316 c 0
 317 316 356 338 379 374 c 0
 394 397 402 434 402 475 c 0
 402 587 353 661 279 661 c 0
EndSplineSet
Fore
SplineSet
401 335.5 m 1
 352 275.5 308.5 256 242.354 256 c 0
 123.544 256 36 344 36 463 c 0
 36 598 141.262 704 274.662 704 c 0
 429.949 704 530 575 530 374 c 0
 530 271 501.86 174 450.793 100 c 0
 399.726 26 318.435 -15 223.595 -15 c 4
 127.713 -15 54.7598 35 54.7598 101 c 0
 54.7598 141 82 173 132 173 c 0
 176 173 201 147 201 114 c 0
 201 100 199 94 187 70 c 0
 183 62 182.5 61 182.5 57 c 0
 182.5 42 204 38 237 38 c 0
 291 38 347.197 80.5903 372 155 c 0
 387.5 201.5 395 270.5 401 335.5 c 1
278.96 651 m 0
 238.522 651 213.709 635.928 192.571 599.188 c 0
 175.109 570.928 165 526.652 165 481.435 c 0
 165 381.58 204.519 326 274.364 326 c 0
 313.883 326 349.725 346.725 370.862 380.638 c 0
 384.647 402.305 392 437.159 392 475.782 c 0
 392 581.29 346.968 651 278.96 651 c 0
EndSplineSet
EndChar

StartChar: colon
Encoding: 58 58 25
Width: 305
VWidth: 1000
Flags: HMW
HStem: 331.628 24.255
LayerCount: 2
Back
SplineSet
155.05 123.5 m 0
 192.45 123.5 223.25 92.6992 223.25 55.2998 c 0
 223.25 16.7998 192.45 -14 153.95 -14 c 0
 116.55 -14 85.75 16.7998 85.75 55.2998 c 0
 85.75 92.6992 116.55 123.5 155.05 123.5 c 0
155.05 472.5 m 0
 192.45 472.5 223.25 441.7 223.25 404.301 c 0
 223.25 365.801 192.45 335 153.95 335 c 0
 116.55 335 85.75 365.801 85.75 404.301 c 0
 85.75 441.7 116.55 472.5 155.05 472.5 c 0
EndSplineSet
Fore
SplineSet
99.0684 445.75 m 6
 155.375 514 l 6
 169.004 530.52 176.627 530.24 190.025 514 c 6
 246.332 445.75 l 6
 254.889 435.376 255.167 424.96 246.332 414.25 c 6
 190.025 346 l 6
 176.211 329.256 169.374 329.032 155.375 346 c 6
 99.0684 414.25 l 6
 89.4482 425.912 90.0488 434.816 99.0684 445.75 c 6
99.0684 95.75 m 6
 155.375 164 l 6
 169.004 180.52 176.627 180.24 190.025 164 c 6
 246.332 95.75 l 6
 254.889 85.376 255.167 74.96 246.332 64.25 c 6
 190.025 -4 l 6
 176.211 -20.7441 169.374 -20.9678 155.375 -4 c 6
 99.0684 64.25 l 6
 89.4482 75.9121 90.0488 84.8164 99.0684 95.75 c 6
EndSplineSet
EndChar

StartChar: semicolon
Encoding: 59 59 26
Width: 305
VWidth: 1000
Flags: W
VStem: 111.859 32.241<-118.671 -112>
LayerCount: 2
Back
SplineSet
130 -176 m 1
 97.5 -176 l 1
 127.5 -120 153 -66.5 158.5 -24 c 0
 159.348 -17.4531 156.3 -14.0996 150.8 -14.0996 c 0
 99 -14.0996 77 21 77 53.8994 c 0
 77 91.2998 110 123.5 147 123.5 c 0
 203 123.5 241 83 226.5 11 c 0
 214.304 -49.5615 181.5 -111.5 130 -176 c 1
155.05 472.5 m 0
 192.45 472.5 223.25 441.7 223.25 404.301 c 0
 223.25 365.801 192.45 335 153.95 335 c 0
 116.55 335 85.75 365.801 85.75 404.301 c 0
 85.75 441.7 116.55 472.5 155.05 472.5 c 0
EndSplineSet
Fore
SplineSet
99.0684 95.75 m 6
 155.375 164 l 6
 169.004 180.52 176.627 180.24 190.025 164 c 6
 246.332 95.75 l 6
 254.889 85.376 252.711 75.248 246.332 64.25 c 6
 144.1 -112 l 6
 130.268 -128.766 105.67 -123.153 111.859 -97 c 6
 133.985 -3.5 l 6
 137.158 9.9082 136.469 18.6006 128.768 28 c 6
 99.0684 64.25 l 6
 89.4482 75.9121 90.0488 84.8164 99.0684 95.75 c 6
99.0684 445.75 m 6
 155.375 514 l 6
 169.004 530.52 176.627 530.24 190.025 514 c 6
 246.332 445.75 l 6
 254.889 435.376 255.167 424.96 246.332 414.25 c 6
 190.025 346 l 6
 176.211 329.256 169.374 329.032 155.375 346 c 6
 99.0684 414.25 l 6
 89.4482 425.912 90.0488 434.816 99.0684 445.75 c 6
EndSplineSet
EndChar

StartChar: less
Encoding: 60 60 27
Width: 606
VWidth: 1000
Flags: MW
HStem: -17 20
LayerCount: 2
Fore
SplineSet
558 438 m 1
 160 253 l 1
 558 68 l 1
 558 -17 l 1
 49 215 l 1
 49 291 l 1
 558 523 l 1
 558 438 l 1
EndSplineSet
EndChar

StartChar: equal
Encoding: 61 61 28
Width: 606
VWidth: 1000
Flags: MW
HStem: 112 80<51 555> 314 80<51 555>
LayerCount: 2
Fore
SplineSet
51 112 m 1
 51 192 l 1
 555 192 l 1
 555 112 l 1
 51 112 l 1
51 314 m 1
 51 394 l 1
 555 394 l 1
 555 314 l 1
 51 314 l 1
EndSplineSet
EndChar

StartChar: greater
Encoding: 62 62 29
Width: 606
VWidth: 1000
Flags: MW
HStem: -17 20
LayerCount: 2
Fore
SplineSet
48 438 m 1
 48 523 l 1
 557 291 l 1
 557 215 l 1
 48 -17 l 1
 48 68 l 1
 446 253 l 1
 48 438 l 1
EndSplineSet
EndChar

StartChar: question
Encoding: 63 63 30
Width: 499
VWidth: 1000
Flags: W
HStem: 648 56<173.001 295.816>
VStem: 35 150<505.196 632.871> 200.69 51.324<238.054 310.5> 322.5 138.5<456.848 621.823>
LayerCount: 2
Back
SplineSet
148.124 95.75 m 2
 199.312 164 l 2
 211.702 180.52 218.632 180.24 230.812 164 c 2
 282 95.75 l 2
 289.78 85.376 290.032 74.96 282 64.25 c 2
 230.812 -4 l 2
 218.254 -20.7441 212.038 -20.9678 199.312 -4 c 2
 148.124 64.25 l 2
 139.378 75.9121 139.924 84.8164 148.124 95.75 c 2
195.5 259 m 0
 197.1 338.984 235.782 378.134 294 444.205 c 0
 316.372 469.595 326 507.271 326 545.864 c 4
 326 609 279 648 214 648 c 4
 111 648 153.932 589.366 148 536 c 4
 145 509 134 492.211 96 492.211 c 0
 46 492.211 25 523.273 25 564.689 c 0
 25 645.641 115.497 704 240.207 704 c 0
 366.021 704 451 638.11 451 540.217 c 0
 451 474.326 421.749 439.154 331 372 c 0
 291.939 343.095 259.246 310.419 245.5 252 c 0
 237.5 218 194.5 209 195.5 259 c 0
EndSplineSet
Fore
SplineSet
322.5 549 m 0
 322.5 616 281 648 224 648 c 0
 132 648 190.932 589.366 185 536 c 0
 182 509 144 492.211 106 492.211 c 0
 56 492.211 35 523.273 35 564.689 c 0
 35 645.641 125.497 704 250.207 704 c 0
 376.021 704 461 638.11 461 540.217 c 0
 461 474.326 431.749 439.154 341 372 c 0
 303.45 344.213 264.167 310 252.014 258.667 c 8
 249.89 249.695 246.712 245.54 241.17 237.66 c 0
 227.337 217.993 225.231 219.56 209.67 237.66 c 0
 202.5 246 199.5 259 200.69 272 c 0
 206.955 340.442 239.214 379.08 289 445.445 c 0
 312 476.104 322.5 510.408 322.5 549 c 0
158.794 96.2227 m 2
 209.47 166.52 l 2
 221.735 183.535 228.597 183.247 240.654 166.52 c 2
 291.33 96.2227 l 2
 299.033 85.5371 299.282 74.8086 291.33 63.7773 c 2
 240.654 -6.51953 l 2
 228.222 -23.7666 222.067 -23.9971 209.47 -6.51953 c 2
 158.794 63.7773 l 2
 150.135 75.7891 150.675 84.9609 158.794 96.2227 c 2
EndSplineSet
EndChar

StartChar: at
Encoding: 64 64 31
Width: 737
VWidth: 1000
Flags: W
HStem: -14 51<311.5 431> 147 44<459.064 553.434> 153 40<299 321> 458 20<455 455> 502 41<379.5 396> 685 51<344.5 429>
VStem: 43 56<266.5 410> 176 90<281 299> 408 74<208 215.5> 653 52<400.5 462>
LayerCount: 2
Fore
SplineSet
637 188 m 1
 698 188 l 1
 679 144 649 105 606 66 c 0
 547 14 471 -14 391 -14 c 0
 194 -14 43 146 43 356 c 0
 43 464 80 563 146 632 c 0
 209 697 300 736 389 736 c 0
 563 736 705 601 705 435 c 0
 705 344 664 254 596 198 c 0
 557 165 514 147 477 147 c 0
 436 147 408 173 408 212 c 0
 408 219 408 224 409 232 c 1
 370 174 341 153 301 153 c 0
 268 153 232 171 209 198 c 0
 187 224 176 260 176 302 c 0
 176 363 199 424 240 471 c 0
 279 514 333 543 377 543 c 0
 415 543 443 519 455 478 c 1
 471 534 l 1
 559 534 l 1
 486 245 l 2
 483 233 482 223 482 215 c 0
 482 201 493 191 508 191 c 0
 534 191 570 218 600 260 c 0
 632 306 653 373 653 428 c 0
 653 496 622 567 570 616 c 0
 522 662 464 685 394 685 c 0
 223 685 99 549 99 361 c 0
 99 172 224 37 399 37 c 0
 498 37 581 89 637 188 c 1
391 502 m 0
 368 502 345 487 328 460 c 0
 291 403 266 327 266 271 c 0
 266 222 284 193 314 193 c 0
 345 193 376 225 400 280 c 0
 421 327 436 391 436 430 c 0
 436 474 419 502 391 502 c 0
EndSplineSet
EndChar

StartChar: A
Encoding: 65 65 32
Width: 722
VWidth: 1000
Flags: MW
HStem: 0 47<-8 -4 -4 9.5 237 257 421 463 463 481.5 717 731> 234 54<218 442> 716 20<336 378 378 378>
LayerCount: 2
Fore
SplineSet
378 736 m 1
 633 111 l 2
 656 55 667 47 717 47 c 2
 731 47 l 1
 731 0 l 1
 421 0 l 1
 421 47 l 1
 463 47 l 2
 500 47 525 57 525 73 c 0
 525 78 523 85 517 100 c 2
 463 234 l 1
 198 234 l 1
 165 146 l 2
 159 130 156 116 156 104 c 0
 156 66 183 47 237 47 c 2
 257 47 l 1
 257 0 l 1
 -8 0 l 1
 -8 47 l 1
 -4 47 l 2
 23 47 51 59 67 78 c 0
 82 94 86 101 106 153 c 1
 336 736 l 1
 378 736 l 1
329 572 m 1
 218 288 l 1
 442 288 l 1
 329 572 l 1
EndSplineSet
EndChar

StartChar: B
Encoding: 66 66 33
Width: 722
VWidth: 1000
Flags: W
HStem: 0 47<30 48 48 88.5 308 350 350 381.5> 350 47<250 338> 675 47<30 48 290 316 316 356>
VStem: 138 112<94 110 110 123 123 350 397 599 599 625> 516 116<520.5 561> 547 123<167.5 232>
LayerCount: 2
Fore
SplineSet
30 722 m 5
 389 722 l 2
 448 722 498 714 534 698 c 0
 592 673 632 610 632 546 c 0
 632 495 607 446 565 415 c 0
 540 396 518 387 470 377 c 1
 606 353 670 295 670 196 c 0
 670 74 566 0 393 0 c 2
 30 0 l 1
 30 47 l 1
 48 47 l 2
 129 47 138 52 138 94 c 2
 138 123 l 1
 138 599 l 1
 138 628 l 2
 138 670 129 675 48 675 c 2
 30 675 l 1
 30 722 l 5
250 397 m 1
 339 397 l 2
 467 397 516 435 516 533 c 0
 516 589 497 632 461 654 c 0
 440 668 402 675 356 675 c 2
 316 675 l 2
 264 675 250 664 250 625 c 2
 250 397 l 1
250 350 m 1
 250 110 l 2
 250 55 257 47 308 47 c 2
 350 47 l 2
 413 47 455 54 486 70 c 0
 525 89 547 136 547 199 c 0
 547 265 522 309 475 331 c 0
 445 344 402 350 338 350 c 2
 250 350 l 1
EndSplineSet
EndChar

StartChar: C
Encoding: 67 67 34
Width: 722
VWidth: 1000
Flags: MW
HStem: -15 47<321 435.5> 690 47<351 417.5>
VStem: 45 132<246.5 405.5>
LayerCount: 2
Fore
SplineSet
639 729 m 1
 654 440 l 1
 610 440 l 1
 587 517 572 556 553 589 c 0
 515 653 453 690 383 690 c 0
 319 690 257 655 226 599 c 0
 192 539 177 463 177 350 c 0
 177 135 247 32 395 32 c 0
 476 32 540 67 581 136 c 0
 599 166 611 202 621 255 c 1
 668 247 l 1
 645 79 543 -15 383 -15 c 0
 186 -15 45 139 45 354 c 0
 45 457 75 541 139 617 c 0
 207 698 287 737 384 737 c 4
 451 737 490 722 561 670 c 1
 601 729 l 1
 639 729 l 1
EndSplineSet
EndChar

StartChar: D
Encoding: 68 68 35
Width: 778
VWidth: 1000
Flags: MW
HStem: 0 47<29 48 48 88 306 365> 675 47<29 48 281 306 306 347 347 358>
VStem: 137 112<94 102 102 123 123 599 599 619> 600 132<290 433.5>
LayerCount: 2
Fore
SplineSet
137 123 m 1
 137 599 l 1
 137 628 l 2
 137 670 128 675 48 675 c 2
 29 675 l 1
 29 722 l 1
 347 722 l 2
 461 722 535 706 590 671 c 0
 682 611 732 502 732 365 c 0
 732 215 676 101 575 44 c 0
 522 14 454 0 365 0 c 2
 29 0 l 1
 29 47 l 1
 48 47 l 2
 128 47 137 52 137 94 c 2
 137 123 l 1
306 47 m 2
 374 47 l 2
 535 47 600 137 600 361 c 0
 600 582 529 675 358 675 c 2
 306 675 l 2
 256 675 249 668 249 619 c 2
 249 102 l 2
 249 53 256 47 306 47 c 2
EndSplineSet
EndChar

StartChar: E
Encoding: 69 69 36
Width: 722
VWidth: 1000
Flags: MW
HStem: 0 47<29 47 47 87.5 321 387 387 429> 350 47<249 269> 675 47<29 47 285 312 312 364>
VStem: 137 112<94 95 95 123 123 350 397 599 599 625>
LayerCount: 2
Fore
SplineSet
630 722 m 1
 644 466 l 1
 601 466 l 1
 586 556 562 612 529 638 c 0
 495 666 452 675 364 675 c 2
 312 675 l 2
 258 675 249 668 249 625 c 2
 249 397 l 1
 273 397 l 2
 368 397 408 436 413 534 c 1
 460 534 l 1
 460 206 l 1
 413 206 l 1
 411 265 401 297 375 323 c 0
 355 344 330 350 269 350 c 2
 249 350 l 1
 249 95 l 2
 249 74 250 68 257 62 c 0
 266 53 291 47 321 47 c 2
 387 47 l 2
 471 47 528 66 559 106 c 0
 583 135 606 197 619 267 c 1
 663 267 l 1
 643 0 l 1
 29 0 l 1
 29 47 l 1
 47 47 l 2
 128 47 137 52 137 94 c 2
 137 123 l 1
 137 599 l 1
 137 628 l 2
 137 670 128 675 47 675 c 2
 29 675 l 1
 29 722 l 1
 630 722 l 1
EndSplineSet
EndChar

StartChar: F
Encoding: 70 70 37
Width: 667
VWidth: 1000
Flags: MW
HStem: 0 47<29 47 47 87.5 339 372> 350 47<249 269> 675 47<29 47 285 312 312 358>
VStem: 137 112<94 123 123 350 397 599 599 625>
LayerCount: 2
Fore
SplineSet
624 722 m 1
 638 466 l 1
 594 466 l 1
 566 637 523 675 358 675 c 2
 312 675 l 2
 258 675 249 668 249 625 c 2
 249 397 l 1
 273 397 l 2
 368 397 408 436 413 534 c 1
 460 534 l 1
 460 206 l 1
 413 206 l 1
 411 265 401 297 376 323 c 0
 355 344 331 350 269 350 c 2
 249 350 l 1
 249 123 l 1
 249 94 l 2
 249 52 258 47 339 47 c 2
 372 47 l 1
 372 0 l 1
 29 0 l 1
 29 47 l 1
 47 47 l 2
 128 47 137 52 137 94 c 2
 137 123 l 1
 137 599 l 1
 137 628 l 2
 137 670 128 675 47 675 c 2
 29 675 l 1
 29 722 l 1
 624 722 l 1
EndSplineSet
EndChar

StartChar: G
Encoding: 71 71 38
Width: 778
VWidth: 1000
Flags: MW
HStem: -15 47<358 422> 282 47<454 473 730 757 757 772> 690 47<351.5 427.5>
VStem: 42 132<297 415.5>
LayerCount: 2
Fore
SplineSet
650 729 m 1
 664 448 l 1
 621 448 l 1
 580 608 501 690 387 690 c 0
 248 690 174 571 174 348 c 0
 174 241 190 170 227 115 c 0
 261 65 326 32 390 32 c 0
 455 32 519 66 544 115 c 0
 556 139 564 179 564 222 c 0
 564 277 557 282 473 282 c 2
 454 282 l 1
 454 329 l 1
 772 329 l 1
 772 282 l 1
 757 282 l 2
 703 282 682 278 673 268 c 0
 667 261 667 260 667 206 c 2
 667 -14 l 1
 625 -14 l 1
 588 76 l 1
 523 11 464 -15 380 -15 c 0
 284 -15 192 26 130 96 c 0
 72 161 42 246 42 348 c 0
 42 483 88 584 187 664 c 0
 250 715 312 737 391 737 c 0
 464 737 508 720 573 668 c 1
 612 729 l 1
 650 729 l 1
EndSplineSet
EndChar

StartChar: H
Encoding: 72 72 39
Width: 833
VWidth: 1000
Flags: MW
HStem: 0 47<29 47 47 87.5 339 358 476 494 494 534.5 786 804> 347 54<249 584> 675 47<29 47 298.5 339 339 358 480 494 745.5 786 786 804>
VStem: 137 112<94 123 123 347 401 599 599 628> 584 112<94 123 123 347 347 347 401 599 599 628>
LayerCount: 2
Fore
SplineSet
584 347 m 1
 249 347 l 1
 249 123 l 1
 249 94 l 2
 249 52 258 47 339 47 c 2
 358 47 l 1
 358 0 l 1
 29 0 l 1
 29 47 l 1
 47 47 l 2
 128 47 137 52 137 94 c 2
 137 123 l 1
 137 599 l 1
 137 628 l 2
 137 670 128 675 47 675 c 2
 29 675 l 1
 29 722 l 1
 358 722 l 1
 358 675 l 1
 339 675 l 2
 258 675 249 670 249 628 c 2
 249 599 l 1
 249 401 l 1
 584 401 l 1
 584 599 l 1
 584 628 l 2
 584 670 575 675 494 675 c 2
 480 675 l 1
 480 722 l 1
 804 722 l 1
 804 675 l 1
 786 675 l 2
 705 675 696 670 696 628 c 2
 696 599 l 1
 696 123 l 1
 696 94 l 2
 696 52 705 47 786 47 c 2
 804 47 l 1
 804 0 l 1
 476 0 l 1
 476 47 l 1
 494 47 l 2
 575 47 584 52 584 94 c 2
 584 123 l 1
 584 347 l 1
EndSplineSet
EndChar

StartChar: I
Encoding: 73 73 40
Width: 407
VWidth: 1000
Flags: MW
HStem: 0 47<38 58 58 98.5 349 369> 675 47<38 58 309 349 349 369>
VStem: 148 112<94 123 123 599 599 628>
LayerCount: 2
Fore
SplineSet
260 599 m 1
 260 123 l 1
 260 94 l 2
 260 52 269 47 349 47 c 2
 369 47 l 1
 369 0 l 1
 38 0 l 1
 38 47 l 1
 58 47 l 2
 139 47 148 52 148 94 c 2
 148 123 l 1
 148 599 l 1
 148 628 l 2
 148 670 139 675 58 675 c 2
 38 675 l 1
 38 722 l 1
 369 722 l 1
 369 675 l 1
 349 675 l 2
 269 675 260 670 260 628 c 2
 260 599 l 1
EndSplineSet
EndChar

StartChar: J
Encoding: 74 74 41
Width: 556
VWidth: 1000
Flags: MW
HStem: -15 47<173.5 215> 138 139<76 77 77 80> 675 47<209 228 477.5 518 518 537>
VStem: 5 60<68.6933 190.5> 317 111<277 599 599 628>
LayerCount: 2
Fore
SplineSet
428 599 m 1
 428 268 l 2
 428 171 417 110 391 70 c 0
 356 14 292 -15 204 -15 c 0
 143 -15 96 -1 63 28 c 0
 27 58 5 107 5 155 c 0
 5 226 47 277 105 277 c 0
 149 277 180 247 180 205 c 0
 180 164 153 133 117 133 c 0
 106 133 97 134 80 138 c 2
 77 138 l 2
 70 138 65 131 65 122 c 0
 65 110 73 90 84 76 c 0
 105 49 144 32 186 32 c 0
 244 32 285 62 304 119 c 0
 314 149 317 189 317 277 c 2
 317 599 l 1
 317 628 l 2
 317 670 308 675 228 675 c 2
 209 675 l 1
 209 722 l 1
 537 722 l 1
 537 675 l 1
 518 675 l 2
 437 675 428 670 428 628 c 2
 428 599 l 1
EndSplineSet
EndChar

StartChar: K
Encoding: 75 75 42
Width: 778
VWidth: 1000
Flags: MW
HStem: 0 47<30 48 48 88.5 340 359 461 492 492 516.5 784 803> 675 47<30 48 299.5 340 340 359 454 479 732 762>
VStem: 138 112<94 123 123 250 327 599 599 628>
LayerCount: 2
Fore
SplineSet
250 327 m 1
 495 573 l 2
 524 602 544 631 544 645 c 0
 544 666 525 675 479 675 c 2
 454 675 l 1
 454 722 l 1
 762 722 l 1
 762 675 l 1
 702 675 641 646 593 595 c 1
 444 446 l 1
 686 97 l 1
 715 54 729 47 784 47 c 2
 803 47 l 1
 803 0 l 1
 461 0 l 1
 461 47 l 1
 492 47 l 2
 541 47 560 54 560 70 c 0
 560 80 556 88 540 112 c 2
 366 367 l 1
 250 250 l 1
 250 123 l 1
 250 94 l 2
 250 52 259 47 340 47 c 2
 359 47 l 1
 359 0 l 1
 30 0 l 1
 30 47 l 1
 48 47 l 2
 129 47 138 52 138 94 c 2
 138 123 l 1
 138 599 l 1
 138 628 l 2
 138 670 129 675 48 675 c 2
 30 675 l 1
 30 722 l 1
 359 722 l 1
 359 675 l 1
 340 675 l 2
 259 675 250 670 250 628 c 2
 250 599 l 1
 250 327 l 1
EndSplineSet
EndChar

StartChar: L
Encoding: 76 76 43
Width: 667
VWidth: 1000
Flags: MW
HStem: 0 47<35 53 53 93.5 327 369 369 411> 675 47<35 53 304.5 345 345 363>
VStem: 143 112<94 95 95 123 123 599 599 628>
LayerCount: 2
Fore
SplineSet
646 274 m 1
 625 0 l 1
 35 0 l 5
 35 47 l 1
 53 47 l 2
 134 47 143 52 143 94 c 2
 143 123 l 1
 143 599 l 1
 143 628 l 2
 143 670 134 675 53 675 c 2
 35 675 l 1
 35 722 l 1
 363 722 l 1
 363 675 l 1
 345 675 l 2
 264 675 255 670 255 628 c 2
 255 599 l 1
 255 95 l 2
 255 74 256 68 263 62 c 0
 272 53 297 47 327 47 c 2
 369 47 l 2
 453 47 511 66 542 105 c 0
 568 138 592 206 602 274 c 1
 646 274 l 1
EndSplineSet
EndChar

StartChar: M
Encoding: 77 77 44
Width: 944
VWidth: 1000
Flags: MW
HStem: 0 47<585 603 603 643.5 895 913> 675 47<29 48 854.5 895 895 913>
VStem: 138 54<216 599 599 628 628 649> 693 112<94 123 123 599 599 628>
LayerCount: 2
Fore
SplineSet
287 722 m 1
 479 189 l 1
 662 722 l 1
 913 722 l 1
 913 675 l 1
 895 675 l 2
 814 675 805 670 805 628 c 2
 805 599 l 1
 805 123 l 1
 805 94 l 2
 805 51 814 47 895 47 c 2
 913 47 l 1
 913 0 l 1
 585 0 l 1
 585 47 l 1
 603 47 l 2
 684 47 693 51 693 94 c 2
 693 123 l 1
 693 658 l 1
 470 0 l 1
 430 0 l 1
 192 658 l 1
 192 216 l 2
 192 80 212 51 307 47 c 1
 307 0 l 1
 22 0 l 1
 22 47 l 1
 118 51 138 80 138 216 c 2
 138 599 l 1
 138 628 l 2
 138 670 129 675 48 675 c 2
 29 675 l 1
 29 722 l 1
 287 722 l 1
EndSplineSet
EndChar

StartChar: N
Encoding: 78 78 45
Width: 815
VWidth: 1000
Flags: W
HStem: -14 20 0 47<20 20 305 305> 675 47<19 44>
VStem: 136 54<217 588> 624 54<191 505>
LayerCount: 2
Fore
SplineSet
225 722 m 1
 624 191 l 1
 624 505 l 2
 624 642 604 671 509 675 c 1
 509 722 l 1
 794 722 l 1
 794 675 l 1
 698 671 678 642 678 505 c 2
 678 -14 l 1
 636 -14 l 1
 190 588 l 1
 190 217 l 2
 190 80 210 51 305 47 c 1
 305 0 l 1
 20 0 l 1
 20 47 l 1
 116 51 136 80 136 217 c 2
 136 642 l 1
 118 667 95 675 44 675 c 2
 19 675 l 1
 19 722 l 1
 225 722 l 1
EndSplineSet
EndChar

StartChar: O
Encoding: 79 79 46
Width: 778
VWidth: 1000
Flags: MW
HStem: -15 47<353.5 424.5> 690 47<354.5 425.5>
VStem: 45 132<301 417> 601 132<300 422>
LayerCount: 2
Fore
SplineSet
393 737 m 0
 585 737 733 573 733 361 c 0
 733 147 585 -15 389 -15 c 0
 194 -15 45 147 45 360 c 0
 45 474 90 582 167 653 c 0
 228 709 304 737 393 737 c 0
392 690 m 0
 317 690 264 662 227 604 c 0
 190 544 177 483 177 363 c 0
 177 239 189 179 227 118 c 0
 263 62 318 32 389 32 c 0
 460 32 515 62 551 118 c 0
 588 178 601 239 601 361 c 0
 601 483 588 545 551 604 c 0
 515 659 459 690 392 690 c 0
EndSplineSet
EndChar

StartChar: P
Encoding: 80 80 47
Width: 667
VWidth: 1000
Flags: MW
HStem: 0 47<28 46 46 86.5 338 364> 321 47<248 361> 675 47<28 46 281.5 309 309 373>
VStem: 136 112<94 123 123 321 368 599 599 624> 526 123<484.5 562>
LayerCount: 2
Fore
SplineSet
248 321 m 1
 248 123 l 1
 248 94 l 2
 248 52 257 47 338 47 c 2
 364 47 l 1
 364 0 l 1
 28 0 l 1
 28 47 l 1
 46 47 l 2
 127 47 136 52 136 94 c 2
 136 123 l 1
 136 599 l 1
 136 628 l 2
 136 670 127 675 46 675 c 2
 28 675 l 1
 28 722 l 1
 378 722 l 2
 447 722 509 711 548 691 c 0
 614 658 649 600 649 524 c 0
 649 445 609 381 538 347 c 0
 498 328 451 321 361 321 c 2
 248 321 l 1
248 368 m 1
 369 368 l 2
 475 368 526 417 526 520 c 0
 526 626 477 675 373 675 c 2
 309 675 l 2
 254 675 248 670 248 624 c 2
 248 368 l 1
EndSplineSet
EndChar

StartChar: Q
Encoding: 81 81 48
Width: 778
VWidth: 1000
Flags: W
HStem: -189 81<648.5 660> -15 47<353 405.5> 0 20 218 47<346.5 408> 690 47<353.5 428>
VStem: 45 132<302 409> 235 46<127.5 148.5> 602 132<305 414>
LayerCount: 2
Fore
SplineSet
703 -20 m 1
 748 -20 l 1
 749 -125 700 -189 620 -189 c 0
 538 -189 488 -120 484 0 c 1
 451 -11 429 -15 395 -15 c 0
 200 -15 45 151 45 360 c 0
 45 474 93 583 175 656 c 0
 236 711 306 737 388 737 c 0
 581 737 734 574 734 369 c 0
 734 241 680 129 576 43 c 1
 610 -66 634 -108 663 -108 c 0
 688 -108 698 -84 703 -20 c 1
550 119 m 1
 588 181 602 246 602 363 c 0
 602 465 590 535 561 591 c 0
 530 653 466 690 390 690 c 0
 317 690 259 658 228 602 c 0
 194 541 177 458 177 360 c 0
 177 244 196 164 236 111 c 1
 235 119 235 126 235 129 c 0
 235 209 295 265 379 265 c 0
 463 265 524 213 550 119 c 1
480 54 m 1
 480 64 l 2
 480 162 442 218 374 218 c 0
 319 218 281 178 281 119 c 0
 281 64 320 32 386 32 c 0
 425 32 449 38 480 54 c 1
EndSplineSet
EndChar

StartChar: R
Encoding: 82 82 49
Width: 722
VWidth: 1000
Flags: W
HStem: -15 76<616.5 630> 0 47<26 44 44 84.5 336 354> 350 47<246 304> 675 47<26 44 293.5 315 315 369>
VStem: 134 112<94 122 122 350 397 599 599 617> 513 123<516.5 587.5>
LayerCount: 2
Fore
SplineSet
246 350 m 1
 246 122 l 1
 246 94 l 2
 246 52 255 47 336 47 c 2
 354 47 l 1
 354 0 l 1
 26 0 l 1
 26 47 l 1
 44 47 l 2
 125 47 134 52 134 94 c 2
 134 122 l 1
 134 599 l 1
 134 628 l 2
 134 670 125 675 44 675 c 2
 26 675 l 1
 26 722 l 1
 372 722 l 2
 540 722 636 657 636 543 c 0
 636 442 567 384 423 364 c 1
 501 344 540 302 562 210 c 1
 578 147 l 1
 595 78 605 61 628 61 c 0
 655 61 667 91 671 160 c 1
 713 160 l 1
 710 40 671 -15 589 -15 c 0
 510 -15 473 31 461 144 c 1
 456 195 l 1
 449 261 434 297 405 320 c 0
 383 338 343 350 304 350 c 2
 246 350 l 1
246 397 m 1
 356 397 l 2
 404 397 449 410 474 431 c 0
 500 452 513 491 513 542 c 0
 513 633 468 675 369 675 c 2
 315 675 l 2
 272 675 265 674 257 668 c 0
 247 660 246 657 246 617 c 2
 246 397 l 1
EndSplineSet
EndChar

StartChar: S
Encoding: 83 83 50
Width: 630
VWidth: 1000
Flags: MW
HStem: -15 46<309 373.5> 689 48<245.5 322.5>
VStem: 68 78<540.5 590.5> 512 78<151 190.5>
LayerCount: 2
Fore
SplineSet
546 728 m 1
 558 468 l 1
 515 468 l 1
 502 519 484 561 455 602 c 0
 415 659 358 689 288 689 c 0
 203 689 146 641 146 571 c 0
 146 510 188 471 277 448 c 2
 384 421 l 2
 464 401 503 384 530 358 c 0
 569 320 590 267 590 205 c 0
 590 71 496 -15 349 -15 c 0
 262 -15 206 5 139 60 c 1
 94 -8 l 1
 55 -8 l 1
 51 277 l 1
 94 277 l 1
 109 200 130 153 172 106 c 0
 219 54 272 31 346 31 c 0
 401 31 434 42 467 71 c 0
 497 98 512 131 512 171 c 0
 512 210 496 243 466 266 c 0
 445 282 438 284 364 303 c 2
 269 327 l 2
 122 365 68 419 68 528 c 0
 68 653 156 737 287 737 c 0
 358 737 422 713 469 668 c 1
 509 728 l 1
 546 728 l 1
EndSplineSet
EndChar

StartChar: T
Encoding: 84 84 51
Width: 667
VWidth: 1000
Flags: MW
HStem: 0 47<162 188 188 228.5 479 505> 675 47<197 247.5 420.5 467.5>
VStem: 278 112<94 123 123 639>
LayerCount: 2
Fore
SplineSet
633 722 m 1
 648 444 l 1
 605 444 l 1
 597 501 587 544 572 581 c 0
 547 641 498 675 437 675 c 0
 404 675 390 664 390 639 c 2
 390 123 l 1
 390 94 l 2
 390 52 399 47 479 47 c 2
 505 47 l 1
 505 0 l 1
 162 0 l 1
 162 47 l 1
 188 47 l 2
 269 47 278 52 278 94 c 2
 278 123 l 1
 278 639 l 2
 278 664 264 675 231 675 c 0
 163 675 115 637 89 564 c 0
 78 532 69 494 62 444 c 1
 19 444 l 1
 34 722 l 1
 633 722 l 1
EndSplineSet
EndChar

StartChar: U
Encoding: 85 85 52
Width: 815
VWidth: 1000
Flags: MW
HStem: -15 54<393 456.5> 675 47<17 34 284.5 325 325 344>
VStem: 123 112<217.5 264 264 270 270 599 599 628> 629 54<284 505>
LayerCount: 2
Fore
SplineSet
683 505 m 2
 683 278 l 2
 683 189 671 136 639 90 c 0
 591 19 513 -15 400 -15 c 0
 287 -15 199 22 153 88 c 0
 134 116 126 148 123 201 c 1
 123 270 l 1
 123 599 l 1
 123 628 l 2
 123 670 114 675 34 675 c 2
 17 675 l 1
 17 722 l 1
 344 722 l 1
 344 675 l 1
 325 675 l 2
 244 675 235 670 235 628 c 2
 235 599 l 1
 235 264 l 2
 235 171 240 147 267 110 c 0
 300 65 359 39 427 39 c 0
 508 39 573 75 605 137 c 0
 624 172 629 204 629 284 c 2
 629 505 l 2
 629 642 609 671 514 675 c 1
 514 722 l 1
 799 722 l 1
 799 675 l 1
 703 671 683 642 683 505 c 2
EndSplineSet
EndChar

StartChar: V
Encoding: 86 86 53
Width: 722
VWidth: 1000
Flags: MW
HStem: -15 20 675 47<-8 12 241.5 264 264 304 460 479 692.5 721 721 731>
LayerCount: 2
Fore
SplineSet
393 155 m 1
 548 567 l 2
 555 586 560 609 560 623 c 0
 560 655 530 675 479 675 c 2
 460 675 l 1
 460 722 l 1
 731 722 l 1
 731 675 l 1
 721 675 l 2
 664 675 642 655 612 577 c 2
 382 -15 l 1
 342 -15 l 1
 89 619 l 1
 70 665 57 675 12 675 c 2
 -8 675 l 1
 -8 722 l 1
 304 722 l 1
 304 675 l 1
 264 675 l 2
 219 675 202 668 202 650 c 0
 202 644 205 632 210 620 c 2
 393 155 l 1
EndSplineSet
EndChar

StartChar: W
Encoding: 87 87 54
Width: 981
VWidth: 1000
Flags: MW
HStem: -15 20 462 20<492 492> 675 47<6 25 227 243 243 288 353 376 606.5 626 626 642 731 739 955.5 972 972 976>
LayerCount: 2
Fore
SplineSet
349 182 m 1
 465 566 l 1
 439 644 l 2
 431 668 417 675 376 675 c 2
 353 675 l 1
 353 722 l 1
 642 722 l 1
 642 675 l 1
 626 675 l 2
 587 675 580 674 569 670 c 0
 560 666 554 657 554 648 c 0
 554 641 555 639 561 620 c 2
 699 182 l 1
 819 588 l 1
 823 599 825 613 825 623 c 0
 825 658 797 675 739 675 c 2
 731 675 l 1
 731 722 l 1
 976 722 l 1
 976 675 l 1
 972 675 l 2
 939 675 914 663 898 639 c 0
 887 623 882 611 871 572 c 1
 695 -15 l 1
 654 -15 l 1
 492 482 l 1
 344 -15 l 1
 301 -15 l 1
 85 636 l 1
 73 671 67 675 25 675 c 2
 6 675 l 1
 6 722 l 1
 288 722 l 1
 288 675 l 1
 243 675 l 2
 211 675 200 670 200 655 c 0
 200 650 202 639 205 630 c 2
 349 182 l 1
EndSplineSet
EndChar

StartChar: X
Encoding: 88 88 55
Width: 704
VWidth: 1000
Flags: MW
HStem: 0 20 675 47<-6 11 246 265 265 303 400 414 632.5 659 659 675>
LayerCount: 2
Fore
SplineSet
389 400 m 1
 599 99 l 2
 633 50 640 47 704 47 c 2
 716 47 l 1
 716 0 l 1
 388 0 l 1
 388 47 l 1
 416 47 l 2
 479 48 483 49 483 65 c 0
 483 73 478 84 470 96 c 2
 321 307 l 1
 205 139 l 2
 195 124 189 108 189 95 c 0
 189 65 214 47 254 47 c 2
 279 47 l 1
 279 0 l 1
 -5 0 l 1
 -5 47 l 1
 -1 47 l 2
 50 47 91 71 130 127 c 1
 292 352 l 1
 95 637 l 2
 72 670 60 675 11 675 c 2
 -6 675 l 1
 -6 722 l 1
 303 722 l 1
 303 675 l 1
 265 675 l 2
 227 675 217 672 217 662 c 0
 217 657 221 647 228 637 c 2
 361 445 l 1
 469 602 l 2
 480 618 483 625 483 636 c 0
 483 663 462 675 414 675 c 2
 400 675 l 1
 400 722 l 1
 675 722 l 1
 675 675 l 1
 659 675 l 2
 606 675 578 656 522 581 c 2
 389 400 l 1
EndSplineSet
EndChar

StartChar: Y
Encoding: 89 89 56
Width: 704
VWidth: 1000
Flags: MW
HStem: 0 47<190 216 216 256.5 507 533> 675 47<-13 9 235.5 249 249 308 429 452 688.5 705 705 713>
VStem: 306 112<94 123 123 287 287 287>
LayerCount: 2
Fore
SplineSet
389 357 m 1
 513 578 l 2
 524 598 530 615 530 630 c 0
 530 662 507 675 452 675 c 2
 429 675 l 1
 429 722 l 1
 713 722 l 1
 713 675 l 1
 705 675 l 2
 672 675 640 662 617 641 c 0
 602 626 589 607 567 568 c 2
 418 299 l 1
 418 123 l 1
 418 94 l 2
 418 51 426 47 507 47 c 2
 533 47 l 1
 533 0 l 1
 190 0 l 1
 190 47 l 1
 216 47 l 2
 297 47 306 52 306 94 c 2
 306 123 l 1
 306 287 l 1
 90 629 l 2
 67 666 52 675 9 675 c 2
 -13 675 l 1
 -13 722 l 1
 308 722 l 1
 308 675 l 1
 249 675 l 2
 222 675 210 669 210 656 c 0
 210 649 213 640 221 628 c 2
 389 357 l 1
EndSplineSet
EndChar

StartChar: Z
Encoding: 90 90 57
Width: 611
VWidth: 1000
Flags: MW
HStem: 0 47<158 324 324 356.5> 675 47<236 303 303 433>
LayerCount: 2
Fore
SplineSet
569 722 m 1
 569 686 l 1
 158 47 l 1
 324 47 l 2
 389 47 443 66 468 99 c 0
 497 135 514 185 528 278 c 1
 575 278 l 1
 557 0 l 1
 24 0 l 1
 24 36 l 1
 433 675 l 1
 303 675 l 2
 169 675 130 636 98 469 c 1
 53 469 l 1
 73 722 l 1
 569 722 l 1
EndSplineSet
EndChar

StartChar: bracketleft
Encoding: 91 91 58
Width: 333
VWidth: 1000
Flags: MW
HStem: -108 36<156 297> 685 37<156 297 156 156>
VStem: 66 90<-72 685>
LayerCount: 2
Fore
SplineSet
156 -72 m 1
 297 -72 l 1
 297 -108 l 1
 66 -108 l 1
 66 722 l 1
 297 722 l 1
 297 685 l 1
 156 685 l 1
 156 -72 l 1
EndSplineSet
EndChar

StartChar: backslash
Encoding: 92 92 59
Width: 606
VWidth: 1000
Flags: MW
HStem: 0 20 717 20<74 132 132 132>
LayerCount: 2
Fore
SplineSet
132 737 m 1
 532 0 l 1
 474 0 l 1
 74 737 l 1
 132 737 l 1
EndSplineSet
EndChar

StartChar: bracketright
Encoding: 93 93 60
Width: 333
VWidth: 1000
Flags: MW
HStem: -108 37<36 176> 686 36<36 176>
VStem: 176 90<-71 686 686 686>
LayerCount: 2
Fore
SplineSet
176 686 m 1
 36 686 l 1
 36 722 l 1
 266 722 l 1
 266 -108 l 1
 36 -108 l 1
 36 -71 l 1
 176 -71 l 1
 176 686 l 1
EndSplineSet
EndChar

StartChar: asciicircum
Encoding: 94 94 61
Width: 606
VWidth: 1000
Flags: MW
HStem: 702 20<261 346 346 346>
LayerCount: 2
Fore
SplineSet
554 318 m 1
 467 318 l 1
 304 629 l 1
 139 318 l 1
 52 318 l 1
 261 722 l 1
 346 722 l 1
 554 318 l 1
EndSplineSet
EndChar

StartChar: underscore
Encoding: 95 95 62
Width: 500
VWidth: 1000
Flags: MW
HStem: -134 61<0 500>
LayerCount: 2
Fore
SplineSet
0 -73 m 1
 500 -73 l 1
 500 -134 l 1
 0 -134 l 1
 0 -73 l 1
EndSplineSet
EndChar

StartChar: grave
Encoding: 96 96 63
Width: 333
VWidth: 1000
Flags: HMW
LayerCount: 2
Fore
SplineSet
242 535 m 1
 201 535 l 1
 42 632 l 2
 27 642 17 657 17 671 c 0
 17 691 32 706 52 706 c 0
 68 706 77 700 102 675 c 2
 242 535 l 1
EndSplineSet
EndChar

StartChar: a
Encoding: 97 97 64
Width: 556
VWidth: 1000
Flags: W
HStem: -15 53<201.5 223.5> -7 59<427.5 524.707> 438 43<226 265.5>
VStem: 44 101<93.5 133.5> 71 90<324.222 420.053> 358 94<200 246 246 246 289 322>
LayerCount: 2
Fore
SplineSet
452 322 m 2
 452 121 l 2
 452 71 462 52 490 52 c 0
 498 52 502 53 518 59 c 0
 525 62 529 63 533 63 c 0
 538 63 543 58 543 51 c 0
 543 22 496 -7 451 -7 c 0
 404 -7 379 13 363 64 c 1
 320 13 258 -15 189 -15 c 0
 101 -15 44 31 44 102 c 0
 44 165 86 212 172 244 c 0
 221 263 253 271 358 289 c 1
 358 328 l 2
 358 373 351 397 332 413 c 0
 316 428 281 438 250 438 c 0
 202 438 161 420 161 399 c 0
 161 396 162 393 168 386 c 0
 178 372 183 358 183 345 c 0
 183 315 160 294 129 294 c 0
 94 294 71 318 71 356 c 0
 71 428 154 481 266 481 c 0
 330 481 379 467 412 441 c 0
 441 417 452 385 452 322 c 2
358 200 m 2
 358 246 l 1
 280 233 241 223 210 209 c 0
 166 188 145 158 145 116 c 0
 145 71 179 38 224 38 c 0
 267 38 313 63 338 100 c 0
 355 126 358 140 358 200 c 2
EndSplineSet
EndChar

StartChar: b
Encoding: 98 98 65
Width: 556
VWidth: 1000
Flags: W
HStem: -15 43<274 337.5> 430 51<285.5 335.5> 683 43<8 8> 717 20<180 180>
VStem: 86 94<403 633 633 654.5> 415 105<164 291.5>
LayerCount: 2
Fore
SplineSet
180 737 m 1xdc
 180 403 l 1
 218 460 255 481 316 481 c 0
 436 481 520 380 520 236 c 0
 520 92 428 -15 305 -15 c 0
 243 -15 196 10 155 64 c 1
 106 -14 l 1
 68 -14 l 1
 81 45 86 110 86 244 c 2
 86 633 l 2
 86 676 80 683 43 683 c 2
 8 683 l 1
 8 726 l 1xec
 180 737 l 1xdc
298 430 m 0
 218 430 175 357 175 224 c 0
 175 101 222 28 301 28 c 0
 374 28 415 100 415 226 c 0
 415 357 373 430 298 430 c 0
EndSplineSet
EndChar

StartChar: c
Encoding: 99 99 66
Width: 444
VWidth: 1000
Flags: MW
HStem: -15 61<229 287.5> 438 43<225 277>
VStem: 34 105<177.5 296.5> 318 95<327.88 429.303>
LayerCount: 2
Fore
SplineSet
387 147 m 1
 426 132 l 1
 383 26 332 -15 243 -15 c 0
 119 -15 34 83 34 225 c 0
 34 374 127 481 257 481 c 0
 346 481 413 429 413 362 c 0
 413 322 387 294 352 294 c 0
 317 294 292 317 292 350 c 0
 292 367 296 377 312 396 c 0
 316 402 318 405 318 408 c 0
 318 424 292 438 262 438 c 0
 188 438 139 357 139 236 c 0
 139 119 189 46 269 46 c 0
 321 46 355 75 387 147 c 1
EndSplineSet
EndChar

StartChar: d
Encoding: 100 100 67
Width: 574
VWidth: 1000
Flags: W
HStem: -15 54<226 273.5> 0 43<554 554> 427 54<241.5 271> 683 43<278 278> 717 20<474 474>
VStem: 43 105<160.5 245.5> 380 94<407 633 633 654.5>
LayerCount: 2
Fore
SplineSet
380 -7 m 1x6e
 380 72 l 1
 348 12 305 -15 242 -15 c 0
 126 -15 43 86 43 228 c 0
 43 372 129 481 242 481 c 0
 300 481 343 458 380 407 c 1
 380 633 l 2
 380 676 373 683 337 683 c 2
 278 683 l 1
 278 726 l 1xb6
 474 737 l 1
 474 116 l 2
 474 53 482 43 536 43 c 2
 554 43 l 1
 554 0 l 1
 380 -7 l 1x6e
262 427 m 0
 221 427 184 398 167 354 c 0
 154 320 148 275 148 216 c 0
 148 105 191 39 261 39 c 0
 333 39 379 115 379 231 c 0
 379 279 372 321 360 351 c 0
 342 397 303 427 262 427 c 0
EndSplineSet
EndChar

StartChar: e
Encoding: 101 101 68
Width: 500
VWidth: 1000
Flags: MW
HStem: -15 54<254.5 308.5> 225 43<142 317 317 333> 438 43<233 287.5>
LayerCount: 2
Fore
SplineSet
465 225 m 5
 141 225 l 5
 140 170 148 135 166 105 c 4
 192 61 229 39 280 39 c 4
 347 39 389 69 430 146 c 5
 465 127 l 5
 424 32 356 -15 261 -15 c 4
 126 -15 35 80 35 220 c 4
 35 370 131 481 259 481 c 4
 381 481 466 375 465 225 c 5
142 268 m 5
 317 268 l 6
 349 268 358 276 358 305 c 4
 358 385 318 438 257 438 c 4
 209 438 177 409 156 349 c 4
 146 321 142 299 142 268 c 5
EndSplineSet
EndChar

StartChar: f
Encoding: 102 102 69
Width: 333
VWidth: 1000
Flags: MW
HStem: 0 36<28 32 32 64 277 295> 423 43<19 107 201 311> 697 40<283 313.5>
VStem: 107 94<83 123 123 423 466 497 497 523> 337 96<612.905 696.502>
LayerCount: 2
Fore
SplineSet
201 466 m 1
 311 466 l 1
 311 423 l 1
 201 423 l 1
 201 123 l 1
 201 83 l 2
 201 43 212 36 277 36 c 2
 295 36 l 1
 295 0 l 1
 28 0 l 1
 28 36 l 1
 32 36 l 2
 96 36 107 43 107 83 c 2
 107 123 l 1
 107 423 l 1
 19 423 l 1
 19 466 l 1
 107 466 l 1
 107 497 l 2
 107 578 117 621 147 663 c 0
 183 713 233 737 302 737 c 0
 383 737 433 701 433 643 c 0
 433 607 410 582 377 582 c 0
 346 582 322 605 322 635 c 0
 322 646 325 657 331 667 c 0
 336 675 337 677 337 680 c 0
 337 691 324 697 303 697 c 0
 263 697 228 670 212 626 c 0
 204 606 201 573 201 523 c 2
 201 466 l 1
EndSplineSet
EndChar

StartChar: g
Encoding: 103 103 70
Width: 537
VWidth: 1000
Flags: MW
HStem: -203 41<196 294> -12 74<196 246> 155 38<191.797 311.398> 438 43<221.5 281> 440 55<410.122 485.248>
VStem: 23 83<-114.5 -79.5> 59 91<285.5 353.5> 353 92<285 338> 415 70<-97.5 -56>
LayerCount: 2
Fore
SplineSet
196 74 m 2
 298 74 l 2
 367 74 399 70 425 60 c 0
 462 45 485 5 485 -45 c 0
 485 -150 401 -203 234 -203 c 0
 100 -203 23 -166 23 -100 c 0
 23 -59 53 -27 115 -5 c 1
 68 11 48 37 48 81 c 0
 48 136 76 166 143 181 c 1
 91 205 59 256 59 315 c 0
 59 415 137 481 256 481 c 0
 306 481 338 471 380 443 c 1
 426 485 444 495 476 495 c 0
 515 495 542 471 542 437 c 0
 542 410 522 389 497 389 c 0
 472 389 456 402 452 426 c 0
 450 437 447 440 442 440 c 0
 434 440 425 434 408 416 c 1
 436 383 445 358 445 318 c 0
 445 252 411 200 351 173 c 0
 318 158 303 156 208 154 c 0
 141 152 114 139 114 109 c 0
 114 98 119 87 126 83 c 0
 138 76 141 75 196 74 c 2
255 438 m 0
 188 438 150 393 150 314 c 0
 150 239 189 192 251 192 c 0
 315 192 353 239 353 317 c 0
 353 394 318 438 255 438 c 0
246 -12 m 2
 172 -12 l 1
 124 -37 106 -59 106 -92 c 0
 106 -137 154 -162 238 -162 c 0
 350 -162 415 -129 415 -72 c 0
 415 -40 390 -18 350 -14 c 0
 335 -12 329 -12 246 -12 c 2
EndSplineSet
EndChar

StartChar: h
Encoding: 104 104 71
Width: 611
VWidth: 1000
Flags: W
HStem: 0 36<27 31 31 63 276 280 340 344 344 376.5 589 593> 420 61<326 340> 683 43<15 15> 717 20<200 200>
VStem: 106 94<83 123 123 226 384 633 633 654.5> 420 94<83 123 123 280>
LayerCount: 2
Fore
SplineSet
200 737 m 1xdc
 200 384 l 1
 245 451 294 481 358 481 c 0
 418 481 468 452 493 404 c 0
 511 370 514 352 514 280 c 2
 514 123 l 1
 514 83 l 2
 514 43 525 36 589 36 c 2
 593 36 l 1
 593 0 l 1
 340 0 l 1
 340 36 l 1
 344 36 l 2
 409 36 420 43 420 83 c 2
 420 123 l 1
 420 284 l 2
 420 333 413 363 398 385 c 0
 383 405 353 420 327 420 c 0
 284 420 239 389 218 344 c 0
 207 321 200 276 200 226 c 2
 200 123 l 1
 200 83 l 2
 200 43 211 36 276 36 c 2
 280 36 l 1
 280 0 l 1
 27 0 l 1
 27 36 l 1
 31 36 l 2
 95 36 106 43 106 83 c 2
 106 123 l 1
 106 633 l 2
 106 676 100 683 63 683 c 2
 15 683 l 1
 15 726 l 1xec
 200 737 l 1xdc
EndSplineSet
EndChar

StartChar: i
Encoding: 105 105 72
Width: 315
VWidth: 1000
Flags: W
HStem: 0 36<30 37 37 69 282 289> 412 43<18 18> 446 20<206 206> 599 116<143 174.5>
VStem: 101 116<641.5 673> 112 94<83 123 123 362 362 383.5>
LayerCount: 2
Fore
SplineSet
206 466 m 1
 206 123 l 1
 206 83 l 2
 206 43 217 36 282 36 c 2
 289 36 l 1
 289 0 l 1
 30 0 l 1
 30 36 l 1
 37 36 l 2
 101 36 112 43 112 83 c 2
 112 123 l 1
 112 362 l 2
 112 405 106 412 69 412 c 2
 18 412 l 1
 18 455 l 1
 206 466 l 1
159 715 m 0
 191 715 217 689 217 657 c 0
 217 625 191 599 158 599 c 0
 127 599 101 626 101 657 c 0
 101 689 127 715 159 715 c 0
EndSplineSet
EndChar

StartChar: j
Encoding: 106 106 73
Width: 296
VWidth: 1000
Flags: W
HStem: -202 42<32 49.5> 412 43<12 12> 446 20<207 207> 599 116<144 175.5>
VStem: -82 96<-159.48 -88.2829> 102 116<641.5 673> 113 94<23 71 71 362 362 383.5>
LayerCount: 2
Fore
SplineSet
207 466 m 1xba
 207 71 l 2
 207 -42 197 -93 166 -137 c 0
 137 -177 86 -202 30 -202 c 0
 -37 -202 -82 -169 -82 -120 c 0
 -82 -86 -58 -60 -26 -60 c 0
 2 -60 26 -82 26 -107 c 0
 26 -114 24 -120 19 -131 c 0
 15 -141 14 -143 14 -147 c 0
 14 -154 25 -160 39 -160 c 0
 60 -160 84 -145 94 -125 c 0
 108 -96 113 -58 113 23 c 2
 113 362 l 2
 113 405 107 412 70 412 c 2
 12 412 l 1
 12 455 l 1xda
 207 466 l 1xba
160 715 m 0
 192 715 218 689 218 657 c 0
 218 625 192 599 159 599 c 0
 128 599 102 626 102 657 c 0x9c
 102 689 128 715 160 715 c 0
EndSplineSet
EndChar

StartChar: k
Encoding: 107 107 74
Width: 593
VWidth: 1000
Flags: W
HStem: 0 36<26 30 30 62 275 279 323 342 342 358.5> 430 36<279 310> 683 43<14 14> 717 20<199 199>
VStem: 105 94<83 123 123 180 242 633 633 654.5>
LayerCount: 2
Fore
SplineSet
199 242 m 1xd8
 334 372 l 2
 350 388 357 400 357 411 c 0
 357 424 342 430 310 430 c 2
 279 430 l 1
 279 466 l 1
 542 466 l 1
 542 430 l 1
 474 422 431 400 373 343 c 2
 328 299 l 1
 470 105 l 1
 511 53 531 41 587 36 c 1
 587 0 l 1
 323 0 l 1
 323 36 l 1
 342 36 l 2
 375 36 386 40 386 53 c 0
 386 58 383 64 379 71 c 1
 260 238 l 1
 199 180 l 1
 199 123 l 1
 199 83 l 2
 199 43 210 36 275 36 c 2
 279 36 l 1
 279 0 l 1
 26 0 l 1
 26 36 l 1
 30 36 l 2
 94 36 105 43 105 83 c 2
 105 123 l 1
 105 633 l 2
 105 676 99 683 62 683 c 2
 14 683 l 1
 14 726 l 1xe8
 199 737 l 1
 199 242 l 1xd8
EndSplineSet
EndChar

StartChar: l
Encoding: 108 108 75
Width: 315
VWidth: 1000
Flags: W
HStem: 0 36<28 35 35 67 280 287> 683 43<19 19> 717 20<204 204>
VStem: 110 94<83 123 123 633 633 654.5>
LayerCount: 2
Fore
SplineSet
204 737 m 1
 204 123 l 1
 204 83 l 2
 204 43 215 36 280 36 c 2
 287 36 l 1
 287 0 l 1
 28 0 l 1
 28 36 l 1
 35 36 l 2
 99 36 110 43 110 83 c 2
 110 123 l 1
 110 633 l 2
 110 676 104 683 68 683 c 2
 19 683 l 1
 19 726 l 1
 204 737 l 1
EndSplineSet
EndChar

StartChar: m
Encoding: 109 109 76
Width: 889
VWidth: 1000
Flags: W
HStem: 0 36<28 32 32 64 276 280 321 325 325 357.5 570 574 615 619 619 651.5 864 868> 412 43<23 23> 420 61<315 328 606.5 626.5> 446 20<201 201>
VStem: 107 94<84 123 123 265> 401 94<83 123 123 256> 695 94<83 84 84 123 123 287 287 306.5>
LayerCount: 2
Fore
SplineSet
201 466 m 1
 201 389 l 1
 240 452 285 481 345 481 c 0
 412 481 466 441 483 381 c 1
 526 450 574 481 639 481 c 0
 687 481 728 461 757 424 c 0
 783 390 789 369 789 307 c 2
 789 123 l 1
 789 84 l 2
 789 43 800 36 864 36 c 2
 868 36 l 1
 868 0 l 1
 615 0 l 1
 615 36 l 1
 619 36 l 2
 684 36 695 43 695 83 c 2
 695 123 l 1
 695 287 l 2
 695 326 692 348 683 370 c 0
 670 401 643 420 610 420 c 0
 540 420 495 356 495 256 c 2
 495 123 l 1
 495 83 l 2
 495 43 506 36 570 36 c 2
 574 36 l 1
 574 0 l 1
 321 0 l 1
 321 36 l 1
 325 36 l 2
 390 36 401 43 401 83 c 2
 401 123 l 1
 401 298 l 2
 401 339 395 368 381 387 c 1
 369 406 341 420 315 420 c 0
 250 420 201 354 201 265 c 2
 201 123 l 1
 201 84 l 2
 201 43 212 36 276 36 c 2
 280 36 l 1
 280 0 l 1
 28 0 l 1
 28 36 l 1
 32 36 l 2
 96 36 107 43 107 84 c 2
 107 123 l 1
 107 362 l 2
 107 405 101 412 64 412 c 2
 23 412 l 1
 23 455 l 1
 201 466 l 1
EndSplineSet
EndChar

StartChar: n
Encoding: 110 110 77
Width: 611
VWidth: 1000
Flags: W
HStem: 0 36<27 31 31 63 276 280 340 344 344 376.5 589 593> 412 43<27 27> 420 61<326 340> 446 20<200 200>
VStem: 106 94<83 123 123 227> 420 94<83 123 123 280>
LayerCount: 2
Fore
SplineSet
200 466 m 1x9c
 200 385 l 1
 244 451 294 481 358 481 c 0
 417 481 468 452 493 404 c 0
 511 370 514 352 514 280 c 2
 514 123 l 1
 514 83 l 2
 514 43 525 36 589 36 c 2
 593 36 l 1
 593 0 l 1
 340 0 l 1
 340 36 l 1
 344 36 l 2
 409 36 420 43 420 83 c 2
 420 123 l 1
 420 285 l 2
 420 333 413 364 398 385 c 0
 383 405 353 420 327 420 c 0xac
 284 420 239 389 218 344 c 0
 207 321 200 276 200 227 c 2
 200 123 l 1
 200 83 l 2
 200 43 211 36 276 36 c 2
 280 36 l 1
 280 0 l 1
 27 0 l 1
 27 36 l 1
 31 36 l 2
 95 36 106 43 106 83 c 2
 106 123 l 1
 106 362 l 2
 106 405 100 412 63 412 c 2
 27 412 l 1
 27 455 l 1xcc
 200 466 l 1x9c
EndSplineSet
EndChar

StartChar: o
Encoding: 111 111 78
Width: 500
VWidth: 1000
Flags: MW
HStem: -15 43<214 286> 438 43<214.5 287>
VStem: 34 105<166 300> 361 105<166.5 299>
LayerCount: 2
Fore
SplineSet
252 481 m 0
 370 481 466 370 466 233 c 0
 466 95 370 -15 250 -15 c 0
 130 -15 34 95 34 232 c 0
 34 372 130 481 252 481 c 0
252 438 m 0
 177 438 139 368 139 232 c 0
 139 100 178 28 250 28 c 0
 322 28 361 100 361 233 c 0
 361 365 322 438 252 438 c 0
EndSplineSet
EndChar

StartChar: p
Encoding: 112 112 79
Width: 574
VWidth: 1000
Flags: W
HStem: -202 36<28 32 32 64 277 288> -15 54<302.5 353.5> 412 43<28 28> 427 54<308 355.5> 446 20<201 201>
VStem: 107 94<-119 -79 -79 66> 430 105<176.5 299.5>
LayerCount: 2
Fore
SplineSet
201 466 m 1
 201 395 l 1
 236 455 277 481 339 481 c 4
 449 481 535 373 535 235 c 0
 535 92 449 -15 333 -15 c 0
 272 -15 234 8 201 66 c 1
 201 -79 l 1
 201 -119 l 2
 201 -159 212 -166 277 -166 c 2
 288 -166 l 1
 288 -202 l 1
 28 -202 l 1
 28 -166 l 1
 32 -166 l 2
 96 -166 107 -159 107 -119 c 2
 107 -79 l 1
 107 362 l 2
 107 405 101 412 64 412 c 2
 28 412 l 1
 28 455 l 1
 201 466 l 1
321 427 m 0
 245 427 200 352 200 228 c 0
 200 113 247 39 318 39 c 0
 389 39 430 112 430 241 c 0
 430 358 390 427 321 427 c 0
EndSplineSet
EndChar

StartChar: q
Encoding: 113 113 80
Width: 556
VWidth: 1000
Flags: MW
HStem: -202 36<288 299 299 331.5 544 548> -15 54<221 270> 438 43<219.5 279>
VStem: 36 105<168 296> 375 94<-119 -79 -79 58 58 58 175.5 272.5>
LayerCount: 2
Fore
SplineSet
449 466 m 1
 486 466 l 1
 475 414 472 400 470 381 c 0
 470 370 470 366 469 309 c 1
 469 -79 l 1
 469 -119 l 2
 469 -159 480 -166 544 -166 c 2
 548 -166 l 1
 548 -202 l 1
 288 -202 l 1
 288 -166 l 1
 299 -166 l 2
 364 -166 375 -159 375 -119 c 2
 375 -79 l 1
 375 58 l 1
 335 3 301 -15 239 -15 c 0
 122 -15 36 85 36 222 c 0
 36 370 128 481 250 481 c 0
 313 481 362 454 402 398 c 1
 449 466 l 1
259 438 m 0
 180 438 141 368 141 228 c 0
 141 108 184 39 258 39 c 0
 336 39 375 107 375 244 c 0
 375 301 369 337 354 370 c 0
 335 412 299 438 259 438 c 0
EndSplineSet
EndChar

StartChar: r
Encoding: 114 114 81
Width: 444
VWidth: 1000
Flags: MW
HStem: 0 36<25 29 29 61.5 273 292> 446 20<198 198> 461 20<316.5 374.5>
LayerCount: 2
Fore
SplineSet
198 466 m 1
 198 342 l 1
 230 430 285 481 348 481 c 0
 401 481 435 449 435 401 c 0
 435 360 410 333 374 333 c 0
 342 333 319 356 319 388 c 0
 319 407 323 417 337 433 c 1
 295 428 261 397 237 341 c 0
 212 284 198 208 198 133 c 2
 198 123 l 1
 198 83 l 2
 198 43 209 36 273 36 c 2
 292 36 l 1
 292 0 l 1
 25 0 l 1
 25 36 l 1
 29 36 l 2
 94 36 105 43 105 83 c 2
 105 123 l 1
 105 362 l 2
 105 405 99 412 62 412 c 2
 21 412 l 1
 21 455 l 1
 198 466 l 1
EndSplineSet
EndChar

StartChar: s
Encoding: 115 115 82
Width: 463
VWidth: 1000
Flags: W
HStem: -15 43<233 288.5> 309 168<355 390> 437 44<181.5 228>
VStem: 58 58<357 379.5> 359 62<92.5 128>
LayerCount: 2
Fore
SplineSet
390 477 m 1xd8
 390 309 l 1
 355 309 l 1xd8
 339 355 328 375 306 397 c 0
 278 424 247 437 209 437 c 0
 154 437 116 408 116 368 c 0
 116 346 129 325 151 315 c 1
 169 305 169 305 224 293 c 2
 274 282 l 2
 335 269 355 261 379 240 c 0
 407 217 421 183 421 139 c 0
 421 46 356 -15 258 -15 c 0
 208 -15 162 1 121 34 c 1
 86 -7 l 1
 51 -7 l 1
 51 182 l 1
 91 182 l 1
 115 82 175 28 259 28 c 0
 318 28 359 61 359 108 c 0
 359 148 331 168 252 187 c 2
 199 199 l 2
 139 213 116 223 93 244 c 0
 71 264 58 297 58 336 c 0
 58 423 116 481 204 481 c 0xb8
 254 481 290 469 326 441 c 1
 355 477 l 1
 390 477 l 1xd8
EndSplineSet
EndChar

StartChar: t
Encoding: 116 116 83
Width: 389
VWidth: 1000
Flags: MW
HStem: -15 61<241.5 245.5> 423 43<194 341>
VStem: 100 94<168 423>
LayerCount: 2
Fore
SplineSet
194 466 m 1
 341 466 l 1
 341 423 l 1
 194 423 l 1
 194 150 l 2
 194 114 197 89 203 75 c 0
 210 58 230 46 253 46 c 0
 302 46 328 92 331 182 c 1
 373 182 l 1
 374 172 374 165 374 159 c 0
 374 104 355 51 322 19 c 0
 299 -3 265 -15 226 -15 c 0
 168 -15 128 8 112 50 c 0
 102 73 100 98 100 168 c 2
 100 423 l 1
 18 423 l 1
 18 462 l 1
 99 468 143 534 153 664 c 1
 194 664 l 1
 194 466 l 1
EndSplineSet
EndChar

StartChar: u
Encoding: 117 117 84
Width: 611
VWidth: 1000
Flags: MW
HStem: -15 40<265.5 289> 0 36<594 594> 446 20<21 21 318 318>
VStem: 102 94<146 161 161 362 362 383.5> 412 94<239 362 362 383.5>
LayerCount: 2
Fore
SplineSet
412 -7 m 1x78
 412 76 l 1
 368 12 322 -15 256 -15 c 0xb8
 196 -15 148 8 121 49 c 0
 106 72 102 95 102 146 c 2
 102 362 l 2
 102 405 96 412 59 412 c 2
 21 412 l 1
 21 455 l 1
 196 466 l 1
 196 161 l 2
 196 106 198 96 211 77 c 0
 224 57 250 46 281 46 c 0
 330 46 370 72 391 116 c 0
 406 149 412 182 412 239 c 2
 412 362 l 2
 412 405 406 412 369 412 c 2
 318 412 l 1
 318 455 l 1
 506 466 l 1
 506 116 l 2
 506 52 514 43 569 43 c 2
 594 43 l 1
 594 0 l 1
 412 -7 l 1x78
EndSplineSet
EndChar

StartChar: v
Encoding: 118 118 85
Width: 537
VWidth: 1000
Flags: MW
HStem: -15 20 446 20<8 244 244 244 328 528 528 528>
LayerCount: 2
Fore
SplineSet
295 121 m 1
 387 353 l 1
 392 368 396 384 396 395 c 0
 396 418 377 430 342 430 c 2
 328 430 l 1
 328 466 l 1
 528 466 l 1
 528 430 l 1
 524 430 l 2
 486 430 458 402 431 336 c 2
 289 -15 l 1
 254 -15 l 1
 82 387 l 1
 68 421 54 430 16 430 c 2
 8 430 l 1
 8 466 l 5
 244 466 l 1
 244 430 l 1
 230 430 l 2
 189 430 176 424 176 407 c 0
 176 401 178 392 181 386 c 2
 295 121 l 1
EndSplineSet
EndChar

StartChar: w
Encoding: 119 119 86
Width: 778
VWidth: 1000
Flags: MW
HStem: -15 20 430 36<15 33 202 217 217 235 287 304 470.5 487 487 511 574 591 738.5 756 756 763>
LayerCount: 2
Fore
SplineSet
547 129 m 1
 632 357 l 1
 637 369 640 384 640 394 c 0
 640 419 626 430 591 430 c 2
 574 430 l 1
 574 466 l 1
 763 466 l 1
 763 430 l 1
 756 430 l 2
 721 430 704 413 682 354 c 2
 542 -15 l 1
 511 -15 l 1
 389 301 l 1
 270 -15 l 1
 235 -15 l 1
 85 381 l 1
 71 421 61 430 33 430 c 2
 15 430 l 1
 15 466 l 1
 235 466 l 1
 235 430 l 1
 217 430 l 2
 187 430 176 424 176 407 c 0
 176 401 178 392 180 385 c 1
 277 134 l 1
 365 367 l 1
 356 393 l 1
 347 422 335 430 304 430 c 2
 287 430 l 1
 287 466 l 1
 511 466 l 1
 511 430 l 1
 487 430 l 2
 454 430 445 425 445 407 c 0
 445 398 446 393 449 386 c 2
 547 129 l 1
EndSplineSet
EndChar

StartChar: x
Encoding: 120 120 87
Width: 537
VWidth: 1000
Flags: MW
HStem: 0 20 446 20<15 252 252 252 300 507 507 507>
LayerCount: 2
Fore
SplineSet
309 255 m 1
 435 85 l 2
 461 50 487 36 522 36 c 2
 529 36 l 1
 529 0 l 1
 277 0 l 1
 277 36 l 1
 284 36 l 2
 322 36 337 41 337 54 c 0
 337 61 331 74 324 84 c 2
 248 185 l 1
 164 84 l 2
 159 79 156 70 156 63 c 0
 156 54 162 44 170 40 c 0
 177 37 182 36 205 36 c 2
 220 36 l 1
 220 0 l 1
 9 0 l 1
 9 36 l 1
 15 36 l 2
 44 36 77 55 105 88 c 2
 220 222 l 1
 98 376 l 2
 65 418 52 427 15 430 c 1
 15 466 l 1
 252 466 l 1
 252 430 l 1
 238 430 l 2
 207 430 194 425 194 412 c 0
 194 406 198 397 204 390 c 2
 281 292 l 1
 344 367 l 2
 357 383 364 398 364 408 c 0
 364 422 349 430 319 430 c 2
 300 430 l 1
 300 466 l 1
 507 466 l 1
 507 430 l 1
 498 430 l 2
 472 430 447 416 423 388 c 2
 309 255 l 1
EndSplineSet
EndChar

StartChar: y
Encoding: 121 121 88
Width: 537
VWidth: 1000
Flags: MW
HStem: -206 49<118.5 120.5> 446 20<13 251 251 251 331 531 531 531>
VStem: 3 104<-150 -146>
LayerCount: 2
Fore
SplineSet
300 127 m 1
 391 353 l 2
 398 370 401 383 401 393 c 0
 401 419 385 430 347 430 c 2
 331 430 l 1
 331 466 l 1
 531 466 l 1
 531 430 l 1
 525 430 l 2
 487 430 466 410 441 349 c 2
 327 67 l 1
 283 -44 263 -84 232 -126 c 0
 192 -180 147 -206 94 -206 c 0
 42 -206 3 -173 3 -129 c 0
 3 -93 28 -67 63 -67 c 0
 92 -67 114 -86 114 -112 c 0
 114 -120 112 -129 109 -138 c 0
 108 -142 107 -145 107 -147 c 0
 107 -153 114 -157 123 -157 c 0
 155 -157 202 -104 238 -28 c 2
 255 7 l 1
 92 376 l 2
 74 416 56 430 24 430 c 2
 13 430 l 1
 13 466 l 1
 251 466 l 1
 251 430 l 1
 230 430 l 2
 196 430 184 423 184 405 c 0
 184 400 186 393 190 384 c 2
 300 127 l 1
EndSplineSet
EndChar

StartChar: z
Encoding: 122 122 89
Width: 481
VWidth: 1000
Flags: MW
HStem: 0 43<155 257 257 302> 423 43<184 225 225 312>
LayerCount: 2
Fore
SplineSet
428 466 m 1
 428 430 l 1
 155 43 l 1
 257 43 l 2
 347 43 385 80 395 179 c 1
 435 179 l 1
 428 0 l 1
 39 0 l 1
 39 36 l 1
 312 423 l 1
 225 423 l 2
 143 423 107 387 98 297 c 1
 58 297 l 1
 67 466 l 1
 428 466 l 1
EndSplineSet
EndChar

StartChar: braceleft
Encoding: 123 123 90
Width: 333
VWidth: 1000
Flags: MW
HStem: 688 34<297 297>
VStem: 142 74<42 52 52 158 158 182 456 562>
LayerCount: 2
Fore
SplineSet
66 291 m 1
 66 323 l 1
 108 337 122 346 132 368 c 0
 141 386 142 395 142 456 c 2
 142 572 l 2
 142 638 152 673 177 695 c 0
 195 711 234 722 271 722 c 2
 297 722 l 1
 297 688 l 1
 232 684 216 658 216 562 c 2
 216 432 l 2
 216 363 203 340 149 307 c 1
 203 274 216 251 216 182 c 2
 216 52 l 2
 216 -44 232 -70 297 -74 c 1
 297 -108 l 1
 271 -108 l 2
 234 -108 195 -97 177 -81 c 0
 152 -59 142 -24 142 42 c 2
 142 158 l 2
 142 224 140 235 128 254 c 0
 116 271 104 278 66 291 c 1
EndSplineSet
EndChar

StartChar: bar
Encoding: 124 124 91
Width: 606
VWidth: 1000
Flags: MW
HStem: 0 20 702 20<264 342 342 342>
VStem: 264 78<0 722>
LayerCount: 2
Fore
SplineSet
342 722 m 5
 342 0 l 5
 264 0 l 5
 264 722 l 5
 342 722 l 5
EndSplineSet
EndChar

StartChar: braceright
Encoding: 125 125 92
Width: 333
VWidth: 1000
Flags: MW
HStem: 688 34<36 36>
VStem: 116 74<52 158 432 456 456 562 562 572>
LayerCount: 2
Fore
SplineSet
267 323 m 1
 267 291 l 1
 224 277 211 268 200 246 c 0
 191 228 190 219 190 158 c 2
 190 42 l 2
 190 -24 180 -60 155 -81 c 0
 137 -97 98 -108 61 -108 c 2
 36 -108 l 1
 36 -74 l 1
 100 -70 116 -44 116 52 c 2
 116 182 l 2
 116 251 129 274 183 307 c 1
 129 340 116 363 116 432 c 2
 116 562 l 2
 116 658 100 684 36 688 c 1
 36 722 l 1
 61 722 l 2
 98 722 137 711 155 695 c 0
 180 674 190 638 190 572 c 2
 190 456 l 2
 190 390 192 379 205 360 c 0
 216 343 228 336 267 323 c 1
EndSplineSet
EndChar

StartChar: asciitilde
Encoding: 126 126 93
Width: 606
VWidth: 1000
Flags: MW
HStem: 165 80<406 430> 247 80<176 200>
LayerCount: 2
Fore
SplineSet
104 182 m 1
 51 220 l 1
 88 285 143 327 191 327 c 0
 216 327 238 320 290 295 c 2
 336 273 l 2
 389 247 396 245 416 245 c 0
 444 245 475 269 502 310 c 1
 555 272 l 1
 518 207 463 165 415 165 c 0
 390 165 366 173 316 196 c 2
 270 219 l 2
 212 246 210 247 190 247 c 0
 162 247 131 223 104 182 c 1
EndSplineSet
EndChar

StartChar: sterling
Encoding: 163 163 94
Width: 570
VWidth: 1000
Flags: W
HStem: -15 87<153.97 466.133> 307 65<43 97.1377 234.062 439> 478 21G<423.5 462> 651 53<259.857 418.64>
VStem: 85 126<374.217 599.947> 108.532 125.53<152.957 307> 423 102<537.5 632.658> 509 43<122.933 145.907>
LayerCount: 2
Back
SplineSet
36 372 m 1
 432 372 l 1
 432 325 l 1
 36 325 l 1
 36 372 l 1
41 0 m 1
 34 66 l 1
 115.593 126.053 115 245 95.2844 344 c 0
 83.9921 400.703 78 457.964 78 506 c 0
 78 624 171.866 704 310.32 704 c 0
 430 704 518 644 518 562 c 0
 518 513 476 478 434 478 c 0
 399 478 364 503 364 537 c 0
 364 565 369.955 583.133 406.5 600 c 0
 413 603 416 609.667 416 615.5 c 0
 416 630.5 380 651 334 651 c 0
 251 651 202.717 593.991 204 508 c 0
 205 441 216.187 401.682 223.437 344 c 0
 235 252 224.524 154.997 186 94 c 5
 246 94 339 72 376 72 c 0
 441 72 474 96 502 162 c 1
 537 147 l 1
 514 42 455 -15 371 -15 c 0
 321 -15 144 18 41 0 c 1
EndSplineSet
Fore
SplineSet
234.062 307 m 1xf4
 240.279 215.669 222.588 142.866 151 81 c 5
 247 100 346 72 383 72 c 0
 448 72 481 96 509 162 c 1
 552 142 l 1
 529 37 472 -15 378 -15 c 0
 328 -15 189 15 49 -8 c 1
 41 66 l 1
 112.635 118.718 120.921 216.839 108.532 307 c 1xf5
 43 307 l 1
 43 372 l 1
 97.1377 372 l 1
 89.1768 419.304 85 465.874 85 506 c 0
 85 624 178.859 704 317.312 704 c 0
 437 704 525 644 525 562 c 0
 525 513 483 478 441 478 c 0
 406 478 371 503 371 537 c 0
 371 565 376.953 583.141 413.5 600 c 0
 420 603 423 609.672 423 615.5 c 0
 423 630.5 387 651 341 651 c 0
 258 651 209.719 593.984 211 508 c 0xfa
 211.83 452.367 219.738 415.824 226.504 372 c 1
 439 372 l 1
 439 307 l 1
 234.062 307 l 1xf4
EndSplineSet
EndChar

StartChar: uni0591
Encoding: 1425 1425 95
Width: 0
VWidth: 1000
Flags: HMW
HStem: -1242.51 172.8<-402.245 -367.685> -983.318 172.8<-402.245 -367.685>
VStem: -471.365 172.802<-1173.4 -1138.84 -916.295 -892.598>
LayerCount: 2
Fore
SplineSet
-28.2354 -140.992 m 1
 -28.2354 -60 l 1
 28.2354 -60 l 1
 28.2354 -140.992 l 1
 80.8652 -153.7 120 -201.132 120 -257.647 c 1
 63.5293 -257.647 l 1
 63.5293 -222.579 35.0684 -194.118 0 -194.118 c 0
 -35.0684 -194.118 -63.5293 -222.579 -63.5293 -257.647 c 1
 -120 -257.647 l 1
 -120 -201.132 -80.8652 -153.7 -28.2354 -140.992 c 1
EndSplineSet
EndChar

StartChar: uni0592
Encoding: 1426 1426 96
Width: 0
VWidth: 1070
Flags: W
HStem: 780 79.998<-5 1>
LayerCount: 2
Fore
SplineSet
-0.000976562 780 m 0
 -22.0811 780 -40.001 797.919 -40.001 819.998 c 0
 -40.001 842.079 -22.0811 859.998 -0.000976562 859.998 c 0
 22.082 859.998 40 842.079 40 819.998 c 0
 40 797.919 22.082 780 -0.000976562 780 c 0
-59.998 660 m 0
 -82.0801 660 -100 677.92 -100 700 c 0
 -100 722.078 -82.0801 740 -59.998 740 c 0
 -37.9189 740 -19.999 722.078 -19.999 700 c 0
 -19.999 677.92 -37.9189 660 -59.998 660 c 0
59.999 660 m 0
 37.9189 660 19.999 677.92 19.999 700 c 0
 19.999 722.078 37.9189 740 59.999 740 c 0
 82.0811 740 100 722.078 100 700 c 0
 100 677.92 82.0811 660 59.999 660 c 0
EndSplineSet
EndChar

StartChar: uni0593
Encoding: 1427 1427 97
Width: 0
VWidth: 1000
Flags: W
LayerCount: 2
Fore
SplineSet
7.05957 914.117 m 1
 91.7646 871.765 l 1
 7.05957 829.411 l 1
 91.7646 787.059 l 1
 7.05957 744.705 l 1
 91.7646 702.354 l 1
 7.05957 660 l 1
 -42.3525 684.705 l 1
 -7.05957 702.354 l 1
 -91.7646 744.705 l 1
 -7.05957 787.059 l 1
 -91.7646 829.411 l 1
 -7.05957 871.765 l 1
 -42.3525 889.411 l 1
 7.05957 914.117 l 1
EndSplineSet
EndChar

StartChar: uni0594
Encoding: 1428 1428 98
Width: 0
VWidth: 1000
Flags: W
LayerCount: 2
Fore
SplineSet
-0.000976562 740 m 4
 22.0771 740 40.001 722.08 40.001 700.002 c 4
 40.001 677.923 22.0771 660 -0.000976562 660 c 4
 -22.0771 660 -40.001 677.923 -40.001 700.002 c 4
 -40.001 722.08 -22.0771 740 -0.000976562 740 c 4
-0.000976562 859.998 m 4
 22.0771 859.998 40.001 842.078 40.001 819.998 c 4
 40.001 797.92 22.0771 779.998 -0.000976562 779.998 c 4
 -22.0771 779.998 -40.001 797.92 -40.001 819.998 c 4
 -40.001 842.078 -22.0771 859.998 -0.000976562 859.998 c 4
EndSplineSet
EndChar

StartChar: uni0595
Encoding: 1429 1429 99
Width: 0
VWidth: 1000
Flags: W
HStem: 660 80<48 56> 779.998 80<48 56>
VStem: -94.002 60.0029<660 864>
LayerCount: 2
Fore
SplineSet
-94.002 864 m 5
 -33.999 863.934 l 261
 -33.999 660 l 5
 -94.002 660.067 l 5
 -94.002 864 l 5
54.001 740 m 0
 76.0781 740 94.002 722.08 94.002 700.002 c 0
 94.002 677.923 76.0781 660 54.001 660 c 0
 31.9238 660 14.001 677.923 14.001 700.002 c 0
 14.001 722.08 31.9238 740 54.001 740 c 0
54.001 859.998 m 0
 76.0781 859.998 94.002 842.078 94.002 819.998 c 0
 94.002 797.92 76.0781 779.998 54.001 779.998 c 0
 31.9238 779.998 14.001 797.92 14.001 819.998 c 0
 14.001 842.078 31.9238 859.998 54.001 859.998 c 0
EndSplineSet
EndChar

StartChar: uni0596
Encoding: 1430 1430 100
Width: 0
VWidth: 1000
Flags: W
LayerCount: 2
Fore
SplineSet
63.6279 -236.471 m 1
 35.3926 -271.766 l 1
 -29.3027 -221.751 -63.6279 -151.827 -63.6279 -70.0537 c 0
 -63.6279 -66.5195 -63.5693 -63.5312 -63.4297 -60 c 1
 -6.95996 -60 l 1
 -4.40723 -128.072 18.5312 -185.417 63.6279 -236.471 c 1
EndSplineSet
EndChar

StartChar: uni0597
Encoding: 1431 1431 101
Width: 0
VWidth: 1000
Flags: W
DStem2: 0 848.235 -70.5889 754.117 0.600002 -0.799998<32.9407 117.648>
LayerCount: 2
Fore
SplineSet
-70.5889 754.117 m 1
 0 848.235 l 5
 70.5889 754.117 l 1
 0 660 l 1
 -70.5889 754.117 l 1
EndSplineSet
EndChar

StartChar: uni0598
Encoding: 1432 1432 102
Width: 0
VWidth: 1000
Flags: W
HStem: 660 46.8711<61 69> 759.601 46.8701<-70 -66>
VStem: -161.117 46.8701<704 714> 114.246 46.8711<751 762>
LayerCount: 2
Fore
SplineSet
99.3828 800 m 1
 148.915 800 l 1
 151.192 795 161.117 777.591 161.117 753.742 c 0
 161.117 701.996 119.121 660 67.377 660 c 0
 25.293 660 -10.3428 687.778 -22.1826 725.985 c 0
 -28.1328 745.409 -46.1074 759.601 -67.377 759.601 c 0
 -93.249 759.601 -114.247 738.604 -114.247 712.729 c 0
 -114.247 697.227 -103.117 675 -95.1172 664 c 1
 -147.458 664 l 1
 -154.06 677 -161.117 690.206 -161.117 712.729 c 0
 -161.117 764.475 -119.121 806.471 -67.377 806.471 c 0
 -24.3936 806.471 12.0195 777.908 23.0654 738.436 c 0
 29.4131 720.071 46.8623 706.871 67.377 706.871 c 0
 93.248 706.871 114.246 727.869 114.246 753.742 c 0
 114.246 768.766 107.883 787.679 99.3828 800 c 1
EndSplineSet
EndChar

StartChar: uni0599
Encoding: 1433 1433 103
Width: 0
VWidth: 1000
Flags: W
LayerCount: 2
Fore
SplineSet
-63.6279 836.471 m 1
 -35.3926 871.766 l 1
 29.3027 821.751 63.6279 751.827 63.6279 670.054 c 0
 63.6279 666.52 63.5693 663.531 63.4297 660 c 1
 6.95996 660 l 1
 4.40723 728.072 -18.5312 785.417 -63.6279 836.471 c 1
EndSplineSet
EndChar

StartChar: uni059A
Encoding: 1434 1434 104
Width: 0
VWidth: 1000
Flags: W
DStem2: -127.059 -158.823 -14.1172 -158.823 0.894428 0.447212<101.018 220.976> -14.1172 -158.823 -127.059 -158.823 0.894426 -0.447216<0 119.958>
LayerCount: 2
Fore
SplineSet
70.5879 -60 m 5
 127.059 -88.2354 l 5
 -14.1172 -158.823 l 5
 127.059 -229.412 l 5
 70.5879 -257.647 l 5
 -127.059 -158.823 l 5
 70.5879 -60 l 5
EndSplineSet
EndChar

StartChar: uni059B
Encoding: 1435 1435 105
Width: 0
VWidth: 1000
Flags: W
HStem: -140.001 80.001<-68 -50>
LayerCount: 2
Fore
SplineSet
-58.834 -60 m 0
 -36.7559 -60 -18.833 -77.9199 -18.833 -100 c 0
 -18.833 -122.078 -36.7559 -140.001 -58.834 -140.001 c 0
 -80.9111 -140.001 -98.834 -122.078 -98.834 -100 c 0
 -98.834 -77.9199 -80.9111 -60 -58.834 -60 c 0
-28.4219 -236.471 m 1
 16.6748 -185.417 39.6133 -128.072 42.166 -60 c 1
 98.6357 -60 l 1
 98.7754 -63.5312 98.834 -66.5195 98.834 -70.0537 c 0
 98.834 -151.827 64.5088 -221.751 -0.186523 -271.766 c 1
 -28.4219 -236.471 l 1
EndSplineSet
EndChar

StartChar: uni059C
Encoding: 1436 1436 106
Width: 0
VWidth: 1000
Flags: W
LayerCount: 2
Fore
SplineSet
63.6279 836.471 m 5
 18.5312 785.417 -4.40723 728.072 -6.95996 660 c 5
 -63.4297 660 l 5
 -63.5693 663.531 -63.6279 666.52 -63.6279 670.054 c 4
 -63.6279 751.827 -29.3027 821.751 35.3926 871.766 c 5
 63.6279 836.471 l 5
EndSplineSet
EndChar

StartChar: uni059D
Encoding: 1437 1437 107
Width: 0
VWidth: 1000
Flags: W
LayerCount: 2
Fore
SplineSet
63.6279 836.471 m 5
 18.5312 785.417 -4.40723 728.072 -6.95996 660 c 5
 -63.4297 660 l 5
 -63.5693 663.531 -63.6279 666.52 -63.6279 670.054 c 4
 -63.6279 751.827 -29.3027 821.751 35.3926 871.766 c 5
 63.6279 836.471 l 5
EndSplineSet
EndChar

StartChar: uni059E
Encoding: 1438 1438 108
Width: 0
VWidth: 1000
Flags: W
LayerCount: 2
Fore
SplineSet
125.294 836.471 m 5
 80.1973 785.417 57.2588 728.072 54.7061 660 c 5
 -1.76367 660 l 5
 -1.90332 663.531 -1.96191 666.52 -1.96191 670.054 c 4
 -1.96191 751.827 32.3633 821.751 97.0586 871.766 c 5
 125.294 836.471 l 5
1.96191 836.471 m 1
 -43.1348 785.417 -66.0732 728.072 -68.626 660 c 1
 -125.096 660 l 1
 -125.235 663.531 -125.294 666.52 -125.294 670.054 c 0
 -125.294 751.827 -90.9688 821.751 -26.2734 871.766 c 1
 1.96191 836.471 l 1
EndSplineSet
EndChar

StartChar: uni059F
Encoding: 1439 1439 109
Width: 0
VWidth: 1000
Flags: W
HStem: 695.294 35.2939<-137 -133 132 140> 815.294 35.2939<-137 -133 132 140>
VStem: -212.03 35.2939<770 774> -92.0303 35.2939<770 774> 56.7354 35.2939<770 774> 176.735 35.2949<770 774>
DStem2: -67.2041 733.997 -95.4395 705.763 0.707104 -0.707109<0 64.7176> 21.4404 688.235 49.6758 660 0.707104 0.707109<0.000162125 64.717>
LayerCount: 2
Fore
SplineSet
134.382 815.294 m 0
 111.003 815.294 92.0293 796.32 92.0293 772.941 c 0
 92.0293 749.562 111.003 730.588 134.382 730.588 c 0
 157.761 730.588 176.735 749.562 176.735 772.941 c 0
 176.735 796.32 157.761 815.294 134.382 815.294 c 0
95.4385 705.763 m 1
 49.6758 660 l 1
 21.4404 688.235 l 1
 67.2021 733.997 l 1
 60.5479 745.447 56.7354 758.752 56.7354 772.941 c 0
 56.7354 815.803 91.5205 850.588 134.382 850.588 c 0
 177.242 850.588 212.03 815.803 212.03 772.941 c 0
 212.03 730.08 177.242 695.294 134.382 695.294 c 0
 120.192 695.294 106.89 699.106 95.4385 705.763 c 1
-134.383 815.294 m 0
 -157.762 815.294 -176.736 796.32 -176.736 772.941 c 0
 -176.736 749.562 -157.762 730.588 -134.383 730.588 c 0
 -111.005 730.588 -92.0303 749.562 -92.0303 772.941 c 0
 -92.0303 796.32 -111.005 815.294 -134.383 815.294 c 0
-95.4395 705.763 m 1
 -106.89 699.106 -120.193 695.294 -134.383 695.294 c 0
 -177.244 695.294 -212.03 730.08 -212.03 772.941 c 0
 -212.03 815.803 -177.244 850.588 -134.383 850.588 c 0
 -91.5215 850.588 -56.7363 815.803 -56.7363 772.941 c 0
 -56.7363 758.752 -60.5498 745.447 -67.2041 733.997 c 1
 -21.4414 688.235 l 1
 -49.6768 660 l 1
 -95.4395 705.763 l 1
EndSplineSet
EndChar

StartChar: uni05A0
Encoding: 1440 1440 110
Width: 0
VWidth: 1000
Flags: W
HStem: 695.294 35.2939<15 19> 815.294 35.2939<15 19>
VStem: -60 35.2939<770 774> 60 35.2949<770 774>
DStem2: -95.2949 688.235 -67.0596 660 0.707105 0.707109<9.15527e-05 64.7178>
LayerCount: 2
Fore
SplineSet
17.6465 815.294 m 0
 -5.73242 815.294 -24.7061 796.32 -24.7061 772.941 c 0
 -24.7061 749.562 -5.73242 730.588 17.6465 730.588 c 0
 41.0254 730.588 60 749.562 60 772.941 c 0
 60 796.32 41.0254 815.294 17.6465 815.294 c 0
-21.2969 705.763 m 1
 -67.0596 660 l 1
 -95.2949 688.235 l 1
 -49.5322 733.997 l 1
 -56.1875 745.447 -60 758.752 -60 772.941 c 0
 -60 815.803 -25.2148 850.588 17.6465 850.588 c 0
 60.5078 850.588 95.2949 815.803 95.2949 772.941 c 0
 95.2949 730.08 60.5078 695.294 17.6465 695.294 c 0
 3.45703 695.294 -9.8457 699.106 -21.2969 705.763 c 1
EndSplineSet
EndChar

StartChar: uni05A1
Encoding: 1441 1441 111
Width: 0
VWidth: 1000
Flags: W
HStem: 707.059 56.9414<-31.669 -20.3563>
VStem: -88.2334 56.4688<660 707 764 821> 31.7646 56.4707<819 827>
LayerCount: 2
Fore
SplineSet
-31.7646 707.059 m 9
 -31.7627 660 l 1
 -88.2334 660 l 1
 -88.2354 826.765 l 1
 -31.7646 826.765 l 1
 -31.7354 764 l 17
 3.33301 764 31.7646 791.99 31.7646 827.059 c 1
 88.2354 827.059 l 1
 88.2354 760.818 34.4756 707.059 -31.7646 707.059 c 9
EndSplineSet
EndChar

StartChar: uni05A3
Encoding: 1443 1443 112
Width: 0
VWidth: 1070
Flags: W
HStem: -260 60.001<-117 56>
VStem: 56.998 60.001<-200 -67>
LayerCount: 2
Fore
SplineSet
-117 -260 m 257
 -117 -199.999 l 257
 56.998 -199.999 l 261
 56.998 -60.0068 l 261
 117 -60.0068 l 261
 116.999 -260 l 5
 -117 -260 l 257
EndSplineSet
EndChar

StartChar: uni05A4
Encoding: 1444 1444 113
Width: 0
VWidth: 1000
Flags: W
DStem2: -127.059 -158.823 -14.1172 -158.823 0.894428 0.447212<101.018 220.976> -14.1172 -158.823 -127.059 -158.823 0.894426 -0.447216<0 119.958>
LayerCount: 2
Fore
SplineSet
70.5879 -60 m 5
 127.059 -88.2354 l 5
 -14.1172 -158.823 l 5
 127.059 -229.412 l 5
 70.5879 -257.647 l 5
 -127.059 -158.823 l 5
 70.5879 -60 l 5
EndSplineSet
EndChar

StartChar: uni05A5
Encoding: 1445 1445 114
Width: 0
VWidth: 1000
Flags: W
LayerCount: 2
Fore
SplineSet
-63.6279 -236.471 m 1
 -18.5312 -185.417 4.40723 -128.072 6.95996 -60 c 1
 63.4297 -60 l 1
 63.5693 -63.5312 63.6279 -66.5195 63.6279 -70.0537 c 0
 63.6279 -151.827 29.3027 -221.751 -35.3926 -271.766 c 1
 -63.6279 -236.471 l 1
EndSplineSet
EndChar

StartChar: uni05A6
Encoding: 1446 1446 115
Width: 0
VWidth: 1000
Flags: W
LayerCount: 2
Fore
SplineSet
-125.294 -236.471 m 5
 -80.1973 -185.417 -57.2588 -128.072 -54.7061 -60 c 5
 1.76367 -60 l 5
 1.90332 -63.5312 1.96191 -66.5195 1.96191 -70.0537 c 4
 1.96191 -151.827 -32.3633 -221.751 -97.0586 -271.766 c 5
 -125.294 -236.471 l 5
-1.96191 -236.471 m 5
 43.1348 -185.417 66.0732 -128.072 68.626 -60 c 5
 125.096 -60 l 5
 125.235 -63.5312 125.294 -66.5195 125.294 -70.0537 c 4
 125.294 -151.827 90.9688 -221.751 26.2734 -271.766 c 5
 -1.96191 -236.471 l 5
EndSplineSet
EndChar

StartChar: uni05A7
Encoding: 1447 1447 116
Width: 0
VWidth: 1000
Flags: W
HStem: -257.647 56.4707<-79 7> -116.471 56.4707<5 77>
DStem2: -7.05957 -116.471 -91.7656 -116.471 0.759255 -0.650793<0 65.8446>
LayerCount: 2
Fore
SplineSet
77.6465 -60 m 5
 105.883 -116.471 l 5
 -7.05957 -116.471 l 5
 91.7637 -201.177 l 5
 63.5283 -257.647 l 5
 -77.6475 -257.647 l 5
 -105.883 -201.177 l 5
 7.05762 -201.177 l 5
 -91.7656 -116.471 l 5
 -63.5303 -60 l 5
 77.6465 -60 l 5
EndSplineSet
EndChar

StartChar: uni05A8
Encoding: 1448 1448 117
Width: 0
VWidth: 1000
Flags: W
LayerCount: 2
Fore
SplineSet
-63.6279 836.471 m 1
 -35.3926 871.766 l 1
 29.3027 821.751 63.6279 751.827 63.6279 670.054 c 0
 63.6279 666.52 63.5693 663.531 63.4297 660 c 1
 6.95996 660 l 1
 4.40723 728.072 -18.5312 785.417 -63.6279 836.471 c 1
EndSplineSet
EndChar

StartChar: uni05A9
Encoding: 1449 1449 118
Width: 0
VWidth: 1000
Flags: W
HStem: 695.294 35.2939<-20 -16> 815.294 35.2939<-20 -16>
VStem: -95.2949 35.2939<770 774> 24.7051 35.2939<770 774>
DStem2: 49.5312 733.997 21.2969 705.763 0.70712 -0.707094<0 64.7175>
LayerCount: 2
Fore
SplineSet
-17.6475 815.294 m 0
 -41.0264 815.294 -60.001 796.32 -60.001 772.941 c 0
 -60.001 749.562 -41.0264 730.588 -17.6475 730.588 c 0
 5.73145 730.588 24.7051 749.562 24.7051 772.941 c 0
 24.7051 796.32 5.73145 815.294 -17.6475 815.294 c 0
21.2969 705.763 m 1
 9.84668 699.106 -3.45801 695.294 -17.6475 695.294 c 0
 -60.5088 695.294 -95.2949 730.08 -95.2949 772.941 c 0
 -95.2949 815.803 -60.5088 850.588 -17.6475 850.588 c 0
 25.2148 850.588 59.999 815.803 59.999 772.941 c 0
 59.999 758.752 56.1865 745.447 49.5312 733.997 c 1
 95.2949 688.235 l 1
 67.0596 660 l 1
 21.2969 705.763 l 1
EndSplineSet
EndChar

StartChar: uni05AA
Encoding: 1450 1450 119
Width: 0
VWidth: 1000
Flags: W
HStem: -180 56.471<-50.1364 50.1364>
VStem: -120 56.4707<-109.37 -60> 63.5293 56.4707<-109.37 -60>
LayerCount: 2
Back
SplineSet
-120 -60 m 4
 -120 6.24 -66.24 60 0 60 c 0
 66.24 60 120 6.24 120 -60 c 4
 120 -126.24 66.24 -180 0 -180 c 4
 -66.24 -180 -120 -126.24 -120 -60 c 4
EndSplineSet
Fore
SplineSet
-120 -60 m 1
 -63.5293 -60 l 1
 -63.5293 -95.0684 -35.0684 -123.529 0 -123.529 c 0
 35.0684 -123.529 63.5293 -95.0684 63.5293 -60 c 1
 120 -60 l 0
 120 -126.24 66.24 -180 0 -180 c 0
 -66.24 -180 -120 -126.24 -120 -60 c 1
EndSplineSet
EndChar

StartChar: uni05AB
Encoding: 1451 1451 120
Width: 0
VWidth: 1000
Flags: W
DStem2: -127.059 758.824 -14.1172 758.824 0.89443 0.447208<101.019 220.975> -14.1172 758.824 -127.059 758.824 0.894426 -0.447215<0 119.958>
LayerCount: 2
Fore
SplineSet
70.5879 857.646 m 5
 127.059 829.412 l 5
 -14.1172 758.824 l 5
 127.059 688.235 l 5
 70.5879 660 l 5
 -127.059 758.824 l 5
 70.5879 857.646 l 5
EndSplineSet
EndChar

StartChar: uni05AC
Encoding: 1452 1452 121
Width: 0
VWidth: 1070
Flags: W
HStem: 660 60.001<-117 56>
VStem: 56.998 60.001<720 853>
LayerCount: 2
Fore
SplineSet
-117 660 m 261
 -117 720.001 l 261
 56.998 720.001 l 261
 56.998 859.993 l 261
 117 859.993 l 261
 116.999 660 l 5
 -117 660 l 261
EndSplineSet
EndChar

StartChar: uni05AD
Encoding: 1453 1453 122
Width: 0
VWidth: 1000
Flags: W
LayerCount: 2
Fore
SplineSet
63.6279 -236.471 m 1
 35.3926 -271.766 l 1
 -29.3027 -221.751 -63.6279 -151.827 -63.6279 -70.0537 c 0
 -63.6279 -66.5195 -63.5693 -63.5312 -63.4297 -60 c 1
 -6.95996 -60 l 1
 -4.40723 -128.072 18.5312 -185.417 63.6279 -236.471 c 1
EndSplineSet
EndChar

StartChar: uni05AE
Encoding: 1454 1454 123
Width: 0
VWidth: 1000
Flags: W
HStem: 660 46.8711<61 69> 759.601 46.8701<-70 -66>
VStem: -161.117 46.8701<704 714> 114.246 46.8711<751 762>
LayerCount: 2
Fore
SplineSet
99.3828 800 m 1
 148.915 800 l 1
 151.192 795 161.117 777.591 161.117 753.742 c 0
 161.117 701.996 119.121 660 67.377 660 c 0
 25.293 660 -10.3428 687.778 -22.1826 725.985 c 0
 -28.1328 745.409 -46.1074 759.601 -67.377 759.601 c 0
 -93.249 759.601 -114.247 738.604 -114.247 712.729 c 0
 -114.247 697.227 -103.117 675 -95.1172 664 c 1
 -147.458 664 l 1
 -154.06 677 -161.117 690.206 -161.117 712.729 c 0
 -161.117 764.475 -119.121 806.471 -67.377 806.471 c 0
 -24.3936 806.471 12.0195 777.908 23.0654 738.436 c 0
 29.4131 720.071 46.8623 706.871 67.377 706.871 c 0
 93.248 706.871 114.246 727.869 114.246 753.742 c 0
 114.246 768.766 107.883 787.679 99.3828 800 c 1
EndSplineSet
EndChar

StartChar: uni05AF
Encoding: 1455 1455 124
Width: 0
VWidth: 1000
Flags: W
HStem: 660 49.4121<-4 2> 808.235 49.4111<-4 2>
VStem: -98.8232 49.4111<755 761> 49.4121 49.4111<755 761>
LayerCount: 2
Back
SplineSet
98.8242 801.177 m 4
 75.4453 801.177 56.4707 782.203 56.4707 758.824 c 4
 56.4707 735.445 75.4453 716.471 98.8242 716.471 c 4
 122.203 716.471 141.177 735.445 141.177 758.824 c 4
 141.177 782.203 122.203 801.177 98.8242 801.177 c 4
98.8242 857.647 m 4
 153.375 857.647 197.647 813.374 197.647 758.824 c 4
 197.647 704.273 153.375 660 98.8242 660 c 4
 44.2734 660 0 704.273 0 758.824 c 4
 0 813.374 44.2734 857.647 98.8242 857.647 c 4
EndSplineSet
Fore
SplineSet
0 808.235 m 0
 -27.2754 808.235 -49.4121 786.099 -49.4121 758.823 c 4
 -49.4121 731.548 -27.2754 709.412 0 709.412 c 4
 27.2754 709.412 49.4121 731.548 49.4121 758.823 c 4
 49.4121 786.099 27.2754 808.235 0 808.235 c 0
0 857.646 m 0
 54.5508 857.646 98.8232 813.374 98.8232 758.823 c 4
 98.8232 704.273 54.5508 660 0 660 c 4
 -54.5508 660 -98.8232 704.273 -98.8232 758.823 c 4
 -98.8232 813.374 -54.5508 857.646 0 857.646 c 0
EndSplineSet
EndChar

StartChar: afii57799
Encoding: 1456 1456 125
Width: 0
VWidth: 1000
Flags: W
AnchorPoint: "DiaToBase1" 0 0 mark 0
LayerCount: 2
Fore
SplineSet
-0.000976562 -179.998 m 0
 22.0771 -179.998 40.001 -197.918 40.001 -219.996 c 0
 40.001 -242.075 22.0771 -259.998 -0.000976562 -259.998 c 4
 -22.0771 -259.998 -40.001 -242.075 -40.001 -219.996 c 0
 -40.001 -197.918 -22.0771 -179.998 -0.000976562 -179.998 c 0
-0.000976562 -60 m 0
 22.0771 -60 40.001 -77.9199 40.001 -100 c 0
 40.001 -122.078 22.0771 -140 -0.000976562 -140 c 0
 -22.0771 -140 -40.001 -122.078 -40.001 -100 c 0
 -40.001 -77.9199 -22.0771 -60 -0.000976562 -60 c 0
EndSplineSet
EndChar

StartChar: afii57801
Encoding: 1457 1457 126
Width: 0
VWidth: 1070
Flags: HW
HStem: -259.998 79.998<-75 -68 121.028 135>
VStem: -170 80.001<-108.971 -97> -109.999 80.001<-229 -211> -50 80.002<-108.971 -97> 90 80<-229 -211 -108.971 -97>
AnchorPoint: "DiaToBase3" 0 0 mark 0
LayerCount: 2
Fore
SplineSet
-64.9971 -180 m 0
 -42.9189 -180 -24.998 -197.919 -24.998 -219.998 c 0
 -24.998 -242.079 -42.9189 -259.998 -64.9971 -259.998 c 0
 -87.0801 -259.998 -104.999 -242.079 -104.999 -219.998 c 0
 -104.999 -197.919 -87.0801 -180 -64.9971 -180 c 0
-124.998 -60 m 0
 -102.917 -60 -84.999 -77.9199 -84.999 -100 c 0
 -84.999 -122.078 -102.917 -140 -124.998 -140 c 0
 -147.08 -140 -165 -122.078 -165 -100 c 0
 -165 -77.9199 -147.08 -60 -124.998 -60 c 0
-5.00098 -60 m 0
 17.0811 -60 35.002 -77.9199 35.002 -100 c 0
 35.002 -122.078 17.0811 -140 -5.00098 -140 c 0
 -27.0801 -140 -45 -122.078 -45 -100 c 0
 -45 -77.9199 -27.0801 -60 -5.00098 -60 c 0
125.001 -180 m 4
 147.08 -180 165 -197.919 165 -219.998 c 4
 165 -242.079 147.08 -259.998 125.001 -259.998 c 4
 102.923 -259.998 85 -242.079 85 -219.998 c 4
 85 -197.919 102.923 -180 125.001 -180 c 4
125.001 -60 m 4
 147.08 -60 165 -77.9199 165 -100 c 4
 165 -122.078 147.08 -140 125.001 -140 c 4
 102.923 -140 85 -122.078 85 -100 c 4
 85 -77.9199 102.923 -60 125.001 -60 c 4
EndSplineSet
EndChar

StartChar: afii57800
Encoding: 1458 1458 127
Width: 0
VWidth: 1070
Flags: W
HStem: -259.998 79.998<87.4297 162.572> -140 80<87.4297 162.572> -130 60<-165 35.002>
VStem: 85.001 79.999<-257.57 -182.428 -137.571 -62.4285>
AnchorPoint: "DiaToBase3" 0 0 mark 0
LayerCount: 2
Fore
SplineSet
-165 -70 m 1xb0
 35.002 -70 l 1
 35.002 -130 l 1
 -165 -130 l 1
 -165 -70 l 1xb0
125.001 -60 m 0xd0
 147.082 -60 165 -77.9199 165 -100 c 0
 165 -122.078 147.082 -140 125.001 -140 c 0
 102.923 -140 85.001 -122.078 85.001 -100 c 0
 85.001 -77.9199 102.923 -60 125.001 -60 c 0xd0
125.001 -180 m 0
 147.082 -180 165 -197.919 165 -219.998 c 0
 165 -242.079 147.082 -259.998 125.001 -259.998 c 0
 102.923 -259.998 85.001 -242.079 85.001 -219.998 c 0
 85.001 -197.919 102.923 -180 125.001 -180 c 0
EndSplineSet
EndChar

StartChar: afii57802
Encoding: 1459 1459 128
Width: 0
VWidth: 1070
Flags: HW
HStem: -259.998 79.998<121.028 135> -120 60<-170 -100 -40 23>
VStem: -99.998 59.999<-225 -120> 90.001 79.999<-229 -211 -108.971 -97>
AnchorPoint: "DiaToBase3" 0 0 mark 0
LayerCount: 2
Fore
SplineSet
-165 -70 m 261
 35.002 -70 l 261
 35.002 -130 l 261
 -34.999 -130 l 261
 -34.999 -248.999 l 257
 -94.998 -248.999 l 257
 -94.998 -130 l 261
 -165 -130 l 261
 -165 -70 l 261
125.001 -60 m 0
 147.082 -60 165 -77.9199 165 -100 c 0
 165 -122.078 147.082 -140 125.001 -140 c 0
 102.923 -140 85.001 -122.078 85.001 -100 c 0
 85.001 -77.9199 102.923 -60 125.001 -60 c 0
125.001 -180 m 0
 147.082 -180 165 -197.919 165 -219.998 c 0
 165 -242.079 147.082 -259.998 125.001 -259.998 c 0
 102.923 -259.998 85.001 -242.079 85.001 -219.998 c 0
 85.001 -197.919 102.923 -180 125.001 -180 c 0
EndSplineSet
EndChar

StartChar: afii57793
Encoding: 1460 1460 129
Width: 0
VWidth: 1000
Flags: W
AnchorPoint: "DiaToBase1" 0 0 mark 0
LayerCount: 2
Fore
SplineSet
-0.000976562 -60 m 4
 22.0771 -60 40.001 -77.9199 40.001 -100 c 4
 40.001 -122.078 22.0771 -140.001 -0.000976562 -140.001 c 4
 -22.0771 -140.001 -40.001 -122.078 -40.001 -100 c 4
 -40.001 -77.9199 -22.0771 -60 -0.000976562 -60 c 4
EndSplineSet
EndChar

StartChar: afii57794
Encoding: 1461 1461 130
Width: 0
VWidth: 1070
Flags: W
VStem: -100 80<-103 -92>
AnchorPoint: "DiaToBase2" 0 0 mark 0
LayerCount: 2
Fore
SplineSet
-59.999 -60 m 4
 -37.9189 -60 -20 -77.9199 -20 -100.001 c 260
 -20 -122.079 -37.9189 -140.003 -59.999 -140.003 c 4
 -82.0811 -140.003 -100 -122.079 -100 -100.001 c 4
 -100 -77.9199 -82.0811 -60 -59.999 -60 c 4
59.998 -60 m 4
 82.0801 -60 100 -77.9199 100 -100.001 c 4
 100 -122.079 82.0801 -140.003 59.998 -140.003 c 4
 37.9189 -140.003 19.999 -122.079 19.999 -100.001 c 4
 19.999 -77.9199 37.9189 -60 59.998 -60 c 4
EndSplineSet
EndChar

StartChar: afii57795
Encoding: 1462 1462 131
Width: 0
VWidth: 1070
Flags: W
HStem: -259.998 79.998<-5 1>
AnchorPoint: "DiaToBase2" 0 0 mark 0
LayerCount: 2
Fore
SplineSet
-0.000976562 -180 m 4
 22.082 -180 40 -197.919 40 -219.998 c 4
 40 -242.079 22.082 -259.998 -0.000976562 -259.998 c 4
 -22.0811 -259.998 -40.001 -242.079 -40.001 -219.998 c 4
 -40.001 -197.919 -22.0811 -180 -0.000976562 -180 c 4
-59.998 -60 m 4
 -37.9189 -60 -19.999 -77.9199 -19.999 -100 c 4
 -19.999 -122.078 -37.9189 -140 -59.998 -140 c 4
 -82.0801 -140 -100 -122.078 -100 -100 c 4
 -100 -77.9199 -82.0801 -60 -59.998 -60 c 4
59.999 -60 m 4
 82.0811 -60 100 -77.9199 100 -100 c 4
 100 -122.078 82.0811 -140 59.999 -140 c 4
 37.9189 -140 19.999 -122.078 19.999 -100 c 4
 19.999 -77.9199 37.9189 -60 59.999 -60 c 4
EndSplineSet
EndChar

StartChar: afii57798
Encoding: 1463 1463 132
Width: 0
VWidth: 1070
Flags: W
HStem: -130.002 60.002<-100 100>
VStem: -100 200<-130.002 -70>
AnchorPoint: "DiaToBase2" 0 0 mark 0
LayerCount: 2
Fore
SplineSet
-100 -70 m 1
 100 -70 l 1
 100 -130.002 l 1
 -100 -130.002 l 1
 -100 -70 l 1
EndSplineSet
EndChar

StartChar: afii57797
Encoding: 1464 1464 133
Width: 0
VWidth: 1070
Flags: W
HStem: -130.001 60.001<-100 -30.001 30.001 100>
VStem: -30.001 60.002<-235 -130.001>
AnchorPoint: "DiaToBase2" 0 0 mark 0
LayerCount: 2
Fore
SplineSet
-100 -70 m 261
 100 -70 l 261
 100 -130.001 l 261
 30.001 -130.001 l 261
 30.001 -235 l 261
 -30.001 -235 l 261
 -30.001 -130.001 l 261
 -100 -130.001 l 261
 -100 -70 l 261
EndSplineSet
EndChar

StartChar: afii57806
Encoding: 1465 1465 134
Width: 0
VWidth: 1000
Flags: W
AnchorPoint: "DiaToBaseO" 0 0 mark 0
LayerCount: 2
Fore
SplineSet
-0.000976562 740 m 4
 22.0791 740 40.001 722.079 40.001 700 c 0
 40.001 677.922 22.0791 660 -0.000976562 660 c 0
 -22.0801 660 -40.001 677.922 -40.001 700 c 0
 -40.001 722.079 -22.0801 740 -0.000976562 740 c 4
EndSplineSet
EndChar

StartChar: afii57796
Encoding: 1467 1467 135
Width: 0
VWidth: 1070
Flags: W
HStem: -259.999 79.999<72.4322 147.572> -199.999 80.003<-37.5703 37.5723> -140 80<-147.571 -72.4274>
VStem: -150 80.001<-137.571 -62.4284> -39.999 80<-197.571 -122.425> 70.0039 79.9961<-257.57 -182.428>
AnchorPoint: "DiaToBaseU" 0 0 mark 0
LayerCount: 2
Back
SplineSet
120.002 -180 m 0
 142.081 -180 160 -197.919 160 -219.998 c 0
 160 -242.078 142.081 -259.999 120.002 -259.999 c 0
 97.9229 -259.999 80.0039 -242.078 80.0039 -219.998 c 0
 80.0039 -197.919 97.9229 -180 120.002 -180 c 0
0.000976562 -119.996 m 0
 22.0791 -119.996 40.001 -137.919 40.001 -159.998 c 0
 40.001 -182.08 22.0791 -199.999 0.000976562 -199.999 c 0
 -22.0771 -199.999 -39.999 -182.08 -39.999 -159.998 c 0
 -39.999 -137.919 -22.0771 -119.996 0.000976562 -119.996 c 0
-119.998 -60 m 0
 -97.9189 -60 -79.999 -77.9199 -79.999 -99.999 c 0
 -79.999 -122.078 -97.9189 -140 -119.998 -140 c 0
 -142.078 -140 -160 -122.078 -160 -99.999 c 0
 -160 -77.9199 -142.078 -60 -119.998 -60 c 0
EndSplineSet
Fore
SplineSet
110.002 -180 m 0x9c
 132.081 -180 150 -197.919 150 -219.998 c 0
 150 -242.078 132.081 -259.999 110.002 -259.999 c 0
 87.9229 -259.999 70.0039 -242.078 70.0039 -219.998 c 0
 70.0039 -197.919 87.9229 -180 110.002 -180 c 0x9c
0.000976562 -119.996 m 0x5c
 22.0791 -119.996 40.001 -137.919 40.001 -159.998 c 0
 40.001 -182.08 22.0791 -199.999 0.000976562 -199.999 c 0
 -22.0771 -199.999 -39.999 -182.08 -39.999 -159.998 c 0
 -39.999 -137.919 -22.0771 -119.996 0.000976562 -119.996 c 0x5c
-109.998 -60 m 0x3c
 -87.9189 -60 -69.999 -77.9199 -69.999 -99.999 c 0
 -69.999 -122.078 -87.9189 -140 -109.998 -140 c 0
 -132.078 -140 -150 -122.078 -150 -99.999 c 0
 -150 -77.9199 -132.078 -60 -109.998 -60 c 0x3c
EndSplineSet
EndChar

StartChar: afii57807
Encoding: 1468 1468 136
Width: 0
VWidth: 1000
Flags: W
AnchorPoint: "DiaToBaseD" 0 0 mark 0
LayerCount: 2
Fore
SplineSet
-0.000976562 339.456 m 0
 22.0771 339.456 40.001 321.534 40.001 299.456 c 0
 40.001 277.378 22.0771 259.456 -0.000976562 259.456 c 0
 -22.0771 259.456 -40.001 277.378 -40.001 299.456 c 0
 -40.001 321.534 -22.0771 339.456 -0.000976562 339.456 c 0
EndSplineSet
EndChar

StartChar: afii57839
Encoding: 1469 1469 137
Width: 0
VWidth: 1070
Flags: W
VStem: -30.001 60.002<-264 -60>
LayerCount: 2
Fore
SplineSet
-30.001 -60 m 5
 30.001 -60.0664 l 5
 30.001 -264 l 5
 -30.001 -263.933 l 5
 -30.001 -60 l 5
EndSplineSet
EndChar

StartChar: afii57645
Encoding: 1470 1470 138
Width: 432
VWidth: 1000
Flags: W
HStem: 453 147.001<64.4568 373.98>
VStem: 63.2178 312.026
LayerCount: 2
Back
SplineSet
349.46 580 m 2
 330.825 473 l 2
 329.229 463.84 326.402 458 311.812 458 c 2
 55.8115 458 l 2
 40.3115 458 38.4521 462.817 40.8828 478 c 2
 58.0098 585 l 2
 59.5615 594.7 62.2949 600 76.8115 600 c 2
 334.812 600 l 2
 350.312 600 352.023 594.725 349.46 580 c 2
EndSplineSet
Fore
SplineSet
375.244 493 m 2
 375.257 458.052 357.244 453 343.244 453 c 2
 95.2178 453 l 2
 81.2178 453 63.2314 458.052 63.2178 493 c 2
 63.1914 560.001 l 6
 63.1787 594.948 81.1914 600.001 95.1914 600.001 c 6
 343.219 600.001 l 6
 357.219 600.001 375.205 594.948 375.219 560.001 c 6
 375.244 493 l 2
EndSplineSet
PairPos2: "'kern' Horizontal Kerning in Hebrew lookup 0 subtable" uniE804 dx=10 dy=0 dh=10 dv=0 dx=0 dy=0 dh=0 dv=0
PairPos2: "'kern' Horizontal Kerning in Hebrew lookup 0 subtable" uniE803 dx=15 dy=0 dh=15 dv=0 dx=0 dy=0 dh=0 dv=0
PairPos2: "'kern' Horizontal Kerning in Hebrew lookup 0 subtable" uniE802 dx=15 dy=0 dh=15 dv=0 dx=0 dy=0 dh=0 dv=0
PairPos2: "'kern' Horizontal Kerning in Hebrew lookup 0 subtable" uniFB1D dx=10 dy=0 dh=10 dv=0 dx=0 dy=0 dh=0 dv=0
PairPos2: "'kern' Horizontal Kerning in Hebrew lookup 0 subtable" uniFB2D dx=15 dy=0 dh=15 dv=0 dx=0 dy=0 dh=0 dv=0
PairPos2: "'kern' Horizontal Kerning in Hebrew lookup 0 subtable" uniFB2C dx=15 dy=0 dh=15 dv=0 dx=0 dy=0 dh=0 dv=0
PairPos2: "'kern' Horizontal Kerning in Hebrew lookup 0 subtable" uniFB45 dx=15 dy=0 dh=15 dv=0 dx=0 dy=0 dh=0 dv=0
PairPos2: "'kern' Horizontal Kerning in Hebrew lookup 0 subtable" uniFB42 dx=20 dy=0 dh=20 dv=0 dx=0 dy=0 dh=0 dv=0
PairPos2: "'kern' Horizontal Kerning in Hebrew lookup 0 subtable" uniFB3F dx=15 dy=0 dh=15 dv=0 dx=0 dy=0 dh=0 dv=0
PairPos2: "'kern' Horizontal Kerning in Hebrew lookup 0 subtable" afii57718 dx=10 dy=0 dh=10 dv=0 dx=0 dy=0 dh=0 dv=0
PairPos2: "'kern' Horizontal Kerning in Hebrew lookup 0 subtable" afii57705 dx=10 dy=0 dh=10 dv=0 dx=0 dy=0 dh=0 dv=0
PairPos2: "'kern' Horizontal Kerning in Hebrew lookup 0 subtable" afii57717 dx=10 dy=0 dh=10 dv=0 dx=0 dy=0 dh=0 dv=0
PairPos2: "'kern' Horizontal Kerning in Hebrew lookup 0 subtable" uniFB49 dx=15 dy=0 dh=15 dv=0 dx=0 dy=0 dh=0 dv=0
PairPos2: "'kern' Horizontal Kerning in Hebrew lookup 0 subtable" afii57695 dx=15 dy=0 dh=15 dv=0 dx=0 dy=0 dh=0 dv=0
PairPos2: "'kern' Horizontal Kerning in Hebrew lookup 0 subtable" afii57694 dx=15 dy=0 dh=15 dv=0 dx=0 dy=0 dh=0 dv=0
PairPos2: "'kern' Horizontal Kerning in Hebrew lookup 0 subtable" afii57689 dx=15 dy=0 dh=15 dv=0 dx=0 dy=0 dh=0 dv=0
PairPos2: "'kern' Horizontal Kerning in Hebrew lookup 0 subtable" uniFB48 dx=25 dy=0 dh=25 dv=0 dx=0 dy=0 dh=0 dv=0
PairPos2: "'kern' Horizontal Kerning in Hebrew lookup 0 subtable" afii57688 dx=25 dy=0 dh=25 dv=0 dx=0 dy=0 dh=0 dv=0
PairPos2: "'kern' Horizontal Kerning in Hebrew lookup 0 subtable" uniFB47 dx=20 dy=0 dh=20 dv=0 dx=0 dy=0 dh=0 dv=0
PairPos2: "'kern' Horizontal Kerning in Hebrew lookup 0 subtable" afii57687 dx=20 dy=0 dh=20 dv=0 dx=0 dy=0 dh=0 dv=0
PairPos2: "'kern' Horizontal Kerning in Hebrew lookup 0 subtable" afii57685 dx=15 dy=0 dh=15 dv=0 dx=0 dy=0 dh=0 dv=0
PairPos2: "'kern' Horizontal Kerning in Hebrew lookup 0 subtable" uniFB43 dx=-10 dy=0 dh=-10 dv=0 dx=0 dy=0 dh=0 dv=0
PairPos2: "'kern' Horizontal Kerning in Hebrew lookup 0 subtable" afii57683 dx=-10 dy=0 dh=-10 dv=0 dx=0 dy=0 dh=0 dv=0
PairPos2: "'kern' Horizontal Kerning in Hebrew lookup 0 subtable" afii57682 dx=20 dy=0 dh=20 dv=0 dx=0 dy=0 dh=0 dv=0
PairPos2: "'kern' Horizontal Kerning in Hebrew lookup 0 subtable" uniFB41 dx=-10 dy=0 dh=-10 dv=0 dx=0 dy=0 dh=0 dv=0
PairPos2: "'kern' Horizontal Kerning in Hebrew lookup 0 subtable" afii57681 dx=-10 dy=0 dh=-10 dv=0 dx=0 dy=0 dh=0 dv=0
PairPos2: "'kern' Horizontal Kerning in Hebrew lookup 0 subtable" uniFB40 dx=-20 dy=0 dh=-20 dv=0 dx=0 dy=0 dh=0 dv=0
PairPos2: "'kern' Horizontal Kerning in Hebrew lookup 0 subtable" afii57680 dx=-20 dy=0 dh=-20 dv=0 dx=0 dy=0 dh=0 dv=0
PairPos2: "'kern' Horizontal Kerning in Hebrew lookup 0 subtable" afii57679 dx=15 dy=0 dh=15 dv=0 dx=0 dy=0 dh=0 dv=0
PairPos2: "'kern' Horizontal Kerning in Hebrew lookup 0 subtable" uniFB3E dx=-10 dy=0 dh=-10 dv=0 dx=0 dy=0 dh=0 dv=0
PairPos2: "'kern' Horizontal Kerning in Hebrew lookup 0 subtable" afii57678 dx=-10 dy=0 dh=-10 dv=0 dx=0 dy=0 dh=0 dv=0
PairPos2: "'kern' Horizontal Kerning in Hebrew lookup 0 subtable" uniFB3C dx=15 dy=0 dh=15 dv=0 dx=0 dy=0 dh=0 dv=0
PairPos2: "'kern' Horizontal Kerning in Hebrew lookup 0 subtable" uniFB25 dx=15 dy=0 dh=15 dv=0 dx=0 dy=0 dh=0 dv=0
PairPos2: "'kern' Horizontal Kerning in Hebrew lookup 0 subtable" afii57676 dx=15 dy=0 dh=15 dv=0 dx=0 dy=0 dh=0 dv=0
PairPos2: "'kern' Horizontal Kerning in Hebrew lookup 0 subtable" uniFB3A dx=15 dy=0 dh=15 dv=0 dx=0 dy=0 dh=0 dv=0
PairPos2: "'kern' Horizontal Kerning in Hebrew lookup 0 subtable" afii57674 dx=15 dy=0 dh=15 dv=0 dx=0 dy=0 dh=0 dv=0
PairPos2: "'kern' Horizontal Kerning in Hebrew lookup 0 subtable" uniFB39 dx=10 dy=0 dh=10 dv=0 dx=0 dy=0 dh=0 dv=0
PairPos2: "'kern' Horizontal Kerning in Hebrew lookup 0 subtable" afii57673 dx=10 dy=0 dh=10 dv=0 dx=0 dy=0 dh=0 dv=0
PairPos2: "'kern' Horizontal Kerning in Hebrew lookup 0 subtable" uniFB38 dx=10 dy=0 dh=10 dv=0 dx=0 dy=0 dh=0 dv=0
PairPos2: "'kern' Horizontal Kerning in Hebrew lookup 0 subtable" afii57672 dx=10 dy=0 dh=10 dv=0 dx=0 dy=0 dh=0 dv=0
PairPos2: "'kern' Horizontal Kerning in Hebrew lookup 0 subtable" uniFB36 dx=15 dy=0 dh=15 dv=0 dx=0 dy=0 dh=0 dv=0
PairPos2: "'kern' Horizontal Kerning in Hebrew lookup 0 subtable" afii57670 dx=15 dy=0 dh=15 dv=0 dx=0 dy=0 dh=0 dv=0
PairPos2: "'kern' Horizontal Kerning in Hebrew lookup 0 subtable" uniFB33 dx=25 dy=0 dh=25 dv=0 dx=0 dy=0 dh=0 dv=0
PairPos2: "'kern' Horizontal Kerning in Hebrew lookup 0 subtable" uniFB22 dx=25 dy=0 dh=25 dv=0 dx=0 dy=0 dh=0 dv=0
PairPos2: "'kern' Horizontal Kerning in Hebrew lookup 0 subtable" afii57667 dx=25 dy=0 dh=25 dv=0 dx=0 dy=0 dh=0 dv=0
PairPos2: "'kern' Horizontal Kerning in Hebrew lookup 0 subtable" uniFB32 dx=-30 dy=0 dh=-30 dv=0 dx=0 dy=0 dh=0 dv=0
PairPos2: "'kern' Horizontal Kerning in Hebrew lookup 0 subtable" afii57666 dx=-30 dy=0 dh=-30 dv=0 dx=0 dy=0 dh=0 dv=0
PairPos2: "'kern' Horizontal Kerning in Hebrew lookup 0 subtable" uniFB4C dx=-15 dy=0 dh=-15 dv=0 dx=0 dy=0 dh=0 dv=0
PairPos2: "'kern' Horizontal Kerning in Hebrew lookup 0 subtable" uniFB31 dx=-15 dy=0 dh=-15 dv=0 dx=0 dy=0 dh=0 dv=0
PairPos2: "'kern' Horizontal Kerning in Hebrew lookup 0 subtable" afii57665 dx=-15 dy=0 dh=-15 dv=0 dx=0 dy=0 dh=0 dv=0
PairPos2: "'kern' Horizontal Kerning in Hebrew lookup 0 subtable" uniFB30 dx=-10 dy=0 dh=-10 dv=0 dx=0 dy=0 dh=0 dv=0
PairPos2: "'kern' Horizontal Kerning in Hebrew lookup 0 subtable" uniFB2F dx=-10 dy=0 dh=-10 dv=0 dx=0 dy=0 dh=0 dv=0
PairPos2: "'kern' Horizontal Kerning in Hebrew lookup 0 subtable" uniFB2E dx=-10 dy=0 dh=-10 dv=0 dx=0 dy=0 dh=0 dv=0
PairPos2: "'kern' Horizontal Kerning in Hebrew lookup 0 subtable" uniFB21 dx=-10 dy=0 dh=-10 dv=0 dx=0 dy=0 dh=0 dv=0
PairPos2: "'kern' Horizontal Kerning in Hebrew lookup 0 subtable" afii57664 dx=-10 dy=0 dh=-10 dv=0 dx=0 dy=0 dh=0 dv=0
EndChar

StartChar: afii57841
Encoding: 1471 1471 139
Width: 0
VWidth: 1070
Flags: MW
HStem: 680 60<-100 100>
VStem: -100 200<680 740>
LayerCount: 2
Fore
SplineSet
-100 740 m 5
 100 740 l 5
 100 680 l 5
 -100 680 l 5
 -100 740 l 5
EndSplineSet
EndChar

StartChar: afii57842
Encoding: 1472 1472 140
Width: 179
VWidth: 1070
Flags: W
VStem: 47.3311 84.9999<-57 635>
LayerCount: 2
Fore
SplineSet
47.3311 635.67 m 5
 132.331 663 l 257
 132.331 -57 l 1
 47.3311 -84.3301 l 5
 47.3311 635.67 l 5
EndSplineSet
EndChar

StartChar: afii57804
Encoding: 1473 1473 141
Width: 0
VWidth: 1000
Flags: W
LayerCount: 2
Fore
SplineSet
594 706 m 4
 616.078 706 634.002 688.079 634.002 666 c 4
 634.002 643.922 616.078 626 594 626 c 4
 571.92 626 554 643.922 554 666 c 4
 554 688.079 571.92 706 594 706 c 4
EndSplineSet
EndChar

StartChar: afii57803
Encoding: 1474 1474 142
Width: 0
VWidth: 1000
Flags: W
LayerCount: 2
Fore
SplineSet
156 706 m 4
 178.078 706 196.002 688.079 196.002 666 c 4
 196.002 643.922 178.078 626 156 626 c 4
 133.92 626 116 643.922 116 666 c 4
 116 688.079 133.92 706 156 706 c 4
EndSplineSet
EndChar

StartChar: uni05C4
Encoding: 1476 1476 144
Width: 0
VWidth: 1000
Flags: W
HStem: 660 120<-48.9249 48.9258>
VStem: -60.001 120.003<671.075 768.925>
LayerCount: 2
Back
SplineSet
-0.000976562 740 m 4
 22.0771 740 40.001 722.078 40.001 700 c 4
 40.001 677.922 22.0771 660 -0.000976562 660 c 4
 -22.0771 660 -40.001 677.922 -40.001 700 c 4
 -40.001 722.078 -22.0771 740 -0.000976562 740 c 4
EndSplineSet
Fore
SplineSet
-0.000976562 780 m 4
 33.1162 780 60.002 753.117 60.002 720 c 4
 60.002 686.883 33.1162 660 -0.000976562 660 c 4
 -33.1152 660 -60.001 686.883 -60.001 720 c 4
 -60.001 753.117 -33.1152 780 -0.000976562 780 c 4
EndSplineSet
EndChar

StartChar: afii57664
Encoding: 1488 1488 145
Width: 620
VWidth: 1000
Flags: HMW
AnchorPoint: "DiaToBaseD" 305 -149 basechar 0
AnchorPoint: "DiaToBaseO" 27 0 basechar 0
AnchorPoint: "DiaToBaseU" 307 0 basechar 0
AnchorPoint: "DiaToBase3" 317 0 basechar 0
AnchorPoint: "DiaToBase2" 317 0 basechar 0
AnchorPoint: "DiaToBase1" 317 0 basechar 0
LayerCount: 2
Back
SplineSet
529.5 512.5 m 4
 529.5 441.5 513.724 424.335 489 435 c 4
 463.5 446 443.26 422.452 425.5 374.5 c 4
 410.5 334 401.979 273.772 426.5 243 c 6
 503 147 l 14
 527.648 116.068 530.953 74.3545 525 48 c 4
 517.998 17 487.064 -17.1096 460.998 -10 c 4
 439 -4 459.863 14.6843 439 41 c 6
 206.709 334 l 1
 180.709 317 169.419 297.172 167.811 267 c 16
 164 195.5 250 142 250 54 c 0
 250 22 241.811 0 216.811 0 c 2
 55.8105 0 l 2
 29.8105 0 33.8105 38 43.8105 54 c 0
 53.3652 69.2871 78.8105 60 83.8105 70 c 0
 100.928 104.235 55 147 69 236 c 0
 78.8891 298.867 111 343 166.297 385 c 1
 93 476 l 18
 32.1413 551.557 78.5 642 115 642 c 0
 145.5 642 128.52 617.314 155.5 583.5 c 2
 357.771 330 l 5
 361 379.5 377 415 403.811 451 c 5
 355.963 463.897 322.434 474.5 322.434 546.5 c 4
 322.434 591 342.5 646 369.528 646 c 4
 386 646 376.623 632.86 378.811 619 c 12
 380.729 606.846 388.907 602.478 404 600 c 6
 437.5 594.5 l 6
 500.205 584.205 529.5 569 529.5 512.5 c 4
EndSplineSet
Fore
SplineSet
562.5 512.5 m 0
 562.5 441.5 546.724 424.335 522 435 c 0
 496.5 446 473 418.5 454 375.5 c 0
 436.545 335.996 428.454 273.772 454.049 243 c 2
 533.901 147 l 10
 559.396 116.351 564.392 74.3545 559.358 48 c 0
 553.439 17 521.814 -17.1094 495.5 -10 c 0
 473.293 -4 495.385 14.6846 473.604 41 c 2
 231.08 334 l 1
 205.674 317 186.501 298.71 184.811 267 c 16
 181 195.5 267 142 267 54 c 0
 267 22 258.811 0 233.811 0 c 2
 72.8105 0 l 2
 46.8105 0 50.8105 38 60.8105 54 c 0
 70.3652 69.2871 95.8105 60 100.811 70 c 0
 117.928 104.235 72 147 86 236 c 0
 95.8887 298.867 135.058 343 188.888 385 c 1
 112.413 476 l 18
 48.915 551.557 95 642 131.5 642 c 0
 162 642 142.998 617.314 171.159 583.5 c 2
 382.282 330 l 1
 389 381 406 416.5 436.811 451 c 1
 388.963 463.897 355.434 474.5 355.434 546.5 c 0
 355.434 591 375.5 646 402.528 646 c 0
 419 646 409.623 632.86 411.811 619 c 8
 413.729 606.846 421.907 602.479 437 600 c 2
 470.5 594.5 l 2
 533.205 584.205 562.5 569 562.5 512.5 c 0
EndSplineSet
PairPos2: "'kern' Horizontal Kerning in Hebrew lookup 0 subtable" uniE804 dx=-25 dy=0 dh=-25 dv=0 dx=0 dy=0 dh=0 dv=0
PairPos2: "'kern' Horizontal Kerning in Hebrew lookup 0 subtable" uniE803 dx=-10 dy=0 dh=-10 dv=0 dx=0 dy=0 dh=0 dv=0
PairPos2: "'kern' Horizontal Kerning in Hebrew lookup 0 subtable" uniE802 dx=-10 dy=0 dh=-10 dv=0 dx=0 dy=0 dh=0 dv=0
PairPos2: "'kern' Horizontal Kerning in Hebrew lookup 0 subtable" quotesingle dx=-30 dy=0 dh=-30 dv=0 dx=0 dy=0 dh=0 dv=0
PairPos2: "'kern' Horizontal Kerning in Hebrew lookup 0 subtable" quoteright dx=-30 dy=0 dh=-30 dv=0 dx=0 dy=0 dh=0 dv=0
PairPos2: "'kern' Horizontal Kerning in Hebrew lookup 0 subtable" quotedblright dx=-30 dy=0 dh=-30 dv=0 dx=0 dy=0 dh=0 dv=0
PairPos2: "'kern' Horizontal Kerning in Hebrew lookup 0 subtable" quotedbl dx=-30 dy=0 dh=-30 dv=0 dx=0 dy=0 dh=0 dv=0
PairPos2: "'kern' Horizontal Kerning in Hebrew lookup 0 subtable" question dx=-20 dy=0 dh=-20 dv=0 dx=0 dy=0 dh=0 dv=0
PairPos2: "'kern' Horizontal Kerning in Hebrew lookup 0 subtable" hyphen dx=-10 dy=0 dh=-10 dv=0 dx=0 dy=0 dh=0 dv=0
PairPos2: "'kern' Horizontal Kerning in Hebrew lookup 0 subtable" uniFB1D dx=-25 dy=0 dh=-25 dv=0 dx=0 dy=0 dh=0 dv=0
PairPos2: "'kern' Horizontal Kerning in Hebrew lookup 0 subtable" uniFB2D dx=-40 dy=0 dh=-40 dv=0 dx=0 dy=0 dh=0 dv=0
PairPos2: "'kern' Horizontal Kerning in Hebrew lookup 0 subtable" uniFB2C dx=-40 dy=0 dh=-40 dv=0 dx=0 dy=0 dh=0 dv=0
PairPos2: "'kern' Horizontal Kerning in Hebrew lookup 0 subtable" uniFB45 dx=-30 dy=0 dh=-30 dv=0 dx=0 dy=0 dh=0 dv=0
PairPos2: "'kern' Horizontal Kerning in Hebrew lookup 0 subtable" uniFB42 dx=-35 dy=0 dh=-35 dv=0 dx=0 dy=0 dh=0 dv=0
PairPos2: "'kern' Horizontal Kerning in Hebrew lookup 0 subtable" uniFB3F dx=-10 dy=0 dh=-10 dv=0 dx=0 dy=0 dh=0 dv=0
PairPos2: "'kern' Horizontal Kerning in Hebrew lookup 0 subtable" uniFB37 dx=-20 dy=0 dh=-20 dv=0 dx=0 dy=0 dh=0 dv=0
PairPos2: "'kern' Horizontal Kerning in Hebrew lookup 0 subtable" uni05F4 dx=-30 dy=0 dh=-30 dv=0 dx=0 dy=0 dh=0 dv=0
PairPos2: "'kern' Horizontal Kerning in Hebrew lookup 0 subtable" uni05F3 dx=-30 dy=0 dh=-30 dv=0 dx=0 dy=0 dh=0 dv=0
PairPos2: "'kern' Horizontal Kerning in Hebrew lookup 0 subtable" afii57718 dx=-25 dy=0 dh=-25 dv=0 dx=0 dy=0 dh=0 dv=0
PairPos2: "'kern' Horizontal Kerning in Hebrew lookup 0 subtable" afii57705 dx=-25 dy=0 dh=-25 dv=0 dx=0 dy=0 dh=0 dv=0
PairPos2: "'kern' Horizontal Kerning in Hebrew lookup 0 subtable" afii57717 dx=-25 dy=0 dh=-25 dv=0 dx=0 dy=0 dh=0 dv=0
PairPos2: "'kern' Horizontal Kerning in Hebrew lookup 0 subtable" uniFB4A dx=-10 dy=0 dh=-10 dv=0 dx=0 dy=0 dh=0 dv=0
PairPos2: "'kern' Horizontal Kerning in Hebrew lookup 0 subtable" uniFB28 dx=-10 dy=0 dh=-10 dv=0 dx=0 dy=0 dh=0 dv=0
PairPos2: "'kern' Horizontal Kerning in Hebrew lookup 0 subtable" afii57690 dx=-10 dy=0 dh=-10 dv=0 dx=0 dy=0 dh=0 dv=0
PairPos2: "'kern' Horizontal Kerning in Hebrew lookup 0 subtable" uniFB49 dx=-40 dy=0 dh=-40 dv=0 dx=0 dy=0 dh=0 dv=0
PairPos2: "'kern' Horizontal Kerning in Hebrew lookup 0 subtable" afii57695 dx=-40 dy=0 dh=-40 dv=0 dx=0 dy=0 dh=0 dv=0
PairPos2: "'kern' Horizontal Kerning in Hebrew lookup 0 subtable" afii57694 dx=-40 dy=0 dh=-40 dv=0 dx=0 dy=0 dh=0 dv=0
PairPos2: "'kern' Horizontal Kerning in Hebrew lookup 0 subtable" afii57689 dx=-40 dy=0 dh=-40 dv=0 dx=0 dy=0 dh=0 dv=0
PairPos2: "'kern' Horizontal Kerning in Hebrew lookup 0 subtable" uniFB48 dx=20 dy=0 dh=20 dv=0 dx=0 dy=0 dh=0 dv=0
PairPos2: "'kern' Horizontal Kerning in Hebrew lookup 0 subtable" afii57688 dx=20 dy=0 dh=20 dv=0 dx=0 dy=0 dh=0 dv=0
PairPos2: "'kern' Horizontal Kerning in Hebrew lookup 0 subtable" uniFB47 dx=-15 dy=0 dh=-15 dv=0 dx=0 dy=0 dh=0 dv=0
PairPos2: "'kern' Horizontal Kerning in Hebrew lookup 0 subtable" afii57687 dx=-15 dy=0 dh=-15 dv=0 dx=0 dy=0 dh=0 dv=0
PairPos2: "'kern' Horizontal Kerning in Hebrew lookup 0 subtable" uniFB46 dx=-10 dy=0 dh=-10 dv=0 dx=0 dy=0 dh=0 dv=0
PairPos2: "'kern' Horizontal Kerning in Hebrew lookup 0 subtable" afii57686 dx=-10 dy=0 dh=-10 dv=0 dx=0 dy=0 dh=0 dv=0
PairPos2: "'kern' Horizontal Kerning in Hebrew lookup 0 subtable" afii57685 dx=-30 dy=0 dh=-30 dv=0 dx=0 dy=0 dh=0 dv=0
PairPos2: "'kern' Horizontal Kerning in Hebrew lookup 0 subtable" afii57682 dx=-35 dy=0 dh=-35 dv=0 dx=0 dy=0 dh=0 dv=0
PairPos2: "'kern' Horizontal Kerning in Hebrew lookup 0 subtable" uniFB40 dx=-10 dy=0 dh=-10 dv=0 dx=0 dy=0 dh=0 dv=0
PairPos2: "'kern' Horizontal Kerning in Hebrew lookup 0 subtable" afii57680 dx=-10 dy=0 dh=-10 dv=0 dx=0 dy=0 dh=0 dv=0
PairPos2: "'kern' Horizontal Kerning in Hebrew lookup 0 subtable" afii57679 dx=-10 dy=0 dh=-10 dv=0 dx=0 dy=0 dh=0 dv=0
PairPos2: "'kern' Horizontal Kerning in Hebrew lookup 0 subtable" uniFB3C dx=-30 dy=0 dh=-30 dv=0 dx=0 dy=0 dh=0 dv=0
PairPos2: "'kern' Horizontal Kerning in Hebrew lookup 0 subtable" uniFB25 dx=-30 dy=0 dh=-30 dv=0 dx=0 dy=0 dh=0 dv=0
PairPos2: "'kern' Horizontal Kerning in Hebrew lookup 0 subtable" afii57676 dx=-30 dy=0 dh=-30 dv=0 dx=0 dy=0 dh=0 dv=0
PairPos2: "'kern' Horizontal Kerning in Hebrew lookup 0 subtable" uniFB3A dx=-10 dy=0 dh=-10 dv=0 dx=0 dy=0 dh=0 dv=0
PairPos2: "'kern' Horizontal Kerning in Hebrew lookup 0 subtable" afii57674 dx=-10 dy=0 dh=-10 dv=0 dx=0 dy=0 dh=0 dv=0
PairPos2: "'kern' Horizontal Kerning in Hebrew lookup 0 subtable" uniFB39 dx=-25 dy=0 dh=-25 dv=0 dx=0 dy=0 dh=0 dv=0
PairPos2: "'kern' Horizontal Kerning in Hebrew lookup 0 subtable" afii57673 dx=-25 dy=0 dh=-25 dv=0 dx=0 dy=0 dh=0 dv=0
PairPos2: "'kern' Horizontal Kerning in Hebrew lookup 0 subtable" uniFB38 dx=-10 dy=0 dh=-10 dv=0 dx=0 dy=0 dh=0 dv=0
PairPos2: "'kern' Horizontal Kerning in Hebrew lookup 0 subtable" afii57672 dx=-10 dy=0 dh=-10 dv=0 dx=0 dy=0 dh=0 dv=0
PairPos2: "'kern' Horizontal Kerning in Hebrew lookup 0 subtable" afii57671 dx=-20 dy=0 dh=-20 dv=0 dx=0 dy=0 dh=0 dv=0
PairPos2: "'kern' Horizontal Kerning in Hebrew lookup 0 subtable" uniFB36 dx=-25 dy=0 dh=-25 dv=0 dx=0 dy=0 dh=0 dv=0
PairPos2: "'kern' Horizontal Kerning in Hebrew lookup 0 subtable" afii57670 dx=-25 dy=0 dh=-25 dv=0 dx=0 dy=0 dh=0 dv=0
PairPos2: "'kern' Horizontal Kerning in Hebrew lookup 0 subtable" uniFB34 dx=-10 dy=0 dh=-10 dv=0 dx=0 dy=0 dh=0 dv=0
PairPos2: "'kern' Horizontal Kerning in Hebrew lookup 0 subtable" uniFB23 dx=-10 dy=0 dh=-10 dv=0 dx=0 dy=0 dh=0 dv=0
PairPos2: "'kern' Horizontal Kerning in Hebrew lookup 0 subtable" afii57668 dx=-10 dy=0 dh=-10 dv=0 dx=0 dy=0 dh=0 dv=0
PairPos2: "'kern' Horizontal Kerning in Hebrew lookup 0 subtable" uniFB33 dx=-10 dy=0 dh=-10 dv=0 dx=0 dy=0 dh=0 dv=0
PairPos2: "'kern' Horizontal Kerning in Hebrew lookup 0 subtable" uniFB22 dx=-10 dy=0 dh=-10 dv=0 dx=0 dy=0 dh=0 dv=0
PairPos2: "'kern' Horizontal Kerning in Hebrew lookup 0 subtable" afii57667 dx=-10 dy=0 dh=-10 dv=0 dx=0 dy=0 dh=0 dv=0
PairPos2: "'kern' Horizontal Kerning in Hebrew lookup 0 subtable" uniFB32 dx=-10 dy=0 dh=-10 dv=0 dx=0 dy=0 dh=0 dv=0
PairPos2: "'kern' Horizontal Kerning in Hebrew lookup 0 subtable" afii57666 dx=-10 dy=0 dh=-10 dv=0 dx=0 dy=0 dh=0 dv=0
PairPos2: "'kern' Horizontal Kerning in Hebrew lookup 0 subtable" uniFB30 dx=-20 dy=0 dh=-20 dv=0 dx=0 dy=0 dh=0 dv=0
PairPos2: "'kern' Horizontal Kerning in Hebrew lookup 0 subtable" uniFB2F dx=-20 dy=0 dh=-20 dv=0 dx=0 dy=0 dh=0 dv=0
PairPos2: "'kern' Horizontal Kerning in Hebrew lookup 0 subtable" uniFB2E dx=-20 dy=0 dh=-20 dv=0 dx=0 dy=0 dh=0 dv=0
PairPos2: "'kern' Horizontal Kerning in Hebrew lookup 0 subtable" uniFB21 dx=-20 dy=0 dh=-20 dv=0 dx=0 dy=0 dh=0 dv=0
PairPos2: "'kern' Horizontal Kerning in Hebrew lookup 0 subtable" afii57664 dx=-20 dy=0 dh=-20 dv=0 dx=0 dy=0 dh=0 dv=0
PairPos2: "'kern' Horizontal Kerning in Hebrew lookup 0 subtable" afii57645 dx=-30 dy=0 dh=-30 dv=0 dx=0 dy=0 dh=0 dv=0
Substitution2: "WideLetters" uniFB21
Comment: "%DiaToBase1+AD0A-315+AAoA%DiaToBase2+AD0A-315+AAoA%DiaToBase3+AD0A-315+AAoA%DiaToBaseO+AD0A-25+AAoA%DiaToBaseU+AD0A-305+AAoA" 
EndChar

StartChar: afii57665
Encoding: 1489 1489 146
Width: 509
VWidth: 1000
Flags: HMW
AnchorPoint: "DiaToBaseD" 243 0 basechar 0
AnchorPoint: "DiaToBaseO" -8 0 basechar 0
AnchorPoint: "DiaToBaseU" 262 0 basechar 0
AnchorPoint: "DiaToBase3" 252 0 basechar 0
AnchorPoint: "DiaToBase2" 262 0 basechar 0
AnchorPoint: "DiaToBase1" 252 0 basechar 0
LayerCount: 2
Back
SplineSet
121.631 600 m 2
 342.131 600 l 2
 356.131 600 384.568 595.685 402.131 578 c 24
 426.948 553.01 430.438 506.405 432.631 493 c 0
 443.273 427.964 435.191 290.359 426.131 236 c 8
 420.494 202.178 410.131 183 397.131 153 c 8
 395.288 148.747 396.996 142 401.631 142 c 18
 498.131 142 l 25
 460.131 0 l 25
 29.1318 0 l 25
 65.1318 142 l 25
 306.131 142 l 10
 321.812 142 338.631 142.5 345.631 149.5 c 0
 365.128 168.997 367.721 257.498 368.131 313 c 0
 368.5 363 367.226 436.969 310.131 456 c 16
 299.631 459.5 286.386 459 271.131 459 c 18
 130.131 459 l 2
 72.8613 459 47.5283 484 46.1309 545 c 8
 45.1895 586.072 63.5283 636 82.1309 644 c 8
 89.332 647.097 99.6309 647.5 102.131 642 c 0
 103.898 638.111 100.631 629.5 102.131 620 c 8
 103.83 609.239 113.631 600 121.631 600 c 2
EndSplineSet
Fore
SplineSet
123.631 600 m 2
 344.131 600 l 2
 358.131 600 399.129 592.798 417.5 559.5 c 0
 441.5 516 449.5 464 449.5 378 c 0
 449.5 285 429.5 218.5 399.131 153 c 8
 397.182 148.795 398.996 142 403.631 142 c 18
 476 142 l 2
 498.062 142 497.845 133.455 493.708 118 c 2
 467.483 20 l 2
 463.491 5.08301 459.308 0 439 0 c 2
 55 0 l 2
 32.6035 0 33.3994 8.94434 37.4697 25 c 2
 63.8359 129 l 2
 66.6631 140.152 71.2461 142 85 142 c 2
 308.131 142 l 10
 323.812 142 340.631 142.5 347.631 149.5 c 0
 367.128 168.997 380.5 231.5 380.5 298.5 c 0
 380.5 346.5 376.336 386.915 357.832 417.5 c 0
 342.195 443.348 309.746 458 273.131 458 c 18
 132.131 458 l 2
 74.8613 458 48.1309 483.984 48.1309 545 c 0
 48.1309 588 67 646 95 646 c 0
 111 646 101.899 634.134 104.131 620 c 8
 105.83 609.239 115.631 600 123.631 600 c 2
EndSplineSet
PairPos2: "'kern' Horizontal Kerning in Hebrew lookup 0 subtable" uniE804 dx=-10 dy=0 dh=-10 dv=0 dx=0 dy=0 dh=0 dv=0
PairPos2: "'kern' Horizontal Kerning in Hebrew lookup 0 subtable" question dx=10 dy=0 dh=10 dv=0 dx=0 dy=0 dh=0 dv=0
PairPos2: "'kern' Horizontal Kerning in Hebrew lookup 0 subtable" period dx=10 dy=0 dh=10 dv=0 dx=0 dy=0 dh=0 dv=0
PairPos2: "'kern' Horizontal Kerning in Hebrew lookup 0 subtable" ellipsis dx=10 dy=0 dh=10 dv=0 dx=0 dy=0 dh=0 dv=0
PairPos2: "'kern' Horizontal Kerning in Hebrew lookup 0 subtable" hyphen dx=10 dy=0 dh=10 dv=0 dx=0 dy=0 dh=0 dv=0
PairPos2: "'kern' Horizontal Kerning in Hebrew lookup 0 subtable" comma dx=10 dy=0 dh=10 dv=0 dx=0 dy=0 dh=0 dv=0
PairPos2: "'kern' Horizontal Kerning in Hebrew lookup 0 subtable" uniFB1D dx=-10 dy=0 dh=-10 dv=0 dx=0 dy=0 dh=0 dv=0
PairPos2: "'kern' Horizontal Kerning in Hebrew lookup 0 subtable" uniFB2D dx=-10 dy=0 dh=-10 dv=0 dx=0 dy=0 dh=0 dv=0
PairPos2: "'kern' Horizontal Kerning in Hebrew lookup 0 subtable" uniFB2C dx=-10 dy=0 dh=-10 dv=0 dx=0 dy=0 dh=0 dv=0
PairPos2: "'kern' Horizontal Kerning in Hebrew lookup 0 subtable" uniFB42 dx=-10 dy=0 dh=-10 dv=0 dx=0 dy=0 dh=0 dv=0
PairPos2: "'kern' Horizontal Kerning in Hebrew lookup 0 subtable" uniFB3D dx=10 dy=0 dh=10 dv=0 dx=0 dy=0 dh=0 dv=0
PairPos2: "'kern' Horizontal Kerning in Hebrew lookup 0 subtable" uniFB37 dx=10 dy=0 dh=10 dv=0 dx=0 dy=0 dh=0 dv=0
PairPos2: "'kern' Horizontal Kerning in Hebrew lookup 0 subtable" afii57718 dx=-10 dy=0 dh=-10 dv=0 dx=0 dy=0 dh=0 dv=0
PairPos2: "'kern' Horizontal Kerning in Hebrew lookup 0 subtable" afii57705 dx=-10 dy=0 dh=-10 dv=0 dx=0 dy=0 dh=0 dv=0
PairPos2: "'kern' Horizontal Kerning in Hebrew lookup 0 subtable" afii57717 dx=-10 dy=0 dh=-10 dv=0 dx=0 dy=0 dh=0 dv=0
PairPos2: "'kern' Horizontal Kerning in Hebrew lookup 0 subtable" uniFB49 dx=-10 dy=0 dh=-10 dv=0 dx=0 dy=0 dh=0 dv=0
PairPos2: "'kern' Horizontal Kerning in Hebrew lookup 0 subtable" afii57695 dx=-10 dy=0 dh=-10 dv=0 dx=0 dy=0 dh=0 dv=0
PairPos2: "'kern' Horizontal Kerning in Hebrew lookup 0 subtable" afii57694 dx=-10 dy=0 dh=-10 dv=0 dx=0 dy=0 dh=0 dv=0
PairPos2: "'kern' Horizontal Kerning in Hebrew lookup 0 subtable" afii57689 dx=-10 dy=0 dh=-10 dv=0 dx=0 dy=0 dh=0 dv=0
PairPos2: "'kern' Horizontal Kerning in Hebrew lookup 0 subtable" uniFB48 dx=20 dy=0 dh=20 dv=0 dx=0 dy=0 dh=0 dv=0
PairPos2: "'kern' Horizontal Kerning in Hebrew lookup 0 subtable" afii57688 dx=20 dy=0 dh=20 dv=0 dx=0 dy=0 dh=0 dv=0
PairPos2: "'kern' Horizontal Kerning in Hebrew lookup 0 subtable" afii57682 dx=-10 dy=0 dh=-10 dv=0 dx=0 dy=0 dh=0 dv=0
PairPos2: "'kern' Horizontal Kerning in Hebrew lookup 0 subtable" uniFB40 dx=10 dy=0 dh=10 dv=0 dx=0 dy=0 dh=0 dv=0
PairPos2: "'kern' Horizontal Kerning in Hebrew lookup 0 subtable" afii57680 dx=10 dy=0 dh=10 dv=0 dx=0 dy=0 dh=0 dv=0
PairPos2: "'kern' Horizontal Kerning in Hebrew lookup 0 subtable" uniFB3E dx=10 dy=0 dh=10 dv=0 dx=0 dy=0 dh=0 dv=0
PairPos2: "'kern' Horizontal Kerning in Hebrew lookup 0 subtable" afii57678 dx=10 dy=0 dh=10 dv=0 dx=0 dy=0 dh=0 dv=0
PairPos2: "'kern' Horizontal Kerning in Hebrew lookup 0 subtable" uniFB26 dx=10 dy=0 dh=10 dv=0 dx=0 dy=0 dh=0 dv=0
PairPos2: "'kern' Horizontal Kerning in Hebrew lookup 0 subtable" afii57677 dx=10 dy=0 dh=10 dv=0 dx=0 dy=0 dh=0 dv=0
PairPos2: "'kern' Horizontal Kerning in Hebrew lookup 0 subtable" uniFB4D dx=-15 dy=0 dh=-15 dv=0 dx=0 dy=0 dh=0 dv=0
PairPos2: "'kern' Horizontal Kerning in Hebrew lookup 0 subtable" uniFB3B dx=-15 dy=0 dh=-15 dv=0 dx=0 dy=0 dh=0 dv=0
PairPos2: "'kern' Horizontal Kerning in Hebrew lookup 0 subtable" uniFB24 dx=-15 dy=0 dh=-15 dv=0 dx=0 dy=0 dh=0 dv=0
PairPos2: "'kern' Horizontal Kerning in Hebrew lookup 0 subtable" afii57675 dx=-15 dy=0 dh=-15 dv=0 dx=0 dy=0 dh=0 dv=0
PairPos2: "'kern' Horizontal Kerning in Hebrew lookup 0 subtable" uniFB39 dx=-10 dy=0 dh=-10 dv=0 dx=0 dy=0 dh=0 dv=0
PairPos2: "'kern' Horizontal Kerning in Hebrew lookup 0 subtable" afii57673 dx=-10 dy=0 dh=-10 dv=0 dx=0 dy=0 dh=0 dv=0
PairPos2: "'kern' Horizontal Kerning in Hebrew lookup 0 subtable" afii57671 dx=10 dy=0 dh=10 dv=0 dx=0 dy=0 dh=0 dv=0
PairPos2: "'kern' Horizontal Kerning in Hebrew lookup 0 subtable" uniFB36 dx=-10 dy=0 dh=-10 dv=0 dx=0 dy=0 dh=0 dv=0
PairPos2: "'kern' Horizontal Kerning in Hebrew lookup 0 subtable" afii57670 dx=-10 dy=0 dh=-10 dv=0 dx=0 dy=0 dh=0 dv=0
PairPos2: "'kern' Horizontal Kerning in Hebrew lookup 0 subtable" uniFB4C dx=10 dy=0 dh=10 dv=0 dx=0 dy=0 dh=0 dv=0
PairPos2: "'kern' Horizontal Kerning in Hebrew lookup 0 subtable" uniFB31 dx=10 dy=0 dh=10 dv=0 dx=0 dy=0 dh=0 dv=0
PairPos2: "'kern' Horizontal Kerning in Hebrew lookup 0 subtable" afii57665 dx=10 dy=0 dh=10 dv=0 dx=0 dy=0 dh=0 dv=0
Comment: "%DiaToBase1+AD0A-250+AAoA%DiaToBase2+AD0A-260+AAoA%DiaToBase3+AD0A-250+AAoA%DiaToBaseO+AD0A--10+AAoA%DiaToBaseU+AD0A-260+AAoA" 
EndChar

StartChar: afii57666
Encoding: 1490 1490 147
Width: 423
VWidth: 1000
Flags: HMW
AnchorPoint: "DiaToBaseD" 185.729 0 basechar 0
AnchorPoint: "DiaToBaseO" 46.7285 0 basechar 0
AnchorPoint: "DiaToBaseU" 216.729 0 basechar 0
AnchorPoint: "DiaToBase3" 226.729 0 basechar 0
AnchorPoint: "DiaToBase2" 221.729 0 basechar 0
AnchorPoint: "DiaToBase1" 211.729 0 basechar 0
LayerCount: 2
Back
SplineSet
349.27 -4 m 0
 317.27 -4 327.27 12 296.27 79 c 0
 279.539 115.157 274.27 125 253.27 152 c 0
 235.036 175.443 213.7 109.378 201.27 74 c 26
 175.27 0 l 25
 11.2695 0 l 25
 47.2695 142 l 25
 117.27 142 l 2
 237.27 142 232.828 259.75 235.27 298 c 0
 238.27 345 242.27 458 188.27 458 c 2
 156.27 458 l 2
 99 458 73.6667 483 72.2695 544 c 8
 71.3528 584.022 89.6667 635 108.27 643 c 12
 115.655 646.176 125.77 646.5 128.27 641 c 4
 130.037 637.111 126.77 628.5 128.27 619 c 12
 129.969 608.243 139.77 600 147.77 600 c 2
 225.27 600 l 2
 239.27 600 320.27 597 307.27 495 c 0
 299.224 431.871 288.27 401 290.27 339 c 0
 292.948 255.947 317.736 235.98 341.27 169 c 16
 354.27 132 362.27 101 363.27 57 c 8
 363.839 31.9717 370.27 -4 349.27 -4 c 0
EndSplineSet
Fore
SplineSet
61.7949 0 m 2
 39.4639 0 40.1943 8.94434 44.2646 25 c 2
 70.6309 129 l 2
 73.459 140.152 78.041 142 91.7949 142 c 10
 144 142 l 2
 264 142 259.559 259.75 262 298 c 0
 265 345 269 458 215 458 c 2
 183 458 l 2
 125.731 458 98.7314 484 98.7314 546.5 c 0
 98.7314 591 118.796 646 145.826 646 c 0
 162.296 646 152.918 632.859 155.108 619 c 8
 156.764 608.512 166.608 600 174.608 600 c 2
 252 600 l 2
 266 600 348.731 594 334 495 c 0
 325.066 434.949 317 401.032 317 339 c 0
 317 232 390 182 390 57 c 8
 390 31.6738 388.731 -4 367.731 -4 c 0
 334.731 -4 324.731 100 280 152 c 0
 260.633 174.516 240.121 108.493 228 74 c 18
 209.028 20 l 2
 204.625 7.46582 199.981 0 182.231 0 c 2
 61.7949 0 l 2
EndSplineSet
PairPos2: "'kern' Horizontal Kerning in Hebrew lookup 0 subtable" uniE804 dx=-30 dy=0 dh=-30 dv=0 dx=0 dy=0 dh=0 dv=0
PairPos2: "'kern' Horizontal Kerning in Hebrew lookup 0 subtable" uniE803 dx=-15 dy=0 dh=-15 dv=0 dx=0 dy=0 dh=0 dv=0
PairPos2: "'kern' Horizontal Kerning in Hebrew lookup 0 subtable" uniE802 dx=-15 dy=0 dh=-15 dv=0 dx=0 dy=0 dh=0 dv=0
PairPos2: "'kern' Horizontal Kerning in Hebrew lookup 0 subtable" uniE801 dx=-10 dy=0 dh=-10 dv=0 dx=0 dy=0 dh=0 dv=0
PairPos2: "'kern' Horizontal Kerning in Hebrew lookup 0 subtable" quotesingle dx=-45 dy=0 dh=-45 dv=0 dx=0 dy=0 dh=0 dv=0
PairPos2: "'kern' Horizontal Kerning in Hebrew lookup 0 subtable" quoteright dx=-45 dy=0 dh=-45 dv=0 dx=0 dy=0 dh=0 dv=0
PairPos2: "'kern' Horizontal Kerning in Hebrew lookup 0 subtable" quotedblright dx=-45 dy=0 dh=-45 dv=0 dx=0 dy=0 dh=0 dv=0
PairPos2: "'kern' Horizontal Kerning in Hebrew lookup 0 subtable" quotedbl dx=-45 dy=0 dh=-45 dv=0 dx=0 dy=0 dh=0 dv=0
PairPos2: "'kern' Horizontal Kerning in Hebrew lookup 0 subtable" question dx=-30 dy=0 dh=-30 dv=0 dx=0 dy=0 dh=0 dv=0
PairPos2: "'kern' Horizontal Kerning in Hebrew lookup 0 subtable" hyphen dx=-30 dy=0 dh=-30 dv=0 dx=0 dy=0 dh=0 dv=0
PairPos2: "'kern' Horizontal Kerning in Hebrew lookup 0 subtable" uniFB1D dx=-30 dy=0 dh=-30 dv=0 dx=0 dy=0 dh=0 dv=0
PairPos2: "'kern' Horizontal Kerning in Hebrew lookup 0 subtable" uniFB2D dx=-55 dy=0 dh=-55 dv=0 dx=0 dy=0 dh=0 dv=0
PairPos2: "'kern' Horizontal Kerning in Hebrew lookup 0 subtable" uniFB2C dx=-55 dy=0 dh=-55 dv=0 dx=0 dy=0 dh=0 dv=0
PairPos2: "'kern' Horizontal Kerning in Hebrew lookup 0 subtable" uniFB45 dx=-45 dy=0 dh=-45 dv=0 dx=0 dy=0 dh=0 dv=0
PairPos2: "'kern' Horizontal Kerning in Hebrew lookup 0 subtable" uniFB42 dx=-50 dy=0 dh=-50 dv=0 dx=0 dy=0 dh=0 dv=0
PairPos2: "'kern' Horizontal Kerning in Hebrew lookup 0 subtable" uniFB3F dx=-20 dy=0 dh=-20 dv=0 dx=0 dy=0 dh=0 dv=0
PairPos2: "'kern' Horizontal Kerning in Hebrew lookup 0 subtable" uniFB37 dx=-10 dy=0 dh=-10 dv=0 dx=0 dy=0 dh=0 dv=0
PairPos2: "'kern' Horizontal Kerning in Hebrew lookup 0 subtable" uni05F4 dx=-45 dy=0 dh=-45 dv=0 dx=0 dy=0 dh=0 dv=0
PairPos2: "'kern' Horizontal Kerning in Hebrew lookup 0 subtable" uni05F3 dx=-45 dy=0 dh=-45 dv=0 dx=0 dy=0 dh=0 dv=0
PairPos2: "'kern' Horizontal Kerning in Hebrew lookup 0 subtable" afii57718 dx=-30 dy=0 dh=-30 dv=0 dx=0 dy=0 dh=0 dv=0
PairPos2: "'kern' Horizontal Kerning in Hebrew lookup 0 subtable" afii57705 dx=-30 dy=0 dh=-30 dv=0 dx=0 dy=0 dh=0 dv=0
PairPos2: "'kern' Horizontal Kerning in Hebrew lookup 0 subtable" afii57717 dx=-30 dy=0 dh=-30 dv=0 dx=0 dy=0 dh=0 dv=0
PairPos2: "'kern' Horizontal Kerning in Hebrew lookup 0 subtable" afii57716 dx=-10 dy=0 dh=-10 dv=0 dx=0 dy=0 dh=0 dv=0
PairPos2: "'kern' Horizontal Kerning in Hebrew lookup 0 subtable" uniFB4A dx=-20 dy=0 dh=-20 dv=0 dx=0 dy=0 dh=0 dv=0
PairPos2: "'kern' Horizontal Kerning in Hebrew lookup 0 subtable" uniFB28 dx=-20 dy=0 dh=-20 dv=0 dx=0 dy=0 dh=0 dv=0
PairPos2: "'kern' Horizontal Kerning in Hebrew lookup 0 subtable" afii57690 dx=-20 dy=0 dh=-20 dv=0 dx=0 dy=0 dh=0 dv=0
PairPos2: "'kern' Horizontal Kerning in Hebrew lookup 0 subtable" uniFB49 dx=-55 dy=0 dh=-55 dv=0 dx=0 dy=0 dh=0 dv=0
PairPos2: "'kern' Horizontal Kerning in Hebrew lookup 0 subtable" afii57695 dx=-55 dy=0 dh=-55 dv=0 dx=0 dy=0 dh=0 dv=0
PairPos2: "'kern' Horizontal Kerning in Hebrew lookup 0 subtable" afii57694 dx=-55 dy=0 dh=-55 dv=0 dx=0 dy=0 dh=0 dv=0
PairPos2: "'kern' Horizontal Kerning in Hebrew lookup 0 subtable" afii57689 dx=-55 dy=0 dh=-55 dv=0 dx=0 dy=0 dh=0 dv=0
PairPos2: "'kern' Horizontal Kerning in Hebrew lookup 0 subtable" uniFB47 dx=-50 dy=0 dh=-50 dv=0 dx=0 dy=0 dh=0 dv=0
PairPos2: "'kern' Horizontal Kerning in Hebrew lookup 0 subtable" afii57687 dx=-50 dy=0 dh=-50 dv=0 dx=0 dy=0 dh=0 dv=0
PairPos2: "'kern' Horizontal Kerning in Hebrew lookup 0 subtable" uniFB46 dx=-10 dy=0 dh=-10 dv=0 dx=0 dy=0 dh=0 dv=0
PairPos2: "'kern' Horizontal Kerning in Hebrew lookup 0 subtable" afii57686 dx=-10 dy=0 dh=-10 dv=0 dx=0 dy=0 dh=0 dv=0
PairPos2: "'kern' Horizontal Kerning in Hebrew lookup 0 subtable" afii57685 dx=-45 dy=0 dh=-45 dv=0 dx=0 dy=0 dh=0 dv=0
PairPos2: "'kern' Horizontal Kerning in Hebrew lookup 0 subtable" uniFB4E dx=-10 dy=0 dh=-10 dv=0 dx=0 dy=0 dh=0 dv=0
PairPos2: "'kern' Horizontal Kerning in Hebrew lookup 0 subtable" uniFB44 dx=-10 dy=0 dh=-10 dv=0 dx=0 dy=0 dh=0 dv=0
PairPos2: "'kern' Horizontal Kerning in Hebrew lookup 0 subtable" afii57684 dx=-10 dy=0 dh=-10 dv=0 dx=0 dy=0 dh=0 dv=0
PairPos2: "'kern' Horizontal Kerning in Hebrew lookup 0 subtable" afii57682 dx=-50 dy=0 dh=-50 dv=0 dx=0 dy=0 dh=0 dv=0
PairPos2: "'kern' Horizontal Kerning in Hebrew lookup 0 subtable" uniFB41 dx=-10 dy=0 dh=-10 dv=0 dx=0 dy=0 dh=0 dv=0
PairPos2: "'kern' Horizontal Kerning in Hebrew lookup 0 subtable" afii57681 dx=-10 dy=0 dh=-10 dv=0 dx=0 dy=0 dh=0 dv=0
PairPos2: "'kern' Horizontal Kerning in Hebrew lookup 0 subtable" afii57679 dx=-20 dy=0 dh=-20 dv=0 dx=0 dy=0 dh=0 dv=0
PairPos2: "'kern' Horizontal Kerning in Hebrew lookup 0 subtable" uniFB3C dx=-40 dy=0 dh=-40 dv=0 dx=0 dy=0 dh=0 dv=0
PairPos2: "'kern' Horizontal Kerning in Hebrew lookup 0 subtable" uniFB25 dx=-40 dy=0 dh=-40 dv=0 dx=0 dy=0 dh=0 dv=0
PairPos2: "'kern' Horizontal Kerning in Hebrew lookup 0 subtable" afii57676 dx=-40 dy=0 dh=-40 dv=0 dx=0 dy=0 dh=0 dv=0
PairPos2: "'kern' Horizontal Kerning in Hebrew lookup 0 subtable" uniFB4D dx=-15 dy=0 dh=-15 dv=0 dx=0 dy=0 dh=0 dv=0
PairPos2: "'kern' Horizontal Kerning in Hebrew lookup 0 subtable" uniFB3B dx=-15 dy=0 dh=-15 dv=0 dx=0 dy=0 dh=0 dv=0
PairPos2: "'kern' Horizontal Kerning in Hebrew lookup 0 subtable" uniFB24 dx=-15 dy=0 dh=-15 dv=0 dx=0 dy=0 dh=0 dv=0
PairPos2: "'kern' Horizontal Kerning in Hebrew lookup 0 subtable" afii57675 dx=-15 dy=0 dh=-15 dv=0 dx=0 dy=0 dh=0 dv=0
PairPos2: "'kern' Horizontal Kerning in Hebrew lookup 0 subtable" uniFB3A dx=-15 dy=0 dh=-15 dv=0 dx=0 dy=0 dh=0 dv=0
PairPos2: "'kern' Horizontal Kerning in Hebrew lookup 0 subtable" afii57674 dx=-15 dy=0 dh=-15 dv=0 dx=0 dy=0 dh=0 dv=0
PairPos2: "'kern' Horizontal Kerning in Hebrew lookup 0 subtable" uniFB39 dx=-30 dy=0 dh=-30 dv=0 dx=0 dy=0 dh=0 dv=0
PairPos2: "'kern' Horizontal Kerning in Hebrew lookup 0 subtable" afii57673 dx=-30 dy=0 dh=-30 dv=0 dx=0 dy=0 dh=0 dv=0
PairPos2: "'kern' Horizontal Kerning in Hebrew lookup 0 subtable" uniFB38 dx=-10 dy=0 dh=-10 dv=0 dx=0 dy=0 dh=0 dv=0
PairPos2: "'kern' Horizontal Kerning in Hebrew lookup 0 subtable" afii57672 dx=-10 dy=0 dh=-10 dv=0 dx=0 dy=0 dh=0 dv=0
PairPos2: "'kern' Horizontal Kerning in Hebrew lookup 0 subtable" afii57671 dx=-10 dy=0 dh=-10 dv=0 dx=0 dy=0 dh=0 dv=0
PairPos2: "'kern' Horizontal Kerning in Hebrew lookup 0 subtable" uniFB36 dx=-40 dy=0 dh=-40 dv=0 dx=0 dy=0 dh=0 dv=0
PairPos2: "'kern' Horizontal Kerning in Hebrew lookup 0 subtable" afii57670 dx=-40 dy=0 dh=-40 dv=0 dx=0 dy=0 dh=0 dv=0
PairPos2: "'kern' Horizontal Kerning in Hebrew lookup 0 subtable" afii57723 dx=-10 dy=0 dh=-10 dv=0 dx=0 dy=0 dh=0 dv=0
PairPos2: "'kern' Horizontal Kerning in Hebrew lookup 0 subtable" afii57700 dx=-10 dy=0 dh=-10 dv=0 dx=0 dy=0 dh=0 dv=0
PairPos2: "'kern' Horizontal Kerning in Hebrew lookup 0 subtable" afii57669 dx=-10 dy=0 dh=-10 dv=0 dx=0 dy=0 dh=0 dv=0
PairPos2: "'kern' Horizontal Kerning in Hebrew lookup 0 subtable" uniFB34 dx=-10 dy=0 dh=-10 dv=0 dx=0 dy=0 dh=0 dv=0
PairPos2: "'kern' Horizontal Kerning in Hebrew lookup 0 subtable" uniFB23 dx=-10 dy=0 dh=-10 dv=0 dx=0 dy=0 dh=0 dv=0
PairPos2: "'kern' Horizontal Kerning in Hebrew lookup 0 subtable" afii57668 dx=-10 dy=0 dh=-10 dv=0 dx=0 dy=0 dh=0 dv=0
PairPos2: "'kern' Horizontal Kerning in Hebrew lookup 0 subtable" uniFB33 dx=-15 dy=0 dh=-15 dv=0 dx=0 dy=0 dh=0 dv=0
PairPos2: "'kern' Horizontal Kerning in Hebrew lookup 0 subtable" uniFB22 dx=-15 dy=0 dh=-15 dv=0 dx=0 dy=0 dh=0 dv=0
PairPos2: "'kern' Horizontal Kerning in Hebrew lookup 0 subtable" afii57667 dx=-15 dy=0 dh=-15 dv=0 dx=0 dy=0 dh=0 dv=0
PairPos2: "'kern' Horizontal Kerning in Hebrew lookup 0 subtable" uniFB4C dx=10 dy=0 dh=10 dv=0 dx=0 dy=0 dh=0 dv=0
PairPos2: "'kern' Horizontal Kerning in Hebrew lookup 0 subtable" uniFB31 dx=10 dy=0 dh=10 dv=0 dx=0 dy=0 dh=0 dv=0
PairPos2: "'kern' Horizontal Kerning in Hebrew lookup 0 subtable" afii57665 dx=10 dy=0 dh=10 dv=0 dx=0 dy=0 dh=0 dv=0
PairPos2: "'kern' Horizontal Kerning in Hebrew lookup 0 subtable" uniFB30 dx=-20 dy=0 dh=-20 dv=0 dx=0 dy=0 dh=0 dv=0
PairPos2: "'kern' Horizontal Kerning in Hebrew lookup 0 subtable" uniFB2F dx=-20 dy=0 dh=-20 dv=0 dx=0 dy=0 dh=0 dv=0
PairPos2: "'kern' Horizontal Kerning in Hebrew lookup 0 subtable" uniFB2E dx=-20 dy=0 dh=-20 dv=0 dx=0 dy=0 dh=0 dv=0
PairPos2: "'kern' Horizontal Kerning in Hebrew lookup 0 subtable" uniFB21 dx=-20 dy=0 dh=-20 dv=0 dx=0 dy=0 dh=0 dv=0
PairPos2: "'kern' Horizontal Kerning in Hebrew lookup 0 subtable" afii57664 dx=-20 dy=0 dh=-20 dv=0 dx=0 dy=0 dh=0 dv=0
PairPos2: "'kern' Horizontal Kerning in Hebrew lookup 0 subtable" afii57645 dx=-45 dy=0 dh=-45 dv=0 dx=0 dy=0 dh=0 dv=0
Comment: "%DiaToBase1+AD0A-210+AAoA%DiaToBase2+AD0A-220+AAoA%DiaToBase3+AD0A-225+AAoA%DiaToBaseO+AD0A-45+AAoA%DiaToBaseU+AD0A-215+AAoA" 
EndChar

StartChar: afii57667
Encoding: 1491 1491 148
Width: 528
VWidth: 1000
Flags: HMW
AnchorPoint: "DiaToBaseD" 249 0 basechar 0
AnchorPoint: "DiaToBaseO" -18 0 basechar 0
AnchorPoint: "DiaToBaseU" 317 0 basechar 0
AnchorPoint: "DiaToBase3" 312 0 basechar 0
AnchorPoint: "DiaToBase2" 362 0 basechar 0
AnchorPoint: "DiaToBase1" 372 0 basechar 0
LayerCount: 2
Back
SplineSet
112.114 600 m 2
 471.614 600 l 2
 485.614 600 502.847 594.939 503.614 560 c 2
 503.666 476 l 2
 502.81 440.02 468.614 483 442.614 428 c 0
 395.234 327.774 444.462 183.93 440.614 107 c 0
 438.614 67 428.614 41 409.614 22 c 0
 389.614 2 350.917 -11.5781 343.614 4 c 0
 336.114 20 351.614 -5.5 352.614 152.5 c 0
 352.805 182.516 341.614 311 368.614 388 c 0
 385.486 436.118 404.614 440.514 404.614 450 c 0
 404.614 460 392.604 458 383.614 458 c 18
 120.614 458 l 2
 63.3447 458 38.0107 483 36.6133 544 c 8
 35.6973 584.021 54.0107 635 72.6143 643 c 12
 79.999 646.176 90.1143 646.5 92.6143 641 c 4
 94.3809 637.111 91.1143 628.5 92.6143 619 c 12
 94.2705 608.512 104.114 600 112.114 600 c 2
EndSplineSet
Fore
SplineSet
33.2373 546.5 m 0
 33.2373 591 53.3037 646 80.3311 646 c 0
 96.8037 646 87.4258 632.859 89.6143 619 c 8
 91.2715 608.512 101.114 600 109.114 600 c 2
 468.614 600 l 2
 482.614 600 499.847 594.939 500.614 560 c 2
 500.666 476 l 2
 500.689 439.5 465.614 483 439.614 428 c 0
 392.234 327.774 441.462 183.93 437.614 107 c 0
 435.614 67 425.614 41 406.614 22 c 0
 386.614 2 347.917 -11.5781 340.614 4 c 0
 333.114 20 348.614 -5.5 349.614 152.5 c 0
 349.805 182.516 338.614 311 365.614 388 c 0
 382.486 436.118 401.614 440.514 401.614 450 c 0
 401.614 460 389.378 458 380.614 458 c 18
 117.614 458 l 2
 60.3447 458 33.2373 485 33.2373 546.5 c 0
EndSplineSet
PairPos2: "'kern' Horizontal Kerning in Hebrew lookup 0 subtable" quotesingle dx=17 dy=0 dh=17 dv=0 dx=0 dy=0 dh=0 dv=0
PairPos2: "'kern' Horizontal Kerning in Hebrew lookup 0 subtable" quoteright dx=17 dy=0 dh=17 dv=0 dx=0 dy=0 dh=0 dv=0
PairPos2: "'kern' Horizontal Kerning in Hebrew lookup 0 subtable" quotedblright dx=17 dy=0 dh=17 dv=0 dx=0 dy=0 dh=0 dv=0
PairPos2: "'kern' Horizontal Kerning in Hebrew lookup 0 subtable" quotedbl dx=17 dy=0 dh=17 dv=0 dx=0 dy=0 dh=0 dv=0
PairPos2: "'kern' Horizontal Kerning in Hebrew lookup 0 subtable" question dx=25 dy=0 dh=25 dv=0 dx=0 dy=0 dh=0 dv=0
PairPos2: "'kern' Horizontal Kerning in Hebrew lookup 0 subtable" period dx=-100 dy=0 dh=-100 dv=0 dx=0 dy=0 dh=0 dv=0
PairPos2: "'kern' Horizontal Kerning in Hebrew lookup 0 subtable" ellipsis dx=-100 dy=0 dh=-100 dv=0 dx=0 dy=0 dh=0 dv=0
PairPos2: "'kern' Horizontal Kerning in Hebrew lookup 0 subtable" comma dx=-100 dy=0 dh=-100 dv=0 dx=0 dy=0 dh=0 dv=0
PairPos2: "'kern' Horizontal Kerning in Hebrew lookup 0 subtable" uni05F4 dx=17 dy=0 dh=17 dv=0 dx=0 dy=0 dh=0 dv=0
PairPos2: "'kern' Horizontal Kerning in Hebrew lookup 0 subtable" uni05F3 dx=17 dy=0 dh=17 dv=0 dx=0 dy=0 dh=0 dv=0
PairPos2: "'kern' Horizontal Kerning in Hebrew lookup 0 subtable" uniFB48 dx=10 dy=0 dh=10 dv=0 dx=0 dy=0 dh=0 dv=0
PairPos2: "'kern' Horizontal Kerning in Hebrew lookup 0 subtable" afii57688 dx=10 dy=0 dh=10 dv=0 dx=0 dy=0 dh=0 dv=0
PairPos2: "'kern' Horizontal Kerning in Hebrew lookup 0 subtable" uniFB47 dx=10 dy=0 dh=10 dv=0 dx=0 dy=0 dh=0 dv=0
PairPos2: "'kern' Horizontal Kerning in Hebrew lookup 0 subtable" afii57687 dx=10 dy=0 dh=10 dv=0 dx=0 dy=0 dh=0 dv=0
PairPos2: "'kern' Horizontal Kerning in Hebrew lookup 0 subtable" uniFB43 dx=-25 dy=0 dh=-25 dv=0 dx=0 dy=0 dh=0 dv=0
PairPos2: "'kern' Horizontal Kerning in Hebrew lookup 0 subtable" afii57683 dx=-25 dy=0 dh=-25 dv=0 dx=0 dy=0 dh=0 dv=0
PairPos2: "'kern' Horizontal Kerning in Hebrew lookup 0 subtable" uniFB41 dx=-15 dy=0 dh=-15 dv=0 dx=0 dy=0 dh=0 dv=0
PairPos2: "'kern' Horizontal Kerning in Hebrew lookup 0 subtable" afii57681 dx=-15 dy=0 dh=-15 dv=0 dx=0 dy=0 dh=0 dv=0
PairPos2: "'kern' Horizontal Kerning in Hebrew lookup 0 subtable" uniFB3E dx=-10 dy=0 dh=-10 dv=0 dx=0 dy=0 dh=0 dv=0
PairPos2: "'kern' Horizontal Kerning in Hebrew lookup 0 subtable" afii57678 dx=-10 dy=0 dh=-10 dv=0 dx=0 dy=0 dh=0 dv=0
PairPos2: "'kern' Horizontal Kerning in Hebrew lookup 0 subtable" uniFB38 dx=-10 dy=0 dh=-10 dv=0 dx=0 dy=0 dh=0 dv=0
PairPos2: "'kern' Horizontal Kerning in Hebrew lookup 0 subtable" afii57672 dx=-10 dy=0 dh=-10 dv=0 dx=0 dy=0 dh=0 dv=0
PairPos2: "'kern' Horizontal Kerning in Hebrew lookup 0 subtable" uniFB32 dx=-30 dy=0 dh=-30 dv=0 dx=0 dy=0 dh=0 dv=0
PairPos2: "'kern' Horizontal Kerning in Hebrew lookup 0 subtable" afii57666 dx=-30 dy=0 dh=-30 dv=0 dx=0 dy=0 dh=0 dv=0
PairPos2: "'kern' Horizontal Kerning in Hebrew lookup 0 subtable" uniFB4C dx=-15 dy=0 dh=-15 dv=0 dx=0 dy=0 dh=0 dv=0
PairPos2: "'kern' Horizontal Kerning in Hebrew lookup 0 subtable" uniFB31 dx=-15 dy=0 dh=-15 dv=0 dx=0 dy=0 dh=0 dv=0
PairPos2: "'kern' Horizontal Kerning in Hebrew lookup 0 subtable" afii57665 dx=-15 dy=0 dh=-15 dv=0 dx=0 dy=0 dh=0 dv=0
PairPos2: "'kern' Horizontal Kerning in Hebrew lookup 0 subtable" afii57645 dx=20 dy=0 dh=20 dv=0 dx=0 dy=0 dh=0 dv=0
Substitution2: "WideLetters" uniFB22
Comment: "%DiaToBase1+AD0A-370+AAoA%DiaToBase2+AD0A-360+AAoA%DiaToBase3+AD0A-310+AAoA%DiaToBaseO+AD0A--20+AAoA%DiaToBaseU+AD0A-315+AAoA" 
EndChar

StartChar: afii57668
Encoding: 1492 1492 149
Width: 577
VWidth: 1000
Flags: HMW
AnchorPoint: "DiaToBaseD" 293 0 basechar 0
AnchorPoint: "DiaToBaseU" 272 0 basechar 0
AnchorPoint: "DiaToBase3" 282 0 basechar 0
AnchorPoint: "DiaToBase2" 272 0 basechar 0
AnchorPoint: "DiaToBase1" 272 0 basechar 0
LayerCount: 2
Back
SplineSet
140.14 325.5 m 0
 147.64 325.5 151.14 323.5 148.64 316.5 c 0
 140.291 293.122 140.723 221.807 143.64 162 c 0
 144.64 141.5 147.14 56.5 132.64 37.5 c 8
 111.532 9.83984 65.6396 -3 55.1396 -2 c 0
 47.4121 -1.26367 44.1396 3.5 46.9316 10.5 c 0
 51.4678 21.875 53.2266 50.2559 54.1396 131.5 c 0
 54.876 197.004 50.6396 269 70.6396 295 c 0
 89.748 319.842 110.624 325.5 140.14 325.5 c 0
492.64 107 m 0
 490.64 67 480.64 41 461.64 22 c 0
 441.64 2 402.941 -11.5781 395.64 4 c 0
 388.14 20 403.64 -5.5 404.64 152.5 c 0
 404.831 182.516 393.64 237 403.64 382 c 0
 407.233 434.116 441.2 440.644 439.64 450 c 0
 437.64 462 427.629 458 418.64 458 c 18
 125.64 458 l 10
 102.55 458 90.6396 460 69.6396 472 c 0
 60.3184 477.326 49.6396 493.5 45.6396 510 c 8
 42.4131 523.309 41.416 530.308 41.6396 544 c 24
 41.9902 565.438 42.3223 576.848 49.6396 597 c 24
 56.9912 617.247 62.1396 634.5 77.6396 643 c 8
 84.6895 646.866 95.1396 646.5 97.6396 641 c 0
 99.4072 637.111 96.1396 628.5 97.6396 619 c 8
 99.3379 608.243 109.14 600 117.14 600 c 2
 476.64 600 l 2
 490.64 600 507.872 594.939 508.64 560 c 2
 508.666 476 l 2
 507.714 436.022 496.64 470 477.64 428 c 0
 450.309 367.585 496.486 183.93 492.64 107 c 0
EndSplineSet
Fore
SplineSet
134.14 600 m 2
 493.64 600 l 2
 507.64 600 524.872 594.939 525.64 560 c 2
 525.666 476 l 2
 525.678 435.5 513.64 470 494.64 428 c 0
 467.309 367.585 513.486 183.93 509.64 107 c 0
 507.64 67 497.64 41 478.64 22 c 0
 458.64 2 419.941 -11.5781 412.64 4 c 0
 405.14 20 420.64 -5.5 421.64 152.5 c 0
 421.831 182.516 410.64 237 420.64 382 c 0
 424.233 434.116 458.2 440.644 456.64 450 c 0
 454.64 462 444.629 458 435.64 458 c 18
 142.64 458 l 2
 85.3701 458 58.2627 485 58.2627 546.5 c 0
 58.2627 591 78.3291 646 105.356 646 c 0
 121.829 646 112.451 632.859 114.64 619 c 8
 116.296 608.512 126.14 600 134.14 600 c 2
157.14 325.5 m 0
 164.64 325.5 167.751 323.627 165.64 316.5 c 0
 145.5 248.5 178.5 89.5 147 38.5 c 0
 129.064 9.46094 82.6396 -3 72.1396 -2 c 0
 64.4121 -1.26367 61.9443 3.23047 63.9316 10.5 c 0
 73.5 45.5 71.5 97 71.1396 131.5 c 0
 70.4551 197.005 67.6396 269 87.6396 295 c 0
 106.748 319.842 127.624 325.5 157.14 325.5 c 0
EndSplineSet
PairPos2: "'kern' Horizontal Kerning in Hebrew lookup 0 subtable" quotesingle dx=-10 dy=0 dh=-10 dv=0 dx=0 dy=0 dh=0 dv=0
PairPos2: "'kern' Horizontal Kerning in Hebrew lookup 0 subtable" quoteright dx=-10 dy=0 dh=-10 dv=0 dx=0 dy=0 dh=0 dv=0
PairPos2: "'kern' Horizontal Kerning in Hebrew lookup 0 subtable" quotedblright dx=-10 dy=0 dh=-10 dv=0 dx=0 dy=0 dh=0 dv=0
PairPos2: "'kern' Horizontal Kerning in Hebrew lookup 0 subtable" quotedbl dx=-10 dy=0 dh=-10 dv=0 dx=0 dy=0 dh=0 dv=0
PairPos2: "'kern' Horizontal Kerning in Hebrew lookup 0 subtable" uniFB2D dx=-10 dy=0 dh=-10 dv=0 dx=0 dy=0 dh=0 dv=0
PairPos2: "'kern' Horizontal Kerning in Hebrew lookup 0 subtable" uniFB2C dx=-10 dy=0 dh=-10 dv=0 dx=0 dy=0 dh=0 dv=0
PairPos2: "'kern' Horizontal Kerning in Hebrew lookup 0 subtable" uniFB42 dx=-10 dy=0 dh=-10 dv=0 dx=0 dy=0 dh=0 dv=0
PairPos2: "'kern' Horizontal Kerning in Hebrew lookup 0 subtable" uniFB3D dx=10 dy=0 dh=10 dv=0 dx=0 dy=0 dh=0 dv=0
PairPos2: "'kern' Horizontal Kerning in Hebrew lookup 0 subtable" uniFB37 dx=10 dy=0 dh=10 dv=0 dx=0 dy=0 dh=0 dv=0
PairPos2: "'kern' Horizontal Kerning in Hebrew lookup 0 subtable" uni05F4 dx=-10 dy=0 dh=-10 dv=0 dx=0 dy=0 dh=0 dv=0
PairPos2: "'kern' Horizontal Kerning in Hebrew lookup 0 subtable" uni05F3 dx=-10 dy=0 dh=-10 dv=0 dx=0 dy=0 dh=0 dv=0
PairPos2: "'kern' Horizontal Kerning in Hebrew lookup 0 subtable" uniFB4A dx=10 dy=0 dh=10 dv=0 dx=0 dy=0 dh=0 dv=0
PairPos2: "'kern' Horizontal Kerning in Hebrew lookup 0 subtable" uniFB28 dx=10 dy=0 dh=10 dv=0 dx=0 dy=0 dh=0 dv=0
PairPos2: "'kern' Horizontal Kerning in Hebrew lookup 0 subtable" afii57690 dx=10 dy=0 dh=10 dv=0 dx=0 dy=0 dh=0 dv=0
PairPos2: "'kern' Horizontal Kerning in Hebrew lookup 0 subtable" uniFB49 dx=-10 dy=0 dh=-10 dv=0 dx=0 dy=0 dh=0 dv=0
PairPos2: "'kern' Horizontal Kerning in Hebrew lookup 0 subtable" afii57695 dx=-10 dy=0 dh=-10 dv=0 dx=0 dy=0 dh=0 dv=0
PairPos2: "'kern' Horizontal Kerning in Hebrew lookup 0 subtable" afii57694 dx=-10 dy=0 dh=-10 dv=0 dx=0 dy=0 dh=0 dv=0
PairPos2: "'kern' Horizontal Kerning in Hebrew lookup 0 subtable" afii57689 dx=-10 dy=0 dh=-10 dv=0 dx=0 dy=0 dh=0 dv=0
PairPos2: "'kern' Horizontal Kerning in Hebrew lookup 0 subtable" uniFB48 dx=30 dy=0 dh=30 dv=0 dx=0 dy=0 dh=0 dv=0
PairPos2: "'kern' Horizontal Kerning in Hebrew lookup 0 subtable" afii57688 dx=30 dy=0 dh=30 dv=0 dx=0 dy=0 dh=0 dv=0
PairPos2: "'kern' Horizontal Kerning in Hebrew lookup 0 subtable" uniFB46 dx=-10 dy=0 dh=-10 dv=0 dx=0 dy=0 dh=0 dv=0
PairPos2: "'kern' Horizontal Kerning in Hebrew lookup 0 subtable" afii57686 dx=-10 dy=0 dh=-10 dv=0 dx=0 dy=0 dh=0 dv=0
PairPos2: "'kern' Horizontal Kerning in Hebrew lookup 0 subtable" uniFB4E dx=20 dy=0 dh=20 dv=0 dx=0 dy=0 dh=0 dv=0
PairPos2: "'kern' Horizontal Kerning in Hebrew lookup 0 subtable" uniFB44 dx=20 dy=0 dh=20 dv=0 dx=0 dy=0 dh=0 dv=0
PairPos2: "'kern' Horizontal Kerning in Hebrew lookup 0 subtable" afii57684 dx=20 dy=0 dh=20 dv=0 dx=0 dy=0 dh=0 dv=0
PairPos2: "'kern' Horizontal Kerning in Hebrew lookup 0 subtable" uniFB43 dx=10 dy=0 dh=10 dv=0 dx=0 dy=0 dh=0 dv=0
PairPos2: "'kern' Horizontal Kerning in Hebrew lookup 0 subtable" afii57683 dx=10 dy=0 dh=10 dv=0 dx=0 dy=0 dh=0 dv=0
PairPos2: "'kern' Horizontal Kerning in Hebrew lookup 0 subtable" afii57682 dx=-10 dy=0 dh=-10 dv=0 dx=0 dy=0 dh=0 dv=0
PairPos2: "'kern' Horizontal Kerning in Hebrew lookup 0 subtable" uniFB41 dx=10 dy=0 dh=10 dv=0 dx=0 dy=0 dh=0 dv=0
PairPos2: "'kern' Horizontal Kerning in Hebrew lookup 0 subtable" afii57681 dx=10 dy=0 dh=10 dv=0 dx=0 dy=0 dh=0 dv=0
PairPos2: "'kern' Horizontal Kerning in Hebrew lookup 0 subtable" uniFB40 dx=10 dy=0 dh=10 dv=0 dx=0 dy=0 dh=0 dv=0
PairPos2: "'kern' Horizontal Kerning in Hebrew lookup 0 subtable" afii57680 dx=10 dy=0 dh=10 dv=0 dx=0 dy=0 dh=0 dv=0
PairPos2: "'kern' Horizontal Kerning in Hebrew lookup 0 subtable" uniFB3E dx=10 dy=0 dh=10 dv=0 dx=0 dy=0 dh=0 dv=0
PairPos2: "'kern' Horizontal Kerning in Hebrew lookup 0 subtable" afii57678 dx=10 dy=0 dh=10 dv=0 dx=0 dy=0 dh=0 dv=0
PairPos2: "'kern' Horizontal Kerning in Hebrew lookup 0 subtable" uniFB26 dx=10 dy=0 dh=10 dv=0 dx=0 dy=0 dh=0 dv=0
PairPos2: "'kern' Horizontal Kerning in Hebrew lookup 0 subtable" afii57677 dx=10 dy=0 dh=10 dv=0 dx=0 dy=0 dh=0 dv=0
PairPos2: "'kern' Horizontal Kerning in Hebrew lookup 0 subtable" uniFB4D dx=10 dy=0 dh=10 dv=0 dx=0 dy=0 dh=0 dv=0
PairPos2: "'kern' Horizontal Kerning in Hebrew lookup 0 subtable" uniFB3B dx=10 dy=0 dh=10 dv=0 dx=0 dy=0 dh=0 dv=0
PairPos2: "'kern' Horizontal Kerning in Hebrew lookup 0 subtable" uniFB24 dx=10 dy=0 dh=10 dv=0 dx=0 dy=0 dh=0 dv=0
PairPos2: "'kern' Horizontal Kerning in Hebrew lookup 0 subtable" afii57675 dx=10 dy=0 dh=10 dv=0 dx=0 dy=0 dh=0 dv=0
PairPos2: "'kern' Horizontal Kerning in Hebrew lookup 0 subtable" uniFB38 dx=10 dy=0 dh=10 dv=0 dx=0 dy=0 dh=0 dv=0
PairPos2: "'kern' Horizontal Kerning in Hebrew lookup 0 subtable" afii57672 dx=10 dy=0 dh=10 dv=0 dx=0 dy=0 dh=0 dv=0
PairPos2: "'kern' Horizontal Kerning in Hebrew lookup 0 subtable" afii57671 dx=10 dy=0 dh=10 dv=0 dx=0 dy=0 dh=0 dv=0
PairPos2: "'kern' Horizontal Kerning in Hebrew lookup 0 subtable" uniFB4C dx=10 dy=0 dh=10 dv=0 dx=0 dy=0 dh=0 dv=0
PairPos2: "'kern' Horizontal Kerning in Hebrew lookup 0 subtable" uniFB31 dx=10 dy=0 dh=10 dv=0 dx=0 dy=0 dh=0 dv=0
PairPos2: "'kern' Horizontal Kerning in Hebrew lookup 0 subtable" afii57665 dx=10 dy=0 dh=10 dv=0 dx=0 dy=0 dh=0 dv=0
Substitution2: "WideLetters" uniFB23
Comment: "%DiaToBase1+AD0A-270+AAoA%DiaToBase2+AD0A-270+AAoA%DiaToBase3+AD0A-280+AAoA%DiaToBaseO+AD0A-0+AAoA%DiaToBaseU+AD0A-270+AAoA" 
EndChar

StartChar: afii57669
Encoding: 1493 1493 150
Width: 340
VWidth: 1000
Flags: HMW
AnchorPoint: "DiaToBaseD" 142 0 basechar 0
AnchorPoint: "DiaToBaseU" 202 0 basechar 0
AnchorPoint: "DiaToBase3" 202 0 basechar 0
AnchorPoint: "DiaToBase2" 202 0 basechar 0
AnchorPoint: "DiaToBase1" 242 0 basechar 0
LayerCount: 2
Back
SplineSet
112.876 600 m 2
 166.475 600 l 2
 261.095 600 277.475 545 277.475 468 c 0
 277.475 326.175 280.083 202.626 276.459 71 c 0
 275 18 245 -6 225.975 -6 c 12
 219.632 -6 214.475 -0.842773 214.475 5.5 c 20
 214.475 134 213.975 274.5 213.975 363 c 4
 213.975 423.5 213.198 458 130.688 458 c 6
 121.376 458 l 2
 64.1064 458 36.999 485 36.999 546.5 c 0
 36.999 591 57.0654 646 84.0928 646 c 0
 100.565 646 91.1875 632.859 93.376 619 c 8
 95.0322 608.512 104.876 600 112.876 600 c 2
EndSplineSet
Fore
SplineSet
124.876 600 m 2
 178.475 600 l 2
 273.095 600 289.475 545 289.475 468 c 0
 289.475 326.175 292.083 202.626 288.459 71 c 0
 287 18 252 -6 232.975 -6 c 8
 226.632 -6 221.475 -0.842773 221.475 5.5 c 16
 221.475 134 220.975 274.5 220.975 363 c 0
 220.975 423.5 220.198 458 137.688 458 c 2
 133.376 458 l 2
 76.1064 458 48.999 485 48.999 546.5 c 0
 48.999 591 69.0654 646 96.0928 646 c 0
 112.565 646 103.188 632.859 105.376 619 c 8
 107.032 608.512 116.876 600 124.876 600 c 2
EndSplineSet
PairPos2: "'kern' Horizontal Kerning in Hebrew lookup 0 subtable" question dx=10 dy=0 dh=10 dv=0 dx=0 dy=0 dh=0 dv=0
PairPos2: "'kern' Horizontal Kerning in Hebrew lookup 0 subtable" period dx=-100 dy=0 dh=-100 dv=0 dx=0 dy=0 dh=0 dv=0
PairPos2: "'kern' Horizontal Kerning in Hebrew lookup 0 subtable" ellipsis dx=-100 dy=0 dh=-100 dv=0 dx=0 dy=0 dh=0 dv=0
PairPos2: "'kern' Horizontal Kerning in Hebrew lookup 0 subtable" hyphen dx=-20 dy=0 dh=-20 dv=0 dx=0 dy=0 dh=0 dv=0
PairPos2: "'kern' Horizontal Kerning in Hebrew lookup 0 subtable" comma dx=-100 dy=0 dh=-100 dv=0 dx=0 dy=0 dh=0 dv=0
PairPos2: "'kern' Horizontal Kerning in Hebrew lookup 0 subtable" uniFB3D dx=-10 dy=0 dh=-10 dv=0 dx=0 dy=0 dh=0 dv=0
PairPos2: "'kern' Horizontal Kerning in Hebrew lookup 0 subtable" uniFB4A dx=-15 dy=0 dh=-15 dv=0 dx=0 dy=0 dh=0 dv=0
PairPos2: "'kern' Horizontal Kerning in Hebrew lookup 0 subtable" uniFB28 dx=-15 dy=0 dh=-15 dv=0 dx=0 dy=0 dh=0 dv=0
PairPos2: "'kern' Horizontal Kerning in Hebrew lookup 0 subtable" afii57690 dx=-15 dy=0 dh=-15 dv=0 dx=0 dy=0 dh=0 dv=0
PairPos2: "'kern' Horizontal Kerning in Hebrew lookup 0 subtable" uniFB46 dx=-10 dy=0 dh=-10 dv=0 dx=0 dy=0 dh=0 dv=0
PairPos2: "'kern' Horizontal Kerning in Hebrew lookup 0 subtable" afii57686 dx=-10 dy=0 dh=-10 dv=0 dx=0 dy=0 dh=0 dv=0
PairPos2: "'kern' Horizontal Kerning in Hebrew lookup 0 subtable" uniFB43 dx=-20 dy=0 dh=-20 dv=0 dx=0 dy=0 dh=0 dv=0
PairPos2: "'kern' Horizontal Kerning in Hebrew lookup 0 subtable" afii57683 dx=-20 dy=0 dh=-20 dv=0 dx=0 dy=0 dh=0 dv=0
PairPos2: "'kern' Horizontal Kerning in Hebrew lookup 0 subtable" uniFB41 dx=-15 dy=0 dh=-15 dv=0 dx=0 dy=0 dh=0 dv=0
PairPos2: "'kern' Horizontal Kerning in Hebrew lookup 0 subtable" afii57681 dx=-15 dy=0 dh=-15 dv=0 dx=0 dy=0 dh=0 dv=0
PairPos2: "'kern' Horizontal Kerning in Hebrew lookup 0 subtable" uniFB40 dx=-15 dy=0 dh=-15 dv=0 dx=0 dy=0 dh=0 dv=0
PairPos2: "'kern' Horizontal Kerning in Hebrew lookup 0 subtable" afii57680 dx=-15 dy=0 dh=-15 dv=0 dx=0 dy=0 dh=0 dv=0
PairPos2: "'kern' Horizontal Kerning in Hebrew lookup 0 subtable" uniFB3E dx=-15 dy=0 dh=-15 dv=0 dx=0 dy=0 dh=0 dv=0
PairPos2: "'kern' Horizontal Kerning in Hebrew lookup 0 subtable" afii57678 dx=-15 dy=0 dh=-15 dv=0 dx=0 dy=0 dh=0 dv=0
PairPos2: "'kern' Horizontal Kerning in Hebrew lookup 0 subtable" uniFB26 dx=-10 dy=0 dh=-10 dv=0 dx=0 dy=0 dh=0 dv=0
PairPos2: "'kern' Horizontal Kerning in Hebrew lookup 0 subtable" afii57677 dx=-10 dy=0 dh=-10 dv=0 dx=0 dy=0 dh=0 dv=0
PairPos2: "'kern' Horizontal Kerning in Hebrew lookup 0 subtable" uniFB4D dx=-20 dy=0 dh=-20 dv=0 dx=0 dy=0 dh=0 dv=0
PairPos2: "'kern' Horizontal Kerning in Hebrew lookup 0 subtable" uniFB3B dx=-20 dy=0 dh=-20 dv=0 dx=0 dy=0 dh=0 dv=0
PairPos2: "'kern' Horizontal Kerning in Hebrew lookup 0 subtable" uniFB24 dx=-20 dy=0 dh=-20 dv=0 dx=0 dy=0 dh=0 dv=0
PairPos2: "'kern' Horizontal Kerning in Hebrew lookup 0 subtable" afii57675 dx=-20 dy=0 dh=-20 dv=0 dx=0 dy=0 dh=0 dv=0
PairPos2: "'kern' Horizontal Kerning in Hebrew lookup 0 subtable" uniFB38 dx=-10 dy=0 dh=-10 dv=0 dx=0 dy=0 dh=0 dv=0
PairPos2: "'kern' Horizontal Kerning in Hebrew lookup 0 subtable" afii57672 dx=-10 dy=0 dh=-10 dv=0 dx=0 dy=0 dh=0 dv=0
PairPos2: "'kern' Horizontal Kerning in Hebrew lookup 0 subtable" uniFB32 dx=-40 dy=0 dh=-40 dv=0 dx=0 dy=0 dh=0 dv=0
PairPos2: "'kern' Horizontal Kerning in Hebrew lookup 0 subtable" afii57666 dx=-40 dy=0 dh=-40 dv=0 dx=0 dy=0 dh=0 dv=0
PairPos2: "'kern' Horizontal Kerning in Hebrew lookup 0 subtable" uniFB4C dx=-35 dy=0 dh=-35 dv=0 dx=0 dy=0 dh=0 dv=0
PairPos2: "'kern' Horizontal Kerning in Hebrew lookup 0 subtable" uniFB31 dx=-35 dy=0 dh=-35 dv=0 dx=0 dy=0 dh=0 dv=0
PairPos2: "'kern' Horizontal Kerning in Hebrew lookup 0 subtable" afii57665 dx=-35 dy=0 dh=-35 dv=0 dx=0 dy=0 dh=0 dv=0
PairPos2: "'kern' Horizontal Kerning in Hebrew lookup 0 subtable" uniFB30 dx=-10 dy=0 dh=-10 dv=0 dx=0 dy=0 dh=0 dv=0
PairPos2: "'kern' Horizontal Kerning in Hebrew lookup 0 subtable" uniFB2F dx=-10 dy=0 dh=-10 dv=0 dx=0 dy=0 dh=0 dv=0
PairPos2: "'kern' Horizontal Kerning in Hebrew lookup 0 subtable" uniFB2E dx=-10 dy=0 dh=-10 dv=0 dx=0 dy=0 dh=0 dv=0
PairPos2: "'kern' Horizontal Kerning in Hebrew lookup 0 subtable" uniFB21 dx=-10 dy=0 dh=-10 dv=0 dx=0 dy=0 dh=0 dv=0
PairPos2: "'kern' Horizontal Kerning in Hebrew lookup 0 subtable" afii57664 dx=-10 dy=0 dh=-10 dv=0 dx=0 dy=0 dh=0 dv=0
Comment: "%DiaToBase1+AD0A-240+AAoA%DiaToBase2+AD0A-200+AAoA%DiaToBase3+AD0A-200+AAoA%DiaToBaseO+AD0A-0+AAoA%DiaToBaseU+AD0A-200+AAoA" 
EndChar

StartChar: afii57670
Encoding: 1494 1494 151
Width: 339
VWidth: 1000
Flags: HMW
AnchorPoint: "DiaToBaseD" 62 0 basechar 0
AnchorPoint: "DiaToBaseO" 7 0 basechar 0
AnchorPoint: "DiaToBaseU" 162 0 basechar 0
AnchorPoint: "DiaToBase3" 172 0 basechar 0
AnchorPoint: "DiaToBase2" 172 0 basechar 0
AnchorPoint: "DiaToBase1" 167 0 basechar 0
LayerCount: 2
Back
SplineSet
204.452 107 m 0
 202.452 67 192.452 41 173.452 22 c 0
 153.452 2 119.754 -11.5781 112.452 4 c 0
 104.951 20 115.452 8 116.452 166 c 0
 116.642 196.016 106.451 340 124.452 392 c 0
 141.132 440.186 154.457 426.918 152.457 449.918 c 0
 151.591 459.88 140.458 458 131.457 458 c 18
 104.496 458 l 10
 73.1061 458 47.863 479.426 40.4512 510 c 12
 33.6162 538.193 34.6411 569.983 44.4512 597 c 28
 51.8027 617.247 56.9512 634.5 72.4512 643 c 12
 79.501 646.866 89.9512 646.5 92.4512 641 c 4
 94.2188 637.111 90.9512 628.5 92.4512 619 c 12
 94.1514 608.233 103.983 600 111.984 600 c 2
 170.452 600 l 2
 184.452 600 246.3 595.674 270.452 560 c 24
 297.811 519.59 284.452 454 270.452 438 c 0
 259.276 425.228 221.156 473.228 198.452 448 c 0
 162.452 408 208.299 183.93 204.452 107 c 0
EndSplineSet
Fore
SplineSet
128.984 600 m 2
 199.5 600 l 2
 227.5 600 267.055 591.685 287.452 560 c 24
 313.207 519.993 301.452 454 287.452 438 c 0
 276.276 425.228 238.156 473.228 215.452 448 c 0
 179.452 408 225.299 183.93 221.452 107 c 0
 219.452 67 209.452 41 190.452 22 c 0
 170.452 2 136.754 -11.5781 129.452 4 c 0
 121.951 20 132.452 8 133.452 166 c 0
 133.642 196.016 123.451 329.5 141.452 381.5 c 0
 158.132 429.686 164.043 423.082 166.5 444.5 c 0
 167.64 454.435 157.245 458 148.457 458 c 18
 137.484 458 l 2
 80.2148 458 53.1074 485 53.1074 546.5 c 0
 53.1074 591 73.1738 646 100.201 646 c 0
 116.674 646 107.296 632.859 109.484 619 c 8
 111.141 608.512 120.984 600 128.984 600 c 2
EndSplineSet
PairPos2: "'kern' Horizontal Kerning in Hebrew lookup 0 subtable" question dx=10 dy=0 dh=10 dv=0 dx=0 dy=0 dh=0 dv=0
PairPos2: "'kern' Horizontal Kerning in Hebrew lookup 0 subtable" period dx=-50 dy=0 dh=-50 dv=0 dx=0 dy=0 dh=0 dv=0
PairPos2: "'kern' Horizontal Kerning in Hebrew lookup 0 subtable" ellipsis dx=-50 dy=0 dh=-50 dv=0 dx=0 dy=0 dh=0 dv=0
PairPos2: "'kern' Horizontal Kerning in Hebrew lookup 0 subtable" hyphen dx=-20 dy=0 dh=-20 dv=0 dx=0 dy=0 dh=0 dv=0
PairPos2: "'kern' Horizontal Kerning in Hebrew lookup 0 subtable" comma dx=-50 dy=0 dh=-50 dv=0 dx=0 dy=0 dh=0 dv=0
PairPos2: "'kern' Horizontal Kerning in Hebrew lookup 0 subtable" uniFB48 dx=10 dy=0 dh=10 dv=0 dx=0 dy=0 dh=0 dv=0
PairPos2: "'kern' Horizontal Kerning in Hebrew lookup 0 subtable" afii57688 dx=10 dy=0 dh=10 dv=0 dx=0 dy=0 dh=0 dv=0
PairPos2: "'kern' Horizontal Kerning in Hebrew lookup 0 subtable" uniFB4D dx=-10 dy=0 dh=-10 dv=0 dx=0 dy=0 dh=0 dv=0
PairPos2: "'kern' Horizontal Kerning in Hebrew lookup 0 subtable" uniFB3B dx=-10 dy=0 dh=-10 dv=0 dx=0 dy=0 dh=0 dv=0
PairPos2: "'kern' Horizontal Kerning in Hebrew lookup 0 subtable" uniFB24 dx=-10 dy=0 dh=-10 dv=0 dx=0 dy=0 dh=0 dv=0
PairPos2: "'kern' Horizontal Kerning in Hebrew lookup 0 subtable" afii57675 dx=-10 dy=0 dh=-10 dv=0 dx=0 dy=0 dh=0 dv=0
PairPos2: "'kern' Horizontal Kerning in Hebrew lookup 0 subtable" uniFB32 dx=-25 dy=0 dh=-25 dv=0 dx=0 dy=0 dh=0 dv=0
PairPos2: "'kern' Horizontal Kerning in Hebrew lookup 0 subtable" afii57666 dx=-25 dy=0 dh=-25 dv=0 dx=0 dy=0 dh=0 dv=0
PairPos2: "'kern' Horizontal Kerning in Hebrew lookup 0 subtable" uniFB30 dx=-20 dy=0 dh=-20 dv=0 dx=0 dy=0 dh=0 dv=0
PairPos2: "'kern' Horizontal Kerning in Hebrew lookup 0 subtable" uniFB2F dx=-20 dy=0 dh=-20 dv=0 dx=0 dy=0 dh=0 dv=0
PairPos2: "'kern' Horizontal Kerning in Hebrew lookup 0 subtable" uniFB2E dx=-20 dy=0 dh=-20 dv=0 dx=0 dy=0 dh=0 dv=0
PairPos2: "'kern' Horizontal Kerning in Hebrew lookup 0 subtable" uniFB21 dx=-20 dy=0 dh=-20 dv=0 dx=0 dy=0 dh=0 dv=0
PairPos2: "'kern' Horizontal Kerning in Hebrew lookup 0 subtable" afii57664 dx=-20 dy=0 dh=-20 dv=0 dx=0 dy=0 dh=0 dv=0
Comment: "%DiaToBase1+AD0A-165+AAoA%DiaToBase2+AD0A-170+AAoA%DiaToBase3+AD0A-170+AAoA%DiaToBaseO+AD0A-5+AAoA%DiaToBaseU+AD0A-160+AAoA" 
EndChar

StartChar: afii57671
Encoding: 1495 1495 152
Width: 593
VWidth: 1000
Flags: HMW
AnchorPoint: "DiaToBaseD" 304 0 basechar 0
AnchorPoint: "DiaToBaseU" 292 0 basechar 0
AnchorPoint: "DiaToBase3" 297 0 basechar 0
AnchorPoint: "DiaToBase2" 287 0 basechar 0
AnchorPoint: "DiaToBase1" 287 0 basechar 0
LayerCount: 2
Fore
SplineSet
114.003 458 m 0
 73.5029 466 49.9502 489.851 49.9502 546.5 c 0
 49.9502 591 70.0166 646 97.0439 646 c 0
 113.517 646 104.139 632.859 106.327 619 c 8
 107.982 608.512 117.827 600 125.827 600 c 2
 515.329 600 l 2
 529.329 600 546.559 594.939 547.329 560 c 2
 547.336 476 l 2
 546.383 436.022 535.329 470 516.329 428 c 0
 488.997 367.585 535.175 183.93 531.329 107 c 0
 529.329 67 519.329 41 500.329 22 c 0
 480.329 2 441.63 -11.5781 434.329 4 c 0
 426.829 20 443.329 8 443.329 152.5 c 0
 443.329 224 435.003 285 440.668 353.336 c 0
 446.855 427.985 462.003 426 468.67 441.001 c 0
 473.28 451.375 466.67 458 450.003 458 c 2
 240.328 458 l 2
 240.328 458 198.328 457 180.328 428 c 0
 145.358 371.661 175.175 183.93 171.328 107 c 0
 169.328 67 159.328 41 140.328 22 c 0
 120.328 2 81.6299 -11.5781 74.3281 4 c 0
 66.8281 20 83.3281 0 83.3281 152.5 c 0
 83.3281 220 83.0029 281 88.0029 340.001 c 0
 94.7979 420.181 125.004 432.002 127.004 444.002 c 0
 128.047 450.264 126.274 455.576 114.003 458 c 0
EndSplineSet
PairPos2: "'kern' Horizontal Kerning in Hebrew lookup 0 subtable" uniE801 dx=10 dy=0 dh=10 dv=0 dx=0 dy=0 dh=0 dv=0
PairPos2: "'kern' Horizontal Kerning in Hebrew lookup 0 subtable" question dx=10 dy=0 dh=10 dv=0 dx=0 dy=0 dh=0 dv=0
PairPos2: "'kern' Horizontal Kerning in Hebrew lookup 0 subtable" hyphen dx=10 dy=0 dh=10 dv=0 dx=0 dy=0 dh=0 dv=0
PairPos2: "'kern' Horizontal Kerning in Hebrew lookup 0 subtable" uniFB2D dx=-5 dy=0 dh=-5 dv=0 dx=0 dy=0 dh=0 dv=0
PairPos2: "'kern' Horizontal Kerning in Hebrew lookup 0 subtable" uniFB2C dx=-5 dy=0 dh=-5 dv=0 dx=0 dy=0 dh=0 dv=0
PairPos2: "'kern' Horizontal Kerning in Hebrew lookup 0 subtable" uniFB3D dx=20 dy=0 dh=20 dv=0 dx=0 dy=0 dh=0 dv=0
PairPos2: "'kern' Horizontal Kerning in Hebrew lookup 0 subtable" afii57716 dx=10 dy=0 dh=10 dv=0 dx=0 dy=0 dh=0 dv=0
PairPos2: "'kern' Horizontal Kerning in Hebrew lookup 0 subtable" uniFB4A dx=10 dy=0 dh=10 dv=0 dx=0 dy=0 dh=0 dv=0
PairPos2: "'kern' Horizontal Kerning in Hebrew lookup 0 subtable" uniFB28 dx=10 dy=0 dh=10 dv=0 dx=0 dy=0 dh=0 dv=0
PairPos2: "'kern' Horizontal Kerning in Hebrew lookup 0 subtable" afii57690 dx=10 dy=0 dh=10 dv=0 dx=0 dy=0 dh=0 dv=0
PairPos2: "'kern' Horizontal Kerning in Hebrew lookup 0 subtable" uniFB49 dx=-5 dy=0 dh=-5 dv=0 dx=0 dy=0 dh=0 dv=0
PairPos2: "'kern' Horizontal Kerning in Hebrew lookup 0 subtable" afii57695 dx=-5 dy=0 dh=-5 dv=0 dx=0 dy=0 dh=0 dv=0
PairPos2: "'kern' Horizontal Kerning in Hebrew lookup 0 subtable" afii57694 dx=-5 dy=0 dh=-5 dv=0 dx=0 dy=0 dh=0 dv=0
PairPos2: "'kern' Horizontal Kerning in Hebrew lookup 0 subtable" afii57689 dx=-5 dy=0 dh=-5 dv=0 dx=0 dy=0 dh=0 dv=0
PairPos2: "'kern' Horizontal Kerning in Hebrew lookup 0 subtable" uniFB48 dx=30 dy=0 dh=30 dv=0 dx=0 dy=0 dh=0 dv=0
PairPos2: "'kern' Horizontal Kerning in Hebrew lookup 0 subtable" afii57688 dx=30 dy=0 dh=30 dv=0 dx=0 dy=0 dh=0 dv=0
PairPos2: "'kern' Horizontal Kerning in Hebrew lookup 0 subtable" uniFB47 dx=10 dy=0 dh=10 dv=0 dx=0 dy=0 dh=0 dv=0
PairPos2: "'kern' Horizontal Kerning in Hebrew lookup 0 subtable" afii57687 dx=10 dy=0 dh=10 dv=0 dx=0 dy=0 dh=0 dv=0
PairPos2: "'kern' Horizontal Kerning in Hebrew lookup 0 subtable" uniFB46 dx=-10 dy=0 dh=-10 dv=0 dx=0 dy=0 dh=0 dv=0
PairPos2: "'kern' Horizontal Kerning in Hebrew lookup 0 subtable" afii57686 dx=-10 dy=0 dh=-10 dv=0 dx=0 dy=0 dh=0 dv=0
PairPos2: "'kern' Horizontal Kerning in Hebrew lookup 0 subtable" uniFB4E dx=10 dy=0 dh=10 dv=0 dx=0 dy=0 dh=0 dv=0
PairPos2: "'kern' Horizontal Kerning in Hebrew lookup 0 subtable" uniFB44 dx=10 dy=0 dh=10 dv=0 dx=0 dy=0 dh=0 dv=0
PairPos2: "'kern' Horizontal Kerning in Hebrew lookup 0 subtable" afii57684 dx=10 dy=0 dh=10 dv=0 dx=0 dy=0 dh=0 dv=0
PairPos2: "'kern' Horizontal Kerning in Hebrew lookup 0 subtable" uniFB40 dx=10 dy=0 dh=10 dv=0 dx=0 dy=0 dh=0 dv=0
PairPos2: "'kern' Horizontal Kerning in Hebrew lookup 0 subtable" afii57680 dx=10 dy=0 dh=10 dv=0 dx=0 dy=0 dh=0 dv=0
PairPos2: "'kern' Horizontal Kerning in Hebrew lookup 0 subtable" uniFB3E dx=20 dy=0 dh=20 dv=0 dx=0 dy=0 dh=0 dv=0
PairPos2: "'kern' Horizontal Kerning in Hebrew lookup 0 subtable" afii57678 dx=20 dy=0 dh=20 dv=0 dx=0 dy=0 dh=0 dv=0
PairPos2: "'kern' Horizontal Kerning in Hebrew lookup 0 subtable" uniFB26 dx=20 dy=0 dh=20 dv=0 dx=0 dy=0 dh=0 dv=0
PairPos2: "'kern' Horizontal Kerning in Hebrew lookup 0 subtable" afii57677 dx=20 dy=0 dh=20 dv=0 dx=0 dy=0 dh=0 dv=0
PairPos2: "'kern' Horizontal Kerning in Hebrew lookup 0 subtable" uniFB4D dx=10 dy=0 dh=10 dv=0 dx=0 dy=0 dh=0 dv=0
PairPos2: "'kern' Horizontal Kerning in Hebrew lookup 0 subtable" uniFB3B dx=10 dy=0 dh=10 dv=0 dx=0 dy=0 dh=0 dv=0
PairPos2: "'kern' Horizontal Kerning in Hebrew lookup 0 subtable" uniFB24 dx=10 dy=0 dh=10 dv=0 dx=0 dy=0 dh=0 dv=0
PairPos2: "'kern' Horizontal Kerning in Hebrew lookup 0 subtable" afii57675 dx=10 dy=0 dh=10 dv=0 dx=0 dy=0 dh=0 dv=0
PairPos2: "'kern' Horizontal Kerning in Hebrew lookup 0 subtable" uniFB38 dx=10 dy=0 dh=10 dv=0 dx=0 dy=0 dh=0 dv=0
PairPos2: "'kern' Horizontal Kerning in Hebrew lookup 0 subtable" afii57672 dx=10 dy=0 dh=10 dv=0 dx=0 dy=0 dh=0 dv=0
PairPos2: "'kern' Horizontal Kerning in Hebrew lookup 0 subtable" afii57723 dx=10 dy=0 dh=10 dv=0 dx=0 dy=0 dh=0 dv=0
PairPos2: "'kern' Horizontal Kerning in Hebrew lookup 0 subtable" afii57700 dx=10 dy=0 dh=10 dv=0 dx=0 dy=0 dh=0 dv=0
PairPos2: "'kern' Horizontal Kerning in Hebrew lookup 0 subtable" afii57669 dx=10 dy=0 dh=10 dv=0 dx=0 dy=0 dh=0 dv=0
PairPos2: "'kern' Horizontal Kerning in Hebrew lookup 0 subtable" uniFB33 dx=10 dy=0 dh=10 dv=0 dx=0 dy=0 dh=0 dv=0
PairPos2: "'kern' Horizontal Kerning in Hebrew lookup 0 subtable" uniFB22 dx=10 dy=0 dh=10 dv=0 dx=0 dy=0 dh=0 dv=0
PairPos2: "'kern' Horizontal Kerning in Hebrew lookup 0 subtable" afii57667 dx=10 dy=0 dh=10 dv=0 dx=0 dy=0 dh=0 dv=0
Comment: "%DiaToBase1+AD0A-285+AAoA%DiaToBase2+AD0A-285+AAoA%DiaToBase3+AD0A-295+AAoA%DiaToBaseO+AD0A-0+AAoA%DiaToBaseU+AD0A-290+AAoA" 
EndChar

StartChar: afii57672
Encoding: 1496 1496 153
Width: 581
VWidth: 1000
Flags: HMW
AnchorPoint: "DiaToBaseD" 341 -27 basechar 0
AnchorPoint: "DiaToBaseO" 12 0 basechar 0
AnchorPoint: "DiaToBaseU" 302 0 basechar 0
AnchorPoint: "DiaToBase3" 307 0 basechar 0
AnchorPoint: "DiaToBase2" 307 0 basechar 0
AnchorPoint: "DiaToBase1" 307 0 basechar 0
LayerCount: 2
Back
SplineSet
234.328 544 m 16
 243.328 491 238.328 446 225.328 432 c 0
 205.867 411.042 201.328 454 175.328 438 c 0
 140.838 416.776 134.158 299.677 157.328 212 c 24
 165.974 179.285 170.99 142 204.828 142 c 18
 389.328 142 l 2
 427.267 142.815 427.479 156.392 439.328 178 c 16
 473.328 240 491.328 354 441.328 408 c 0
 373.048 481.742 290.179 391.828 285.328 370 c 0
 281.328 352 255.328 332 247.328 360 c 0
 239.998 385.657 311.328 610 419.328 604 c 0
 529.322 597.889 537.328 416 531.328 334 c 0
 519.644 174.314 507.328 148 423.328 0 c 1
 324.828 0 167.328 0 103.327 0 c 1
 87.3271 208 69.3271 180 71.3271 300 c 0
 72.9619 398.007 123.328 440 113.328 454 c 8
 101.409 470.688 86.3271 460 65.3271 472 c 4
 56.0059 477.326 45.3271 493.5 41.3271 510 c 12
 38.1006 523.309 37.1035 530.308 37.3271 544 c 28
 37.6777 565.438 38.0098 576.848 45.3271 597 c 28
 52.6787 617.247 57.8271 634.5 73.3271 643 c 12
 80.377 646.866 90.8271 646.5 93.3271 641 c 0
 95.0957 637.111 91.8271 628.5 93.3271 619 c 8
 95.0254 608.242 104.827 600 112.828 600 c 2
 189.328 600 l 2
 211.333 600 229.518 572.33 234.328 544 c 16
EndSplineSet
Fore
SplineSet
120.399 461.4 m 0
 81.8701 469.228 58.9502 488.6 58.9502 546.5 c 0
 58.9502 591 79.0166 646 106.044 646 c 0
 122.517 646 113.139 632.859 115.327 619 c 8
 116.982 608.512 126.827 600 134.827 600 c 2
 166.5 600 l 2
 236 600 260 566.5 260 507.5 c 0
 260 478 254.742 458.607 243.5 446.5 c 0
 224.039 425.542 212.087 464.087 190.5 442.5 c 0
 176 428 166 382.5 166 312 c 0
 166 207.5 194.172 142 237 142 c 2
 411.328 142 l 2
 449.267 142.815 466.449 169.308 476.5 202.5 c 16
 498 273.5 506.526 360.564 463.328 408 c 0
 405.5 471.5 337.5 412.5 303.5 364 c 0
 285.475 338.288 264.863 347.311 270.265 378.5 c 0
 280.729 438.908 347.037 609.238 441.328 604 c 0
 551.322 597.889 558.661 416.046 553.328 334 c 0
 544.622 200.077 522.5 112.5 480.392 20 c 0
 474.752 7.60938 470.786 0 449.5 0 c 2
 145.5 0 l 2
 127.902 0 125.092 3.80762 123.723 20 c 0
 108 206 91.3936 183.994 93.3271 300 c 0
 94.5791 375.057 124 416.8 132.6 436.6 c 0
 137.915 448.837 133.2 458.8 120.399 461.4 c 0
EndSplineSet
PairPos2: "'kern' Horizontal Kerning in Hebrew lookup 0 subtable" uniE801 dx=-10 dy=0 dh=-10 dv=0 dx=0 dy=0 dh=0 dv=0
PairPos2: "'kern' Horizontal Kerning in Hebrew lookup 0 subtable" quotesingle dx=-10 dy=0 dh=-10 dv=0 dx=0 dy=0 dh=0 dv=0
PairPos2: "'kern' Horizontal Kerning in Hebrew lookup 0 subtable" quoteright dx=-10 dy=0 dh=-10 dv=0 dx=0 dy=0 dh=0 dv=0
PairPos2: "'kern' Horizontal Kerning in Hebrew lookup 0 subtable" quotedblright dx=-10 dy=0 dh=-10 dv=0 dx=0 dy=0 dh=0 dv=0
PairPos2: "'kern' Horizontal Kerning in Hebrew lookup 0 subtable" quotedbl dx=-10 dy=0 dh=-10 dv=0 dx=0 dy=0 dh=0 dv=0
PairPos2: "'kern' Horizontal Kerning in Hebrew lookup 0 subtable" period dx=-50 dy=0 dh=-50 dv=0 dx=0 dy=0 dh=0 dv=0
PairPos2: "'kern' Horizontal Kerning in Hebrew lookup 0 subtable" ellipsis dx=-50 dy=0 dh=-50 dv=0 dx=0 dy=0 dh=0 dv=0
PairPos2: "'kern' Horizontal Kerning in Hebrew lookup 0 subtable" comma dx=-50 dy=0 dh=-50 dv=0 dx=0 dy=0 dh=0 dv=0
PairPos2: "'kern' Horizontal Kerning in Hebrew lookup 0 subtable" uniFB2D dx=-20 dy=0 dh=-20 dv=0 dx=0 dy=0 dh=0 dv=0
PairPos2: "'kern' Horizontal Kerning in Hebrew lookup 0 subtable" uniFB2C dx=-20 dy=0 dh=-20 dv=0 dx=0 dy=0 dh=0 dv=0
PairPos2: "'kern' Horizontal Kerning in Hebrew lookup 0 subtable" uniFB45 dx=-10 dy=0 dh=-10 dv=0 dx=0 dy=0 dh=0 dv=0
PairPos2: "'kern' Horizontal Kerning in Hebrew lookup 0 subtable" uniFB42 dx=-10 dy=0 dh=-10 dv=0 dx=0 dy=0 dh=0 dv=0
PairPos2: "'kern' Horizontal Kerning in Hebrew lookup 0 subtable" uniFB3F dx=-10 dy=0 dh=-10 dv=0 dx=0 dy=0 dh=0 dv=0
PairPos2: "'kern' Horizontal Kerning in Hebrew lookup 0 subtable" uniFB37 dx=-10 dy=0 dh=-10 dv=0 dx=0 dy=0 dh=0 dv=0
PairPos2: "'kern' Horizontal Kerning in Hebrew lookup 0 subtable" uni05F4 dx=-10 dy=0 dh=-10 dv=0 dx=0 dy=0 dh=0 dv=0
PairPos2: "'kern' Horizontal Kerning in Hebrew lookup 0 subtable" uni05F3 dx=-10 dy=0 dh=-10 dv=0 dx=0 dy=0 dh=0 dv=0
PairPos2: "'kern' Horizontal Kerning in Hebrew lookup 0 subtable" afii57716 dx=-10 dy=0 dh=-10 dv=0 dx=0 dy=0 dh=0 dv=0
PairPos2: "'kern' Horizontal Kerning in Hebrew lookup 0 subtable" uniFB4A dx=-10 dy=0 dh=-10 dv=0 dx=0 dy=0 dh=0 dv=0
PairPos2: "'kern' Horizontal Kerning in Hebrew lookup 0 subtable" uniFB28 dx=-10 dy=0 dh=-10 dv=0 dx=0 dy=0 dh=0 dv=0
PairPos2: "'kern' Horizontal Kerning in Hebrew lookup 0 subtable" afii57690 dx=-10 dy=0 dh=-10 dv=0 dx=0 dy=0 dh=0 dv=0
PairPos2: "'kern' Horizontal Kerning in Hebrew lookup 0 subtable" uniFB49 dx=-20 dy=0 dh=-20 dv=0 dx=0 dy=0 dh=0 dv=0
PairPos2: "'kern' Horizontal Kerning in Hebrew lookup 0 subtable" afii57695 dx=-20 dy=0 dh=-20 dv=0 dx=0 dy=0 dh=0 dv=0
PairPos2: "'kern' Horizontal Kerning in Hebrew lookup 0 subtable" afii57694 dx=-20 dy=0 dh=-20 dv=0 dx=0 dy=0 dh=0 dv=0
PairPos2: "'kern' Horizontal Kerning in Hebrew lookup 0 subtable" afii57689 dx=-20 dy=0 dh=-20 dv=0 dx=0 dy=0 dh=0 dv=0
PairPos2: "'kern' Horizontal Kerning in Hebrew lookup 0 subtable" uniFB46 dx=-10 dy=0 dh=-10 dv=0 dx=0 dy=0 dh=0 dv=0
PairPos2: "'kern' Horizontal Kerning in Hebrew lookup 0 subtable" afii57686 dx=-10 dy=0 dh=-10 dv=0 dx=0 dy=0 dh=0 dv=0
PairPos2: "'kern' Horizontal Kerning in Hebrew lookup 0 subtable" afii57685 dx=-10 dy=0 dh=-10 dv=0 dx=0 dy=0 dh=0 dv=0
PairPos2: "'kern' Horizontal Kerning in Hebrew lookup 0 subtable" uniFB43 dx=-20 dy=0 dh=-20 dv=0 dx=0 dy=0 dh=0 dv=0
PairPos2: "'kern' Horizontal Kerning in Hebrew lookup 0 subtable" afii57683 dx=-20 dy=0 dh=-20 dv=0 dx=0 dy=0 dh=0 dv=0
PairPos2: "'kern' Horizontal Kerning in Hebrew lookup 0 subtable" afii57682 dx=-10 dy=0 dh=-10 dv=0 dx=0 dy=0 dh=0 dv=0
PairPos2: "'kern' Horizontal Kerning in Hebrew lookup 0 subtable" uniFB40 dx=-15 dy=0 dh=-15 dv=0 dx=0 dy=0 dh=0 dv=0
PairPos2: "'kern' Horizontal Kerning in Hebrew lookup 0 subtable" afii57680 dx=-15 dy=0 dh=-15 dv=0 dx=0 dy=0 dh=0 dv=0
PairPos2: "'kern' Horizontal Kerning in Hebrew lookup 0 subtable" afii57679 dx=-10 dy=0 dh=-10 dv=0 dx=0 dy=0 dh=0 dv=0
PairPos2: "'kern' Horizontal Kerning in Hebrew lookup 0 subtable" uniFB4D dx=-10 dy=0 dh=-10 dv=0 dx=0 dy=0 dh=0 dv=0
PairPos2: "'kern' Horizontal Kerning in Hebrew lookup 0 subtable" uniFB3B dx=-10 dy=0 dh=-10 dv=0 dx=0 dy=0 dh=0 dv=0
PairPos2: "'kern' Horizontal Kerning in Hebrew lookup 0 subtable" uniFB24 dx=-10 dy=0 dh=-10 dv=0 dx=0 dy=0 dh=0 dv=0
PairPos2: "'kern' Horizontal Kerning in Hebrew lookup 0 subtable" afii57675 dx=-10 dy=0 dh=-10 dv=0 dx=0 dy=0 dh=0 dv=0
PairPos2: "'kern' Horizontal Kerning in Hebrew lookup 0 subtable" afii57671 dx=-10 dy=0 dh=-10 dv=0 dx=0 dy=0 dh=0 dv=0
PairPos2: "'kern' Horizontal Kerning in Hebrew lookup 0 subtable" uniFB36 dx=-10 dy=0 dh=-10 dv=0 dx=0 dy=0 dh=0 dv=0
PairPos2: "'kern' Horizontal Kerning in Hebrew lookup 0 subtable" afii57670 dx=-10 dy=0 dh=-10 dv=0 dx=0 dy=0 dh=0 dv=0
PairPos2: "'kern' Horizontal Kerning in Hebrew lookup 0 subtable" afii57723 dx=-10 dy=0 dh=-10 dv=0 dx=0 dy=0 dh=0 dv=0
PairPos2: "'kern' Horizontal Kerning in Hebrew lookup 0 subtable" afii57700 dx=-10 dy=0 dh=-10 dv=0 dx=0 dy=0 dh=0 dv=0
PairPos2: "'kern' Horizontal Kerning in Hebrew lookup 0 subtable" afii57669 dx=-10 dy=0 dh=-10 dv=0 dx=0 dy=0 dh=0 dv=0
PairPos2: "'kern' Horizontal Kerning in Hebrew lookup 0 subtable" uniFB34 dx=-10 dy=0 dh=-10 dv=0 dx=0 dy=0 dh=0 dv=0
PairPos2: "'kern' Horizontal Kerning in Hebrew lookup 0 subtable" uniFB23 dx=-10 dy=0 dh=-10 dv=0 dx=0 dy=0 dh=0 dv=0
PairPos2: "'kern' Horizontal Kerning in Hebrew lookup 0 subtable" afii57668 dx=-10 dy=0 dh=-10 dv=0 dx=0 dy=0 dh=0 dv=0
PairPos2: "'kern' Horizontal Kerning in Hebrew lookup 0 subtable" uniFB32 dx=-20 dy=0 dh=-20 dv=0 dx=0 dy=0 dh=0 dv=0
PairPos2: "'kern' Horizontal Kerning in Hebrew lookup 0 subtable" afii57666 dx=-20 dy=0 dh=-20 dv=0 dx=0 dy=0 dh=0 dv=0
PairPos2: "'kern' Horizontal Kerning in Hebrew lookup 0 subtable" uniFB4C dx=-10 dy=0 dh=-10 dv=0 dx=0 dy=0 dh=0 dv=0
PairPos2: "'kern' Horizontal Kerning in Hebrew lookup 0 subtable" uniFB31 dx=-10 dy=0 dh=-10 dv=0 dx=0 dy=0 dh=0 dv=0
PairPos2: "'kern' Horizontal Kerning in Hebrew lookup 0 subtable" afii57665 dx=-10 dy=0 dh=-10 dv=0 dx=0 dy=0 dh=0 dv=0
PairPos2: "'kern' Horizontal Kerning in Hebrew lookup 0 subtable" uniFB30 dx=-30 dy=0 dh=-30 dv=0 dx=0 dy=0 dh=0 dv=0
PairPos2: "'kern' Horizontal Kerning in Hebrew lookup 0 subtable" uniFB2F dx=-30 dy=0 dh=-30 dv=0 dx=0 dy=0 dh=0 dv=0
PairPos2: "'kern' Horizontal Kerning in Hebrew lookup 0 subtable" uniFB2E dx=-30 dy=0 dh=-30 dv=0 dx=0 dy=0 dh=0 dv=0
PairPos2: "'kern' Horizontal Kerning in Hebrew lookup 0 subtable" uniFB21 dx=-30 dy=0 dh=-30 dv=0 dx=0 dy=0 dh=0 dv=0
PairPos2: "'kern' Horizontal Kerning in Hebrew lookup 0 subtable" afii57664 dx=-30 dy=0 dh=-30 dv=0 dx=0 dy=0 dh=0 dv=0
Comment: "%DiaToBase1+AD0A-305+AAoA%DiaToBase2+AD0A-305+AAoA%DiaToBase3+AD0A-305+AAoA%DiaToBaseO+AD0A-10+AAoA%DiaToBaseU+AD0A-300+AAoA" 
EndChar

